{
.formatVersion = 3;
date = "2012-03-27 09:23:42 +0000";
familyName = ChauPhilomeneOne;
featurePrefixes = (
{
code = "languagesystem latn dflt;";
name = LanguageSystems;
},
{
code = "lookup _liga__Standard_Ligatures_in_Latin_lookup_0 {
    sub f i by fi;
    sub f l by fl;
    sub T i by T_i;
    sub F i by F_i;
    sub V i by V_i;
    sub W i by W_i;
    sub Y i by Y_i;
    sub t i by t_i;
    sub T iacute by T_iacute;
    sub T igrave by T_igrave;
    sub F iacute by F_iacute;
    sub F igrave by F_igrave;
    sub V iacute by V_iacute;
    sub V igrave by V_igrave;
    sub Y iacute by Y_iacute;
    sub Y igrave by Y_igrave;
    sub W iacute by W_iacute;
    sub W igrave by W_igrave;
    sub t iacute by t_iacute;
    sub t igrave by t_igrave;
    sub t t i by t_t_i;
    sub t t iacute by t_t_iacute;
    sub t t igrave by t_t_igrave;
    sub f iacute by f_iacute;
    sub f igrave by f_igrave;
} _liga__Standard_Ligatures_in_Latin_lookup_0;";
name = _liga__Standard_Ligatures_in_Latin_lookup_0;
},
{
code = "lookup _smcp__Lowercase_to_Small_Capitals_in_Latin_lookup_1 {
    sub a by A_smcp;
    sub b by B_smcp;
    sub c by C_smcp;
    sub d by D_smcp;
    sub e by E_smcp;
    sub f by F_smcp;
    sub g by G_smcp;
    sub h by H_smcp;
    sub i by I_smcp;
    sub j by J_smcp;
    sub k by K_smcp;
    sub l by L_smcp;
    sub m by M_smcp;
    sub n by N_smcp;
    sub o by O_smcp;
    sub p by P_smcp;
    sub q by Q_smcp;
    sub r by R_smcp;
    sub s by S_smcp;
    sub t by T_smcp;
    sub u by U_smcp;
    sub v by V_smcp;
    sub w by W_smcp;
    sub x by X_smcp;
    sub y by Y_smcp;
    sub z by Z_smcp;
    sub agrave by A_smcpgrave;
    sub aacute by A_smcpacute;
    sub acircumflex by A_smcpcircunflex;
    sub atilde by A_smcptilde;
    sub adieresis by A_smcpdieresis;
    sub aring by A_smcpring;
    sub ae by AE_smcp;
    sub egrave by E_smcpgrave;
    sub eacute by E_smcpacute;
    sub ecircumflex by E_smcpcircunflex;
    sub edieresis by E_smcpdieresis;

glyphs = (
{
category = Letter;
glyphname = exclam;
layers = (
{
layerId = "7144b595-13c7-4fae-a12f-f92b2e7cb6a6";
name = Fore;
shapes = (
{
closed = 1;
nodes = (
(162,198,l),
(63,209,l),
(47,225,l),
(63,532,l),
(95,752,l),
(211,739,l),
(227,723,l)
);
},
{
closed = 1;
nodes = (
(23,128,o),
(95,128,q),
(167,128,o),
(167,56,q),
(167,-16,o),
(95,-16,q),
(23,-16,o),
(23,56,q)
);
}
);
width = 247;
}
);
unicode = 33;
},
{
category = Letter;
glyphname = quotedbl;
layers = (
{
layerId = "7144b595-13c7-4fae-a12f-f92b2e7cb6a6";
name = Fore;
shapes = (
{
closed = 1;
nodes = (
(74,523,l),
(45,576,l),
(40,710,l),
(58,752,l),
(116,752,l),
(134,710,l),
(129,576,l),
(100,523,l)
);
},
{
closed = 1;
nodes = (
(223,523,l),
(194,576,l),
(189,710,l),
(207,752,l),
(265,752,l),
(283,710,l),
(278,576,l),
(249,523,l)
);
}
);
width = 323;
}
);
unicode = 34;
},
{
category = Letter;
glyphname = numbersign;
layers = (
{
layerId = "7144b595-13c7-4fae-a12f-f92b2e7cb6a6";
name = Fore;
shapes = (
{
closed = 1;
nodes = (
(141,252,l),
(170,372,l),
(97,372,l),
(81,388,l),
(81,496,l),
(201,496,l),
(256,720,l),
(367,720,l),
(383,704,l),
(334,496,l),
(455,496,l),
(510,720,l),
(619,720,l),
(635,704,l),
(588,496,l),
(687,496,l),
(703,480,l),
(703,372,l),
(560,372,l),
(532,252,l),
(632,252,l),
(648,236,l),
(648,128,l),
(504,128,l),
(441,-146,l),
(317,-146,l),
(301,-130,l),
(364,128,l),
(250,128,l),
(187,-146,l),
(62,-146,l),
(46,-130,l),
(110,128,l),
(42,128,l),
(26,144,l),
(26,252,l)
);
},
{
closed = 1;
nodes = (
(278,252,l),
(395,252,l),
(424,372,l),
(306,372,l)
);
}
);
width = 723;
}
);
unicode = 35;
},
{
category = Letter;
glyphname = dollar;
layers = (
{
layerId = "7144b595-13c7-4fae-a12f-f92b2e7cb6a6";
name = Fore;
shapes = (
{
closed = 1;
nodes = (
(149,489,o),
(166.5,479,q),
(184,469,o),
(195,463.5,q),
(206,458,o),
(228,448,q),
(302,416,o),
(338.5,377,q),
(375,338,o),
(375,300,q),
(375,238,o),
(349.5,193,q),
(324,148,o),
(277,128,q),
(278,-1,l),
(154,-1,l),
(138,15,l),
(138,122,l),
(65,136,o),
(21,193,q),
(17,195,o),
(17,199,q),
(17,203,o),
(18.5,209,q),
(20,215,o),
(42,241.5,q),
(64,268,o),
(77,268,q),
(81,268,o),
(85,264,q),
(138,222,o),
(188,222,q),
(216,222,o),
(230,238,q),
(244,254,o),
(244,273,q),
(244,292,o),
(228,304,q),
(212,316,o),
(188.5,327.5,q),
(165,339,o),
(163,340,q),
(161,341,o),
(157.5,343,q),
(154,345,o),
(151,346,q),
(100,371,o),
(64.5,408.5,q),
(29,446,o),
(29,492,q),
(29,558,o),
(57,593.5,q),
(85,629,o),
(144,639,q),
(146,768,l),
(257,768,l),
(273,752,l),
(273,634,l),
(308,624,o),
(327,610,q),
(328,610,l),
(336,605,o),
(337.5,598,q),
(339,591,o),
(336,568,q),
(326,510,o),
(312,510,q),
(309,510,o),
(306,512,q),
(268,531,l),
(225,548,o),
(194,548,q),
(149,546,o),
(149,505,q)
);
}
);
width = 393;
}
);
unicode = 36;
},
{
category = Letter;
glyphname = percent;
layers = (
{
layerId = "7144b595-13c7-4fae-a12f-f92b2e7cb6a6";
name = Fore;
shapes = (
{
closed = 1;
nodes = (
(407,720,l),
(509,720,l),
(525,704,l),
(304,0,l),
(195,0,l),
(179,16,l)
);
},
{
closed = 1;
nodes = (
(24,623,o),
(52.5,656.5,q),
(81,690,o),
(144,690,q),
(207,690,o),
(235.5,656.5,q),
(264,623,o),
(264,538,q),
(264,453,o),
(235.5,419.5,q),
(207,386,o),
(144,386,q),
(81,386,o),
(52.5,419.5,q),
(24,453,o),
(24,538,q)
);
},
{
closed = 1;
nodes = (
(107,469,o),
(144,469,q),
(159,469,o),
(170,491.5,q),
(181,514,o),
(181,549,q),
(181,584,o),
(174.5,595.5,q),
(168,607,o),
(148,607,q),
(128,607,o),
(117.5,587,q),
(107,567,o),
(107,538,q)
);
},
{
closed = 1;
nodes = (
(432,253,o),
(460.5,286.5,q),
(489,320,o),
(552,320,q),
(615,320,o),
(643.5,286.5,q),
(672,253,o),
(672,168,q),
(672,83,o),
(643.5,49.5,q),
(615,16,o),
(552,16,q),
(489,16,o),
(460.5,49.5,q),
(432,83,o),
(432,168,q)
);
},
{
closed = 1;
nodes = (
(515,99,o),
(552,99,q),
(567,99,o),
(578,121.5,q),
(589,144,o),
(589,179,q),
(589,214,o),
(582.5,225.5,q),
(576,237,o),
(556,237,q),
(536,237,o),
(525.5,217,q),
(515,197,o),
(515,168,q)
);
}
);
width = 698;
}
);
unicode = 37;
},
{
category = Letter;
glyphname = ampersand;
layers = (
{
layerId = "7144b595-13c7-4fae-a12f-f92b2e7cb6a6";
name = Fore;
shapes = (
{
closed = 1;
nodes = (
(583,411,l),
(584,-223,l),
(584,-224,l),
(584,-230,o),
(582,-232,q),
(578,-240,o),
(544.5,-240,q),
(511,-240,o),
(475.5,-235,q),
(440,-230,o),
(440,-224,q),
(440,-208,l),
(441,411,l),
(220,411,l),
(188,411,o),
(174.5,387.5,q),
(161,364,o),
(159,307,q),
(304,307,l),
(321,307,o),
(324.5,298,q),
(328,289,o),
(328,278,q),
(328,206,o),
(307,206,q),
(158,206,l),
(161,132,o),
(176,107,q),
(191,82,o),
(223.5,82,q),
(256,82,o),
(298.5,88.5,q),
(341,95,o),
(344,94,q),
(354,91,o),
(354,59.5,q),
(354,28,o),
(351,14.5,q),
(348,1,o),
(339,-2,q),
(291,-16,o),
(232,-16,q),
(111,-16,o),
(66.5,40.5,q),
(22,97,o),
(22,248,q),
(22,330,o),
(31.5,380,q),
(41,430,o),
(66,460,q),
(91,490,o),
(129,501,q),
(167,512,o),
(230,512,q),
(711,512,l),
(759,512,o),
(759,481,q),
(759,447,o),
(749,429,q),
(739,411,o),
(711,411,q)
);
}
);
width = 777;
}
);
unicode = 38;
},
{
category = Letter;
glyphname = quotesingle;
layers = (
{
layerId = "7144b595-13c7-4fae-a12f-f92b2e7cb6a6";
name = Fore;
shapes = (
{
closed = 1;
nodes = (
(68,523,l),
(39,576,l),
(34,710,l),
(52,752,l),
(110,752,l),
(128,710,l),
(123,576,l),
(94,523,l)
);
}
);
width = 162;
}
);
unicode = 39;
},
{
category = Letter;
glyphname = parenleft;
layers = (
{
layerId = "7144b595-13c7-4fae-a12f-f92b2e7cb6a6";
name = Fore;
shapes = (
{
closed = 1;
nodes = (
(305,-176,l),
(304,-176,l),
(26,-176,o),
(26,355,q),
(26,602,o),
(84.5,719,q),
(143,836,o),
(288,836,q),
(290,701,l),
(240,701,o),
(218,651,q),
(193,595,o),
(189,538,q),
(185,481,o),
(184,445,q),
(183,409,o),
(183,355,q),
(183,301,o),
(183.5,268.5,q),
(184,236,o),
(185.5,193,q),
(187,150,o),
(190.5,124.5,q),
(194,99,o),
(200,69,q),
(206,39,o),
(215,22.5,q),
(224,6,o),
(236,-9,q),
(260,-37,o),
(305,-37,q)
);
}
);
width = 343;
}
);
unicode = 40;
},
{
category = Letter;
glyphname = parenright;
layers = (
{
layerId = "7144b595-13c7-4fae-a12f-f92b2e7cb6a6";
name = Fore;
shapes = (
{
closed = 1;
nodes = (
(37,-37,l),
(82,-37,o),
(106,-9,q),
(133,24,o),
(140.5,61.5,q),
(148,99,o),
(151.5,124.5,q),
(155,150,o),
(156.5,193,q),
(158,236,o),
(158.5,268.5,q),
(159,301,o),
(159,355,q),
(159,409,o),
(158,445,q),
(157,481,o),
(154,525,q),
(151,569,o),
(143.5,597,q),
(136,625,o),
(124,651,q),
(102,701,o),
(52,701,q),
(54,836,l),
(199,836,o),
(257.5,719,q),
(316,602,o),
(316,355,q),
(316,-176,o),
(38,-176,q),
(37,-176,l)
);
}
);
width = 342;
}
);
unicode = 41;
},
{
category = Letter;
glyphname = asterisk;
layers = (
{
layerId = "7144b595-13c7-4fae-a12f-f92b2e7cb6a6";
name = Fore;
shapes = (
{
closed = 1;
nodes = (
(275,568,l),
(292,551,l),
(292,476,l),
(369,521,l),
(424,430,l),
(418,407,l),
(353,370,l),
(433,324,l),
(376,225,l),
(361,223,l),
(292,262,l),
(292,171,l),
(184,171,l),
(168,187,l),
(168,263,l),
(89,217,l),
(33,314,l),
(35,329,l),
(106,369,l),
(25,416,l),
(81,508,l),
(104,514,l),
(168,477,l),
(168,568,l)
);
}
);
width = 458;
}
);
unicode = 42;
},
{
category = Letter;
glyphname = plus;
layers = (
{
layerId = "7144b595-13c7-4fae-a12f-f92b2e7cb6a6";
name = Fore;
shapes = (
{
closed = 1;
nodes = (
(396,432,l),
(412,416,l),
(412,308,l),
(275,308,l),
(275,171,l),
(167,171,l),
(151,187,l),
(151,308,l),
(31,308,l),
(15,324,l),
(15,432,l),
(151,432,l),
(151,567,l),
(258,568,l),
(275,551,l),
(275,432,l)
);
}
);
width = 427;
}
);
unicode = 43;
},
{
category = Letter;
glyphname = comma;
layers = (
{
layerId = "7144b595-13c7-4fae-a12f-f92b2e7cb6a6";
name = Fore;
shapes = (
{
closed = 1;
nodes = (
(40,128,o),
(112,128,q),
(184,128,o),
(184,56,q),
(184,17,o),
(165,0,q),
(65,-128,l),
(39,-111,l),
(39,-42,l),
(57,3,l),
(40,20,o),
(40,56,q)
);
}
);
width = 197;
}
);
unicode = 44;
},
{
category = Letter;
glyphname = hyphen;
layers = (
{
layerId = "7144b595-13c7-4fae-a12f-f92b2e7cb6a6";
name = Fore;
shapes = (
{
closed = 1;
nodes = (
(61,308,l),
(45,324,l),
(45,432,l),
(321,432,l),
(337,416,l),
(337,308,l)
);
}
);
width = 383;
}
);
unicode = 45;
},
{
category = Letter;
glyphname = period;
layers = (
{
layerId = "7144b595-13c7-4fae-a12f-f92b2e7cb6a6";
name = Fore;
shapes = (
{
closed = 1;
nodes = (
(35,128,o),
(107,128,q),
(179,128,o),
(179,56,q),
(179,-16,o),
(107,-16,q),
(35,-16,o),
(35,56,q)
);
}
);
width = 214;
}
);
unicode = 46;
},
{
category = Letter;
glyphname = slash;
layers = (
{
layerId = "7144b595-13c7-4fae-a12f-f92b2e7cb6a6";
name = Fore;
shapes = (
{
closed = 1;
nodes = (
(259,876,l),
(369,876,l),
(385,860,l),
(148,-146,l),
(24,-146,l),
(8,-130,l)
);
}
);
width = 394;
}
);
unicode = 47;
},
{
category = Letter;
glyphname = zero;
layers = (
{
layerId = "7144b595-13c7-4fae-a12f-f92b2e7cb6a6";
name = Fore;
shapes = (
{
closed = 1;
nodes = (
(207,752,o),
(260,752,q),
(349,752,o),
(395,722,q),
(441,692,o),
(462,611,q),
(483,530,o),
(483,371,q),
(483,152,o),
(435.5,68,q),
(388,-16,o),
(260.5,-16,q),
(133,-16,o),
(85,68,q),
(37,152,o),
(37,354,q),
(37,556,o),
(65,639,q),
(93,722,o),
(172,742,q)
);
},
{
closed = 1;
nodes = (
(180,432,o),
(180,354,q),
(180,276,o),
(184.5,224,q),
(189,172,o),
(196.5,155,q),
(204,138,o),
(217,138,q),
(250,138,o),
(267.5,139.5,q),
(285,141,o),
(301.5,150.5,q),
(318,160,o),
(324.5,172,q),
(331,184,o),
(336,214,q),
(343,256,o),
(343,362,q),
(343,468,o),
(338.5,520,q),
(334,572,o),
(326,589.5,q),
(318,607,o),
(304,607,q),
(272,607,o),
(253.5,605,q),
(235,603,o),
(219.5,592.5,q),
(204,582,o),
(197.5,570,q),
(191,558,o),
(186.5,526.5,q),
(182,495,o),
(181,463.5,q)
);
}
);
width = 520;
}
);
unicode = 48;
},
{
category = Letter;
glyphname = one;
layers = (
{
layerId = "7144b595-13c7-4fae-a12f-f92b2e7cb6a6";
name = Fore;
shapes = (
{
closed = 1;
nodes = (
(59,0,l),
(43,16,l),
(43,124,l),
(157,124,l),
(157,589,l),
(68,571,l),
(33,690,l),
(268,752,l),
(284,736,l),
(300,432,l),
(301,124,l),
(382,124,l),
(398,108,l),
(398,0,l)
);
}
);
width = 422;
}
);
unicode = 49;
},
{
category = Letter;
glyphname = two;
layers = (
{
layerId = "7144b595-13c7-4fae-a12f-f92b2e7cb6a6";
name = Fore;
shapes = (
{
closed = 1;
nodes = (
(275,594,l),
(275,613,o),
(271,617,q),
(267,621,o),
(261,624,q),
(251,629,o),
(230.5,629,q),
(210,629,o),
(198,628.5,q),
(186,628,o),
(178.5,627.5,q),
(171,627,o),
(163.5,625.5,q),
(156,624,o),
(153,623,q),
(138,618,o),
(130,616,q),
(81,616,l),
(53,717,l),
(107,752,o),
(218,752,q),
(287,752,o),
(327,742.5,q),
(367,733,o),
(387,706,q),
(407,679,o),
(412.5,646.5,q),
(418,614,o),
(418,582.5,q),
(418,551,o),
(418.5,536,q),
(419,521,o),
(418.5,516.5,q),
(418,512,o),
(416,495.5,q),
(414,479,o),
(410.5,468.5,q),
(407,458,o),
(399.5,436.5,q),
(392,415,o),
(381.5,396,q),
(371,377,o),
(355,348,q),
(339,319,o),
(318,288,q),
(255,191,o),
(209,131,q),
(419,131,l),
(435,115,l),
(435,0,l),
(39,0,l),
(39,124,l),
(191,341,o),
(232.5,413.5,q),
(274,486,o),
(274,554,q)
);
}
);
width = 475;
}
);
unicode = 50;
},
{
category = Letter;
glyphname = three;
layers = (
{
layerId = "7144b595-13c7-4fae-a12f-f92b2e7cb6a6";
name = Fore;
shapes = (
{
closed = 1;
nodes = (
(160,629,o),
(116,616,q),
(67,616,l),
(39,717,l),
(93,752,o),
(204,752,q),
(342,752,o),
(388,700,q),
(412,673,o),
(421,636,q),
(430,599,o),
(430,541,q),
(430,450,o),
(388,395,q),
(450,344,o),
(450,212,q),
(450,159,o),
(439.5,120.5,q),
(429,82,o),
(402,50,q),
(348,-16,o),
(194,-16,q),
(148,-16,o),
(55,-6,q),
(55,118,l),
(151,112,o),
(207,112,q),
(263,112,o),
(279.5,130.5,q),
(296,149,o),
(296,213,q),
(296,261,l),
(296,286,o),
(293,290,q),
(290,294,o),
(285.5,300.5,q),
(281,307,o),
(275,308,q),
(269,309,o),
(259,312,q),
(245,315,o),
(207,315,q),
(135,315,l),
(135,443,l),
(202,443,o),
(226.5,449,q),
(251,455,o),
(258,466,q),
(276,490,o),
(276,542,q),
(276,629,o),
(237,629,q)
);
}
);
width = 484;
}
);
unicode = 51;
},
{
category = Letter;
glyphname = four;
layers = (
{
layerId = "7144b595-13c7-4fae-a12f-f92b2e7cb6a6";
name = Fore;
shapes = (
{
closed = 1;
nodes = (
(403,308,l),
(403,0,l),
(275,0,l),
(259,16,l),
(259,308,l),
(36,308,l),
(20,324,l),
(21,752,l),
(130,752,l),
(146,736,l),
(162,432,l),
(259,432,l),
(260,752,l),
(371,752,l),
(387,736,l),
(403,432,l),
(445,432,l),
(461,416,l),
(461,308,l)
);
}
);
width = 489;
}
);
unicode = 52;
},
{
category = Letter;
glyphname = five;
layers = (
{
layerId = "7144b595-13c7-4fae-a12f-f92b2e7cb6a6";
name = Fore;
shapes = (
{
closed = 1;
nodes = (
(369,752,l),
(385,736,l),
(385,628,l),
(166,628,l),
(183,454,l),
(193,453,o),
(216.5,451.5,q),
(240,450,o),
(251,449,q),
(262,448,o),
(280,445.5,q),
(298,443,o),
(308,440,q),
(334,434,o),
(347,423,q),
(409,372,o),
(409,226,q),
(409,-16,o),
(137,-16,q),
(117,-16,o),
(94.5,-12.5,q),
(72,-9,o),
(46,-6,q),
(46,118,l),
(142,112,o),
(144,112,q),
(216,112,o),
(235.5,135.5,q),
(255,159,o),
(255,211.5,q),
(255,264,o),
(253,280.5,q),
(251,297,o),
(240,310.5,q),
(229,324,o),
(209,327,q),
(189,330,o),
(150,330,q),
(60,330,l),
(44,346,l),
(44,752,l)
);
}
);
width = 442;
}
);
unicode = 53;
},
{
category = Letter;
glyphname = six;
layers = (
{
layerId = "7144b595-13c7-4fae-a12f-f92b2e7cb6a6";
name = Fore;
shapes = (
{
closed = 1;
nodes = (
(33,329,o),
(52,429.5,q),
(71,530,o),
(90,594.5,q),
(109,659,o),
(144,768,q),
(265,738,l),
(281,722,l),
(261,675,l),
(220,594,o),
(209,504,q),
(233,514,l),
(312,514,o),
(353.5,493,q),
(395,472,o),
(414,415.5,q),
(433,359,o),
(433,250,q),
(433,100,o),
(390,42,q),
(347,-16,o),
(233,-16,q),
(119,-16,o),
(76,42,q),
(33,100,o),
(33,250,q)
);
},
{
closed = 1;
nodes = (
(169,82,o),
(201,82,q),
(245,82,o),
(266,96,q),
(277,104,o),
(281,125,q),
(289,167,o),
(289,250,q),
(289,418,o),
(257,418,q),
(197,418,o),
(183,390,q),
(169,362,o),
(169,250,q)
);
}
);
width = 455;
}
);
unicode = 54;
},
{
category = Letter;
glyphname = seven;
layers = (
{
layerId = "7144b595-13c7-4fae-a12f-f92b2e7cb6a6";
name = Fore;
shapes = (
{
closed = 1;
nodes = (
(418,752,l),
(433,736,l),
(433,629,l),
(365,432,l),
(179,0,l),
(52,0,l),
(36,16,l),
(298,628,l),
(77,628,l),
(61,644,l),
(61,752,l)
);
}
);
width = 447;
}
);
unicode = 55;
},
{
category = Letter;
glyphname = eight;
layers = (
{
layerId = "7144b595-13c7-4fae-a12f-f92b2e7cb6a6";
name = Fore;
shapes = (
{
closed = 1;
nodes = (
(455,113,o),
(403,48.5,q),
(351,-16,o),
(243,-16,q),
(32,-16,o),
(32,222,q),
(32,269,o),
(57,317.5,q),
(82,366,o),
(124,400,q),
(93,433,o),
(73.5,476.5,q),
(54,520,o),
(54,562,q),
(54,652,o),
(100.5,711,q),
(147,770,o),
(239,770,q),
(433,770,o),
(433,562,q),
(433,475,o),
(362,400,q),
(404,367,o),
(429.5,318,q),
(455,269,o),
(455,222,q)
);
},
{
closed = 1;
nodes = (
(188,509,o),
(243,463,q),
(300,509,o),
(300,577,q),
(300,621,o),
(283.5,646,q),
(267,671,o),
(243.5,671,q),
(220,671,o),
(204,646,q),
(188,621,o),
(188,577,q)
);
},
{
closed = 1;
nodes = (
(170,244,o),
(170,203,q),
(170,162,o),
(188.5,129,q),
(207,96,o),
(243.5,96,q),
(280,96,o),
(298.5,129,q),
(317,162,o),
(317,203,q),
(317,244,o),
(299,270.5,q),
(281,297,o),
(243,329,q),
(205,297,o),
(187.5,270.5,q)
);
}
);
width = 487;
}
);
unicode = 56;
},
{
category = Letter;
glyphname = nine;
layers = (
{
layerId = "7144b595-13c7-4fae-a12f-f92b2e7cb6a6";
name = Fore;
shapes = (
{
closed = 1;
nodes = (
(424,416,o),
(407,336.5,q),
(390,257,o),
(373,212.5,q),
(356,168,o),
(323,96,q),
(290,24,o),
(280,0,q),
(264,-16,l),
(172,16,l),
(156,32,l),
(157,34,o),
(178,74.5,q),
(199,115,o),
(210,137,q),
(244,210,o),
(248,244,q),
(224,234,l),
(145,234,o),
(103.5,255,q),
(62,276,o),
(43,332.5,q),
(24,389,o),
(24,498,q),
(24,649,o),
(67.5,709.5,q),
(111,770,o),
(224,770,q),
(337,770,o),
(380.5,709.5,q),
(424,649,o),
(424,498,q)
);
},
{
closed = 1;
nodes = (
(286,655,o),
(255,655,q),
(198,655,o),
(184,629,q),
(170,603,o),
(170,498,q),
(170,347,o),
(201,347,q),
(259,347,o),
(272.5,372,q),
(286,397,o),
(286,498,q)
);
}
);
width = 454;
}
);
unicode = 57;
},
{
category = Letter;
glyphname = colon;
layers = (
{
layerId = "7144b595-13c7-4fae-a12f-f92b2e7cb6a6";
name = Fore;
shapes = (
{
closed = 1;
nodes = (
(38,128,o),
(110,128,q),
(182,128,o),
(182,56,q),
(182,-16,o),
(110,-16,q),
(38,-16,o),
(38,56,q)
);
},
{
closed = 1;
nodes = (
(38,512,o),
(110,512,q),
(182,512,o),
(182,440,q),
(182,368,o),
(110,368,q),
(38,368,o),
(38,440,q)
);
}
);
width = 221;
}
);
unicode = 58;
},
{
category = Letter;
glyphname = semicolon;
layers = (
{
layerId = "7144b595-13c7-4fae-a12f-f92b2e7cb6a6";
name = Fore;
shapes = (
{
closed = 1;
nodes = (
(44,512,o),
(116,512,q),
(188,512,o),
(188,440,q),
(188,368,o),
(116,368,q),
(44,368,o),
(44,440,q)
);
},
{
closed = 1;
nodes = (
(42,128,o),
(114,128,q),
(186,128,o),
(186,56,q),
(186,17,o),
(167,0,q),
(67,-128,l),
(41,-111,l),
(41,-42,l),
(59,3,l),
(42,20,o),
(42,56,q)
);
}
);
width = 206;
}
);
unicode = 59;
},
{
category = Letter;
glyphname = less;
layers = (
{
layerId = "7144b595-13c7-4fae-a12f-f92b2e7cb6a6";
name = Fore;
shapes = (
{
closed = 1;
nodes = (
(301,40,l),
(247,53,l),
(29,331,l),
(9,380,l),
(29,429,l),
(231,723,l),
(285,736,l),
(349,697,l),
(156,380,l),
(365,79,l)
);
}
);
width = 396;
}
);
unicode = 60;
},
{
category = Letter;
glyphname = equal;
layers = (
{
layerId = "7144b595-13c7-4fae-a12f-f92b2e7cb6a6";
name = Fore;
shapes = (
{
closed = 1;
nodes = (
(45,556,l),
(377,556,l),
(393,540,l),
(393,449,l),
(376,432,l),
(45,432,l)
);
},
{
closed = 1;
nodes = (
(45,310,l),
(377,310,l),
(393,294,l),
(393,203,l),
(376,186,l),
(45,186,l)
);
}
);
width = 438;
}
);
unicode = 61;
},
{
category = Letter;
glyphname = greater;
layers = (
{
layerId = "7144b595-13c7-4fae-a12f-f92b2e7cb6a6";
name = Fore;
shapes = (
{
closed = 1;
nodes = (
(31,79,l),
(240,380,l),
(47,697,l),
(111,736,l),
(165,723,l),
(367,429,l),
(387,380,l),
(367,331,l),
(149,53,l),
(95,40,l)
);
}
);
width = 396;
}
);
unicode = 62;
},
{
category = Letter;
glyphname = question;
layers = (
{
layerId = "7144b595-13c7-4fae-a12f-f92b2e7cb6a6";
name = Fore;
shapes = (
{
closed = 1;
nodes = (
(127,323,o),
(170,368,q),
(237,437,o),
(256.5,467.5,q),
(276,498,o),
(276,543,q),
(276,588,o),
(264.5,608.5,q),
(253,629,o),
(211,629,q),
(144,629,o),
(100,616,q),
(51,616,l),
(23,717,l),
(77,752,o),
(199,752,q),
(321,752,o),
(370.5,701.5,q),
(420,651,o),
(420,537,q),
(420,509,o),
(414,490,q),
(401,446,o),
(263,291,q),
(263,202,l),
(143,202,l),
(127,218,l),
(127,297,l)
);
},
{
closed = 1;
nodes = (
(124,128,o),
(196,128,q),
(268,128,o),
(268,56,q),
(268,-16,o),
(196,-16,q),
(124,-16,o),
(124,56,q)
);
}
);
width = 438;
}
);
unicode = 63;
},
{
category = Letter;
glyphname = at;
layers = (
{
layerId = "7144b595-13c7-4fae-a12f-f92b2e7cb6a6";
name = Fore;
shapes = (
{
closed = 1;
nodes = (
(204,351,l),
(204,236,o),
(211,184,q),
(218,132,o),
(236,111,q),
(254,90,o),
(300.5,90,q),
(347,90,o),
(451,121.5,q),
(555,153,o),
(559,153,q),
(559,27,l),
(551,26,o),
(504,10,q),
(370,-37,o),
(299,-37,q),
(150,-37,o),
(93.5,47,q),
(37,131,o),
(37,350,q),
(37,511,o),
(60.5,591.5,q),
(84,672,o),
(139.5,703.5,q),
(195,735,o),
(306,735,q),
(431,733,o),
(492,674,q),
(544,622,o),
(556,476,q),
(561,415,o),
(561,318,q),
(561,258,l),
(394,258,l),
(352,258,o),
(325,287.5,q),
(298,317,o),
(298,369.5,q),
(298,422,o),
(323.5,451,q),
(349,480,o),
(389,482,q),
(379,609,o),
(304,609,q),
(265,609,o),
(244,588,q),
(222,566,o),
(216,542,q),
(210,518,o),
(208,504,q),
(203,477,o),
(203,428,q)
);
}
);
width = 599;
}
);
unicode = 64;
},
{
category = Letter;
glyphname = A;
layers = (
{
layerId = "7144b595-13c7-4fae-a12f-f92b2e7cb6a6";
name = Fore;
shapes = (
{
closed = 1;
nodes = (
(367,769,o),
(373,738,q),
(441,431,l),
(510,22,l),
(512,12,o),
(512,3.5,q),
(512,-5,o),
(507,-10.5,q),
(502,-16,o),
(473,-16,q),
(384,-16,o),
(378,22,q),
(343,228,l),
(203,228,l),
(172,21,l),
(169,0,o),
(164.5,-7,q),
(160,-14,o),
(152,-15,q),
(144,-16,o),
(126,-16,q),
(98,-16,l),
(63,-16,o),
(54,-12,q),
(32,-4,o),
(29,6,q),
(28,11,o),
(28,15,q),
(28,19,o),
(49,147,q),
(70,275,o),
(100.5,452,q),
(131,629,o),
(140.5,684,q),
(150,739,o),
(151,746,q),
(155,769,o),
(298,769,q)
);
},
{
closed = 1;
nodes = (
(222,349,l),
(321,349,l),
(268,638,l)
);
}
);
width = 539;
}
);
unicode = 65;
},
{
category = Letter;
glyphname = B;
layers = (
{
layerId = "7144b595-13c7-4fae-a12f-f92b2e7cb6a6";
name = Fore;
shapes = (
{
closed = 1;
nodes = (
(387,768,o),
(446,717.5,q),
(505,667,o),
(505,558.5,q),
(505,450,o),
(462,395,q),
(525,343,o),
(525,220,q),
(525,-16,o),
(254,-16,q),
(222,-16,o),
(45,0,q),
(45,752,l),
(149,768,o),
(234,768,q)
);
},
{
closed = 1;
nodes = (
(374,289,o),
(359,303,q),
(344,317,o),
(281.5,317,q),
(219,317,o),
(202.5,315,q),
(186,313,o),
(186,303,q),
(186,124,l),
(186,113,o),
(199.5,111,q),
(213,109,o),
(274,109,q),
(335,109,o),
(354.5,131,q),
(374,153,o),
(374,221,q)
);
},
{
closed = 1;
nodes = (
(291,441,o),
(322.5,462,q),
(354,483,o),
(354,555,q),
(354,596,o),
(336.5,622.5,q),
(319,649,o),
(299,649,q),
(214,649,o),
(196,638,q),
(190,634,o),
(186,626,q),
(186,457,l),
(186,445,o),
(190,443,q),
(197,441,o),
(204,441,q)
);
}
);
width = 560;
}
);
unicode = 66;
},
{
category = Letter;
glyphname = C;
layers = (
{
layerId = "7144b595-13c7-4fae-a12f-f92b2e7cb6a6";
name = Fore;
shapes = (
{
closed = 1;
nodes = (
(461,118,o),
(461,86,q),
(461,54,o),
(460,38,q),
(456,2,o),
(428,-3,q),
(339,-16,o),
(296,-16,q),
(147,-16,o),
(91,68,q),
(35,152,o),
(35,371,q),
(35,531,o),
(59.5,615.5,q),
(84,700,o),
(138.5,734,q),
(193,768,o),
(301.5,768,q),
(410,768,o),
(460,734,q),
(470,727,o),
(470,717,q),
(470,707,o),
(460.5,679.5,q),
(451,652,o),
(442.5,640.5,q),
(434,629,o),
(425,629,q),
(416,629,o),
(411,630,q),
(336,645,o),
(281.5,645,q),
(227,645,o),
(210.5,585,q),
(194,525,o),
(194,390.5,q),
(194,256,o),
(201,203,q),
(208,150,o),
(227,129,q),
(246,108,o),
(287.5,108,q),
(329,108,o),
(381.5,113,q),
(434,118,o),
(436,118,q)
);
}
);
width = 498;
}
);
unicode = 67;
},
{
category = Letter;
glyphname = D;
layers = (
{
layerId = "7144b595-13c7-4fae-a12f-f92b2e7cb6a6";
name = Fore;
shapes = (
{
closed = 1;
nodes = (
(373,768,o),
(429,737,q),
(485,706,o),
(510,624.5,q),
(535,543,o),
(535,383,q),
(535,161,o),
(477,72.5,q),
(419,-16,o),
(264,-16,q),
(226,-16,o),
(45,0,q),
(45,751,l),
(197,768,o),
(264,768,q)
);
},
{
closed = 1;
nodes = (
(230,649,o),
(208,645.5,q),
(186,642,o),
(186,626,q),
(186,124,l),
(186,113,o),
(199.5,111,q),
(213,109,o),
(254.5,109,q),
(296,109,o),
(313,113.5,q),
(330,118,o),
(344.5,129.5,q),
(359,141,o),
(364,174,q),
(374,238,o),
(374,372,q),
(374,649,o),
(317,649,q)
);
}
);
width = 571;
}
);
unicode = 68;
},
{
category = Letter;
glyphname = E;
layers = (
{
layerId = "7144b595-13c7-4fae-a12f-f92b2e7cb6a6";
name = Fore;
shapes = (
{
closed = 1;
nodes = (
(418,455,o),
(418,419,q),
(418,370,o),
(412,352,q),
(406,334,o),
(381,334,q),
(185,334,l),
(185,121,l),
(416,121,l),
(440,120,o),
(449,111.5,q),
(458,103,o),
(458,86,q),
(458,37,o),
(449,18.5,q),
(440,0,o),
(413,0,q),
(61,0,l),
(45,16,l),
(45,752,l),
(400,752,l),
(443,751,o),
(443,720,q),
(442,693,o),
(440,677.5,q),
(438,662,o),
(427.5,647,q),
(417,632,o),
(397,632,q),
(174,632,l),
(185,455,l),
(378,455,l)
);
}
);
width = 483;
}
);
unicode = 69;
},
{
category = Letter;
glyphname = F;
layers = (
{
layerId = "7144b595-13c7-4fae-a12f-f92b2e7cb6a6";
name = Fore;
shapes = (
{
closed = 1;
nodes = (
(45,752,l),
(390,752,l),
(443,751,o),
(443,723,q),
(443,672,o),
(432,652,q),
(421,632,o),
(385,632,q),
(173,632,l),
(183,455,l),
(392,455,l),
(433,455,o),
(433,423,q),
(433,371,o),
(424,352.5,q),
(415,334,o),
(386,334,q),
(185,334,l),
(185,0,l),
(185,-6,o),
(184,-8,q),
(179,-16,o),
(145.5,-16,q),
(112,-16,o),
(78.5,-11,q),
(45,-6,o),
(45,0,q)
);
}
);
width = 439;
}
);
unicode = 70;
},
{
category = Letter;
glyphname = G;
layers = (
{
layerId = "7144b595-13c7-4fae-a12f-f92b2e7cb6a6";
name = Fore;
shapes = (
{
closed = 1;
nodes = (
(149,-16,o),
(92.5,68,q),
(36,152,o),
(36,371,q),
(36,530,o),
(61,615,q),
(86,700,o),
(140.5,734,q),
(195,768,o),
(295,768,q),
(395,768,o),
(449,741,q),
(471,730,o),
(471,711,q),
(471,705,o),
(461.5,677,q),
(452,649,o),
(443.5,639,q),
(435,629,o),
(425,629,q),
(415,629,o),
(369.5,637,q),
(324,645,o),
(292,645,q),
(260,645,o),
(246,639,q),
(232,633,o),
(223,616.5,q),
(214,600,o),
(208.5,581.5,q),
(203,563,o),
(200,528,q),
(196,481,o),
(196,342.5,q),
(196,204,o),
(212.5,156,q),
(229,108,o),
(289,108,q),
(371,113,l),
(371,331,l),
(372,351,o),
(384.5,357.5,q),
(397,364,o),
(429,364.5,q),
(461,365,o),
(477,356.5,q),
(493,348,o),
(495,322,q),
(512,126,l),
(512,0,l),
(385,-16,o),
(298,-16,q)
);
}
);
width = 547;
}
);
unicode = 71;
},
{
category = Letter;
glyphname = H;
layers = (
{
layerId = "7144b595-13c7-4fae-a12f-f92b2e7cb6a6";
name = Fore;
shapes = (
{
closed = 1;
nodes = (
(348,755,o),
(357.5,761.5,q),
(367,768,o),
(397,768,q),
(469,768,o),
(470,731,q),
(489,431,l),
(489,21,l),
(489,4,o),
(488,-2,q),
(484,-16,o),
(449,-16,q),
(348,-16,o),
(348,20,q),
(348,310,l),
(184,310,l),
(185,21,l),
(185,4,o),
(184,-2,q),
(180,-16,o),
(145,-16,q),
(45,-16,o),
(45,22,q),
(45,733,l),
(45,755,o),
(54.5,761.5,q),
(64,768,o),
(94,768,q),
(166,768,o),
(167,733,q),
(184,430,l),
(348,430,l),
(348,734,l)
);
}
);
width = 533;
}
);
unicode = 72;
},
{
category = Letter;
glyphname = I;
layers = (
{
layerId = "7144b595-13c7-4fae-a12f-f92b2e7cb6a6";
name = Fore;
shapes = (
{
closed = 1;
nodes = (
(95,121,l),
(95,632,l),
(65,632,l),
(45,633,o),
(38,645,q),
(31,659,o),
(31,696,q),
(31,752,o),
(64,752,q),
(241,752,l),
(285,752,o),
(285,721,q),
(285,632,o),
(250,632,q),
(225,632,l),
(235,432,l),
(236,121,l),
(266,121,l),
(301,120,o),
(301,89,q),
(299,0,o),
(252,0,q),
(63,0,l),
(45,1,o),
(38,13,q),
(31,27,o),
(31,65,q),
(31,121,o),
(59,121,q)
);
}
);
width = 325;
}
);
unicode = 73;
},
{
category = Letter;
glyphname = J;
layers = (
{
layerId = "7144b595-13c7-4fae-a12f-f92b2e7cb6a6";
name = Fore;
shapes = (
{
closed = 1;
nodes = (
(76,-113,o),
(91,-53,q),
(106,7,o),
(106,163,q),
(107,732,l),
(107,754,o),
(117.5,761,q),
(128,768,o),
(158,768,q),
(230,768,o),
(231,731,q),
(247,432,l),
(247,165,l),
(247,-4,o),
(226,-90,q),
(213,-140,o),
(189,-167,q),
(138,-224,o),
(32,-224,q),
(14,-223,o),
(7.5,-210.5,q),
(1,-198,o),
(0.5,-167.5,q),
(0,-137,o),
(7.5,-125,q),
(15,-113,o),
(32,-113,q)
);
}
);
width = 289;
}
);
unicode = 74;
},
{
category = Letter;
glyphname = K;
layers = (
{
layerId = "7144b595-13c7-4fae-a12f-f92b2e7cb6a6";
name = Fore;
shapes = (
{
closed = 1;
nodes = (
(377,768,o),
(444,768,q),
(511,768,o),
(511,743,q),
(511,738,o),
(508,732,q),
(357,417,l),
(548,21,l),
(555,6,o),
(555,-0.5,q),
(555,-7,o),
(551.5,-11.5,q),
(548,-16,o),
(512.5,-16,q),
(477,-16,o),
(436.5,-7.5,q),
(396,1,o),
(387,21,q),
(212,386,l),
(212,416,l),
(362,732,l)
);
},
{
closed = 1;
nodes = (
(45,731,l),
(45,753,o),
(56,760.5,q),
(67,768,o),
(97,768,q),
(169,768,o),
(170,730,q),
(185,432,l),
(186,22,l),
(186,4,o),
(184,-2,q),
(181,-16,o),
(146,-16,q),
(45,-16,o),
(45,20,q)
);
}
);
width = 583;
}
);
unicode = 75;
},
{
category = Letter;
glyphname = L;
layers = (
{
layerId = "7144b595-13c7-4fae-a12f-f92b2e7cb6a6";
name = Fore;
shapes = (
{
closed = 1;
nodes = (
(45,753,o),
(55.5,760.5,q),
(66,768,o),
(96,768,q),
(168,768,o),
(169,732,q),
(184,432,l),
(185,121,l),
(379,121,l),
(428,121,o),
(428,85,q),
(428,20,o),
(409,7,q),
(399,0,o),
(383,0,q),
(61,0,l),
(45,16,l),
(45,731,l)
);
}
);
width = 435;
}
);
unicode = 76;
},
{
category = Letter;
glyphname = M;
layers = (
{
layerId = "7144b595-13c7-4fae-a12f-f92b2e7cb6a6";
name = Fore;
shapes = (
{
closed = 1;
nodes = (
(412,475,l),
(347,354,l),
(246,354,l),
(185,473,l),
(185,22,l),
(185,4,o),
(184,-2,q),
(180,-16,o),
(145,-16,q),
(45,-16,o),
(45,21,q),
(45,730,l),
(45,768,o),
(114,768,q),
(183,768,o),
(197,731,q),
(298,473,l),
(404,732,l),
(412,754,o),
(423.5,761,q),
(435,768,o),
(464,768,q),
(536,768,o),
(537,729,q),
(553,431,l),
(553,28,l),
(553,-2,o),
(547.5,-9,q),
(542,-16,o),
(511.5,-16,q),
(481,-16,o),
(462,-14,q),
(443,-12,o),
(427.5,-3.5,q),
(412,5,o),
(412,21,q)
);
}
);
width = 597;
}
);
unicode = 77;
},
{
category = Letter;
glyphname = N;
layers = (
{
layerId = "7144b595-13c7-4fae-a12f-f92b2e7cb6a6";
name = Fore;
shapes = (
{
closed = 1;
nodes = (
(45,731,l),
(45,768,o),
(117,768,q),
(132,768,o),
(140.5,767,q),
(149,766,o),
(162,757.5,q),
(175,749,o),
(185,733,q),
(364,313,l),
(358,732,l),
(358,768,o),
(430,768,q),
(460,768,o),
(471,761,q),
(482,754,o),
(483,732,q),
(499,431,l),
(499,21,l),
(499,4,o),
(498,-2,q),
(494,-16,o),
(459,-16,q),
(394,-16,o),
(381,21,q),
(184,436,l),
(185,22,l),
(185,4,o),
(184,-2,q),
(180,-16,o),
(145,-16,q),
(45,-16,o),
(45,24,q)
);
}
);
width = 543;
}
);
unicode = 78;
},
{
category = Letter;
glyphname = O;
layers = (
{
layerId = "7144b595-13c7-4fae-a12f-f92b2e7cb6a6";
name = Fore;
shapes = (
{
closed = 1;
nodes = (
(37,530,o),
(62,615,q),
(87,700,o),
(141.5,734,q),
(196,768,o),
(299,768,q),
(402,768,o),
(456.5,734,q),
(511,700,o),
(535.5,615.5,q),
(560,531,o),
(560,371,q),
(560,152,o),
(504,68,q),
(448,-16,o),
(299,-16,q),
(150,-16,o),
(93.5,68,q),
(37,152,o),
(37,371,q)
);
},
{
closed = 1;
nodes = (
(196,443,o),
(196,351,q),
(196,259,o),
(202,197,q),
(208,135,o),
(218,115.5,q),
(228,96,o),
(245,96,q),
(333,96,o),
(360,114,q),
(370,121,o),
(379.5,137,q),
(389,153,o),
(393,170,q),
(397,187,o),
(400,220,q),
(404,263,o),
(404,374.5,q),
(404,486,o),
(398.5,550.5,q),
(393,615,o),
(382.5,638.5,q),
(372,662,o),
(355,662,q),
(315,662,o),
(290.5,658.5,q),
(266,655,o),
(247,641.5,q),
(228,628,o),
(219,611.5,q),
(210,595,o),
(204,557.5,q),
(198,520,o),
(197,481.5,q)
);
}
);
width = 597;
}
);
unicode = 79;
},
{
category = Letter;
glyphname = P;
layers = (
{
layerId = "7144b595-13c7-4fae-a12f-f92b2e7cb6a6";
name = Fore;
shapes = (
{
closed = 1;
nodes = (
(45,752,l),
(146,768,o),
(223,768,q),
(359,768,o),
(412.5,711,q),
(466,654,o),
(466,532,q),
(466,388,o),
(394,335,q),
(347,301,o),
(302,293,q),
(244,284,o),
(170,284,q),
(170,23,l),
(170,4,o),
(168,-2,q),
(165,-16,o),
(130,-16,q),
(45,-16,o),
(45,22,q)
);
},
{
closed = 1;
nodes = (
(182,421,o),
(202.5,421,q),
(223,421,o),
(240,422,q),
(257,423,o),
(276.5,428.5,q),
(296,434,o),
(304,446,q),
(322,476,o),
(322,529,q),
(322,582,o),
(306,615.5,q),
(290,649,o),
(272,649,q),
(200,649,o),
(185,646,q),
(170,643,o),
(170,626,q),
(170,436,l),
(170,425,o),
(173.5,423.5,q),
(177,422,o),
(179.5,421.5,q)
);
}
);
width = 477;
}
);
unicode = 80;
},
{
category = Letter;
glyphname = Q;
layers = (
{
layerId = "7144b595-13c7-4fae-a12f-f92b2e7cb6a6";
name = Fore;
shapes = (
{
closed = 1;
nodes = (
(32,530,o),
(57,615,q),
(82,700,o),
(136.5,734,q),
(191,768,o),
(294,768,q),
(397,768,o),
(451.5,734,q),
(506,700,o),
(530.5,615.5,q),
(555,531,o),
(555,371,q),
(555,152,o),
(499,68,q),
(443,-16,o),
(294,-16,q),
(145,-16,o),
(88.5,68,q),
(32,152,o),
(32,371,q)
);
},
{
closed = 1;
nodes = (
(191,443,o),
(191,351,q),
(191,259,o),
(197,197,q),
(203,135,o),
(213,115.5,q),
(223,96,o),
(240,96,q),
(328,96,o),
(356,114,q),
(365,121,o),
(374.5,137,q),
(384,153,o),
(388,170,q),
(392,187,o),
(395,220,q),
(399,263,o),
(399,374.5,q),
(399,486,o),
(393.5,550.5,q),
(388,615,o),
(377.5,638.5,q),
(367,662,o),
(350,662,q),
(310,662,o),
(285.5,658.5,q),
(261,655,o),
(242,641.5,q),
(223,628,o),
(214,611.5,q),
(205,595,o),
(199,557.5,q),
(193,520,o),
(192,481.5,q)
);
},
{
closed = 1;
nodes = (
(484,-187,o),
(439,-187,q),
(394,-187,o),
(288.5,-176,q),
(183,-165,o),
(127,-165,q),
(111,-116,l),
(112,-81,o),
(130,-68.5,q),
(148,-56,o),
(189.5,-56,q),
(231,-56,o),
(332.5,-66,q),
(434,-76,o),
(489,-76,q),
(514,-133,l),
(513,-165,o),
(498.5,-176,q)
);
}
);
width = 589;
}
);
unicode = 81;
},
{
category = Letter;
glyphname = R;
layers = (
{
layerId = "7144b595-13c7-4fae-a12f-f92b2e7cb6a6";
name = Fore;
shapes = (
{
closed = 1;
nodes = (
(45,752,l),
(147,768,o),
(222,768,q),
(361,768,o),
(414,716,q),
(467,664,o),
(467,544,q),
(467,376,o),
(373,320,q),
(499,35,l),
(510,10,o),
(510,2.5,q),
(510,-5,o),
(508,-7,q),
(504,-16,o),
(474,-16,q),
(377,-16,o),
(360,22,q),
(246,286,l),
(221,284,o),
(171,284,q),
(171,26,l),
(171,-2,o),
(165.5,-9,q),
(160,-16,o),
(131,-16,q),
(45,-16,o),
(45,24,q)
);
},
{
closed = 1;
nodes = (
(267,421,o),
(295,443.5,q),
(323,466,o),
(323,545,q),
(323,593,o),
(307.5,621,q),
(292,649,o),
(273,649,q),
(202,649,o),
(186.5,646,q),
(171,643,o),
(171,626,q),
(171,436,l),
(171,423,o),
(176,422,q),
(181,421,o),
(187,421,q)
);
}
);
width = 532;
}
);
unicode = 82;
},
{
category = Letter;
glyphname = S;
layers = (
{
layerId = "7144b595-13c7-4fae-a12f-f92b2e7cb6a6";
name = Fore;
shapes = (
{
closed = 1;
nodes = (
(27,126,o),
(50.5,149.5,q),
(74,173,o),
(81.5,175,q),
(89,177,o),
(96,177,q),
(103,177,o),
(119,168,q),
(193,110,o),
(249,110,q),
(305,110,o),
(322,136,q),
(339,162,o),
(339,204,q),
(339,246,o),
(309,272,q),
(279,298,o),
(210.5,335,q),
(142,372,o),
(91,431,q),
(40,490,o),
(40,553,q),
(40,665,o),
(98.5,716.5,q),
(157,768,o),
(270,768,q),
(339,768,o),
(405,735,q),
(440,721,o),
(438,706,q),
(437,700,o),
(436,688,q),
(417,634,o),
(407,626,q),
(404,624,o),
(393.5,624,q),
(383,624,o),
(338,640.5,q),
(293,657,o),
(261.5,657,q),
(230,657,o),
(209,635,q),
(188,613,o),
(188,573,q),
(188,533,o),
(224,500.5,q),
(260,468,o),
(335,433,q),
(414,392,o),
(453.5,348,q),
(493,304,o),
(493,230,q),
(493,-16,o),
(285,-16,q),
(130,-16,o),
(48,73,q),
(27,99,o),
(27,112.5,q)
);
}
);
width = 522;
}
);
unicode = 83;
},
{
category = Letter;
glyphname = T;
layers = (
{
layerId = "7144b595-13c7-4fae-a12f-f92b2e7cb6a6";
name = Fore;
shapes = (
{
closed = 1;
nodes = (
(172,632,l),
(47,632,l),
(23,633,o),
(16,645,q),
(7,659,o),
(7,695,q),
(7,752,o),
(41,752,q),
(405,752,l),
(463,752,o),
(463,721,q),
(463,632,o),
(415,632,q),
(303,633,l),
(312,430,l),
(313,23,l),
(313,4,o),
(312,-2,q),
(308,-16,o),
(273,-16,q),
(172,-16,o),
(172,21,q)
);
}
);
width = 470;
}
);
unicode = 84;
},
{
category = Letter;
glyphname = U;
layers = (
{
layerId = "7144b595-13c7-4fae-a12f-f92b2e7cb6a6";
name = Fore;
shapes = (
{
closed = 1;
nodes = (
(367,750,o),
(379,759,q),
(391,768,o),
(429,768,q),
(467,768,o),
(481.5,756,q),
(496,744,o),
(497,698,q),
(509,429,l),
(509,414,o),
(509,399,q),
(509,244,o),
(488.5,153,q),
(468,62,o),
(418.5,23,q),
(369,-16,o),
(277,-16,q),
(143,-16,o),
(92,68,q),
(41,152,o),
(41,370,q),
(41,700,l),
(41,743,o),
(53.5,755.5,q),
(66,768,o),
(105,768,q),
(144,768,o),
(158,754.5,q),
(172,741,o),
(174,690,q),
(188,431,l),
(188,178,o),
(208,130,q),
(216,109,o),
(231,109,q),
(266,109,o),
(285,110.5,q),
(304,112,o),
(322,122.5,q),
(340,133,o),
(347,147,q),
(354,161,o),
(360,194,q),
(367,240,o),
(367,370,q),
(367,722,l)
);
}
);
width = 550;
}
);
unicode = 85;
},
{
category = Letter;
glyphname = V;
layers = (
{
layerId = "7144b595-13c7-4fae-a12f-f92b2e7cb6a6";
name = Fore;
shapes = (
{
closed = 1;
nodes = (
(552,768,o),
(552,739,q),
(552,734,o),
(551,729,q),
(383,21,l),
(378,-2,o),
(370,-9,q),
(362,-16,o),
(322,-16,q),
(229,-16,o),
(219,22,q),
(25,731,l),
(24,735,o),
(24,739,q),
(24,768,o),
(92,768,q),
(125,768,o),
(143.5,759.5,q),
(162,751,o),
(168,727,q),
(304,194,l),
(424,732,l),
(428,753,o),
(441,760.5,q),
(454,768,o),
(485,768,q)
);
}
);
width = 576;
}
);
unicode = 86;
},
{
category = Letter;
glyphname = W;
layers = (
{
layerId = "7144b595-13c7-4fae-a12f-f92b2e7cb6a6";
name = Fore;
shapes = (
{
closed = 1;
nodes = (
(32,768,o),
(99.5,768,q),
(167,768,o),
(176,731,q),
(311,194,l),
(407,632,l),
(411,652,o),
(424,659,q),
(437,666,o),
(468,666,q),
(548,666,o),
(559,623,q),
(667,194,l),
(786,731,l),
(791,753,o),
(804,760.5,q),
(817,768,o),
(855,768,q),
(893,768,o),
(904.5,763,q),
(916,758,o),
(916,740,q),
(916,736,o),
(915,731,q),
(748,20,l),
(743,-1,o),
(733.5,-8.5,q),
(724,-16,o),
(703,-16,q),
(596,-16,o),
(586,20,q),
(480,375,l),
(390,22,l),
(385,0,o),
(375,-8,q),
(365,-16,o),
(345,-16,q),
(238,-16,o),
(229,20,q),
(33,734,l),
(32,737,o),
(32,740,q)
);
}
);
width = 948;
}
);
unicode = 87;
},
{
category = Letter;
glyphname = X;
layers = (
{
layerId = "7144b595-13c7-4fae-a12f-f92b2e7cb6a6";
name = Fore;
shapes = (
{
closed = 1;
nodes = (
(390,768,o),
(457.5,768,q),
(525,768,o),
(525,742,q),
(525,736,o),
(521,727,q),
(372,414,l),
(562,21,l),
(569,6,o),
(569,-0.5,q),
(569,-7,o),
(565.5,-11.5,q),
(562,-16,o),
(526.5,-16,q),
(491,-16,o),
(450.5,-7.5,q),
(410,1,o),
(402,22,q),
(299,282,l),
(195,22,l),
(186,-1,o),
(176.5,-8.5,q),
(167,-16,o),
(148,-16,q),
(129,-16,o),
(110,-14,q),
(35,-8,o),
(35,14,q),
(35,17,o),
(37,21,q),
(226,415,l),
(77,731,l),
(75,737,o),
(75,742,q),
(75,768,o),
(141.5,768,q),
(208,768,o),
(220,731,q),
(299,522,l),
(378,731,l)
);
}
);
width = 598;
}
);
unicode = 88;
},
{
category = Letter;
glyphname = Y;
layers = (
{
layerId = "7144b595-13c7-4fae-a12f-f92b2e7cb6a6";
name = Fore;
shapes = (
{
closed = 1;
nodes = (
(21,768,o),
(87,768,q),
(153,768,o),
(168,731,q),
(305,492,l),
(424,734,l),
(432,754,o),
(446,761,q),
(460,768,o),
(490,768,q),
(558,768,o),
(558,743,q),
(558,737,o),
(555,731,q),
(360,349,l),
(360,21,l),
(360,4,o),
(358,-2,q),
(355,-16,o),
(320,-16,q),
(243,-16,o),
(243,22,q),
(243,349,l),
(25,732,l),
(21,739,o),
(21,745,q)
);
}
);
width = 575;
}
);
unicode = 89;
},
{
category = Letter;
glyphname = Z;
layers = (
{
layerId = "7144b595-13c7-4fae-a12f-f92b2e7cb6a6";
name = Fore;
shapes = (
{
closed = 1;
nodes = (
(60,0,l),
(44,16,l),
(44,122,l),
(328,632,l),
(72,632,l),
(46,633,o),
(38,644,q),
(30,658,o),
(30,690.5,q),
(30,723,o),
(37,737.5,q),
(44,752,o),
(67,752,q),
(469,752,l),
(485,736,l),
(485,648,l),
(208,121,l),
(445,121,l),
(478,120,o),
(489.5,112.5,q),
(501,105,o),
(501,89,q),
(499,0,o),
(450,0,q)
);
}
);
width = 530;
}
);
unicode = 90;
},
{
category = Letter;
glyphname = bracketleft;
layers = (
{
layerId = "7144b595-13c7-4fae-a12f-f92b2e7cb6a6";
name = Fore;
shapes = (
{
closed = 1;
nodes = (
(59,-140,l),
(43,-124,l),
(51,889,l),
(67,905,l),
(327,905,l),
(343,889,l),
(343,797,l),
(327,781,l),
(162,781,l),
(180,431,l),
(182,-16,l),
(319,-16,l),
(335,-32,l),
(335,-124,l),
(319,-140,l)
);
}
);
width = 369;
}
);
unicode = 91;
},
{
category = Letter;
glyphname = backslash;
layers = (
{
layerId = "7144b595-13c7-4fae-a12f-f92b2e7cb6a6";
name = Fore;
shapes = (
{
closed = 1;
nodes = (
(228,-146,l),
(12,769,l),
(12,876,l),
(117,876,l),
(364,-114,l),
(364,-146,l)
);
}
);
width = 372;
}
);
unicode = 92;
},
{
category = Letter;
glyphname = bracketright;
layers = (
{
layerId = "7144b595-13c7-4fae-a12f-f92b2e7cb6a6";
name = Fore;
shapes = (
{
closed = 1;
nodes = (
(51,-140,l),
(35,-124,l),
(35,-32,l),
(51,-16,l),
(187,-16,l),
(192,781,l),
(43,781,l),
(27,797,l),
(27,889,l),
(43,905,l),
(287,905,l),
(303,889,l),
(323,431,l),
(327,-124,l),
(311,-140,l)
);
}
);
width = 368;
}
);
unicode = 93;
},
{
category = Letter;
glyphname = asciicircum;
layers = (
{
layerId = "7144b595-13c7-4fae-a12f-f92b2e7cb6a6";
name = Fore;
shapes = (
{
closed = 1;
nodes = (
(314,524,l),
(189,637,l),
(64,524,l),
(25,556,l),
(38,610,l),
(140,732,l),
(189,752,l),
(238,732,l),
(340,610,l),
(353,556,l)
);
}
);
width = 377;
}
);
unicode = 94;
},
{
category = Letter;
glyphname = underscore;
layers = (
{
layerId = "7144b595-13c7-4fae-a12f-f92b2e7cb6a6";
name = Fore;
shapes = (
{
closed = 1;
nodes = (
(45,124,l),
(426,124,l),
(442,108,l),
(442,16,l),
(426,0,l),
(45,0,l)
);
}
);
width = 487;
}
);
unicode = 95;
},
{
category = Letter;
glyphname = grave;
layers = (
{
layerId = "7144b595-13c7-4fae-a12f-f92b2e7cb6a6";
name = Fore;
shapes = (
{
closed = 1;
nodes = (
(166,536,l),
(6,708,l),
(114,768,l),
(156,736,l),
(213,612,l),
(212,557,l)
);
}
);
width = 240;
}
);
unicode = 96;
},
{
category = Letter;
glyphname = a;
layers = (
{
layerId = "7144b595-13c7-4fae-a12f-f92b2e7cb6a6";
name = Fore;
shapes = (
{
closed = 1;
nodes = (
(222,-16,o),
(181.5,-16,q),
(141,-16,o),
(116,-10.5,q),
(91,-5,o),
(71,13.5,q),
(51,32,o),
(43,67,q),
(35,102,o),
(35,160,q),
(35,241,o),
(114,271,q),
(257,308,l),
(256,373,o),
(244,392,q),
(232,411,o),
(192,411,q),
(152,411,o),
(123,398,q),
(88,384,l),
(87,384,l),
(78,379,o),
(71,392,q),
(53,430,o),
(53,451.5,q),
(53,473,o),
(56.5,475.5,q),
(60,478,o),
(60,479,q),
(110,512,o),
(189.5,512,q),
(269,512,o),
(312,491,q),
(355,470,o),
(374.5,414.5,q),
(394,359,o),
(394,250,q),
(392,0,l),
(392,-6,o),
(390,-8,q),
(386,-16,o),
(352,-16,q),
(290,-16,o),
(290,0,q),
(274,31,l)
);
},
{
closed = 1;
nodes = (
(146,86,o),
(188,82,q),
(217,82,o),
(230,92,q),
(258,111,o),
(258,234,q),
(206,227,o),
(176,205.5,q),
(146,184,o),
(146,158,q)
);
}
);
width = 435;
}
);
unicode = 97;
},
{
category = Letter;
glyphname = b;
layers = (
{
layerId = "7144b595-13c7-4fae-a12f-f92b2e7cb6a6";
name = Fore;
shapes = (
{
closed = 1;
nodes = (
(348,512,o),
(391.5,458.5,q),
(435,405,o),
(435,255,q),
(435,105,o),
(400.5,44.5,q),
(366,-16,o),
(292,-16,q),
(241,-16,o),
(170,-4,q),
(147,0,l),
(120,-16,o),
(45,-16,q),
(45,752,l),
(45,768,o),
(80,768,q),
(115,768,o),
(138,763.5,q),
(161,759,o),
(162,752,q),
(179,512,l),
(227,512,l)
);
},
{
closed = 1;
nodes = (
(179,80,l),
(275,80,l),
(286,80,o),
(288.5,122.5,q),
(291,165,o),
(291,260,q),
(291,355,o),
(277.5,385.5,q),
(264,416,o),
(227,416,q),
(179,416,l)
);
}
);
width = 451;
}
);
unicode = 98;
},
{
category = Letter;
glyphname = c;
layers = (
{
layerId = "7144b595-13c7-4fae-a12f-f92b2e7cb6a6";
name = Fore;
shapes = (
{
closed = 1;
nodes = (
(378,474,o),
(378,459.5,q),
(378,445,o),
(371,421,q),
(358,377,o),
(343,384,q),
(342,384,l),
(307,398,l),
(278,411,o),
(236.5,411,q),
(195,411,o),
(183.5,377,q),
(172,343,o),
(172,246,q),
(172,149,o),
(186.5,115.5,q),
(201,82,o),
(242,82,q),
(301,82,o),
(334,89,q),
(367,96,o),
(368,96,q),
(375,98,o),
(379.5,88,q),
(384,78,o),
(384,41,q),
(384,4,o),
(368,0,q),
(306,-16,o),
(246,-16,q),
(125,-16,o),
(80.5,41.5,q),
(36,99,o),
(36,250,q),
(36,359,o),
(55.5,414.5,q),
(75,470,o),
(118,491,q),
(161,512,o),
(243,512,q),
(325,512,o),
(370,478,q),
(371,478,l)
);
}
);
width = 411;
}
);
unicode = 99;
},
{
category = Letter;
glyphname = d;
layers = (
{
layerId = "7144b595-13c7-4fae-a12f-f92b2e7cb6a6";
name = Fore;
shapes = (
{
closed = 1;
nodes = (
(86,-16,o),
(51.5,44.5,q),
(17,105,o),
(17,255,q),
(17,405,o),
(60.5,458.5,q),
(104,512,o),
(225,512,q),
(273,512,l),
(273,752,l),
(273,768,o),
(308,768,q),
(343,768,o),
(366,763.5,q),
(389,759,o),
(390,752,q),
(407,433,l),
(407,0,l),
(407,-6,o),
(406,-8,q),
(401,-16,o),
(369,-16,q),
(337,-16,o),
(314.5,-11.5,q),
(292,-7,o),
(292,0,q),
(273,31,l),
(244,12,o),
(232,4,q),
(199,-16,o),
(160,-16,q)
);
},
{
closed = 1;
nodes = (
(161,355,o),
(161,282.5,q),
(161,210,o),
(161.5,187,q),
(162,164,o),
(163,134,q),
(165,80,o),
(177,80,q),
(213,80,o),
(273,116,q),
(273,416,l),
(225,416,l),
(188,416,o),
(174.5,385.5,q)
);
}
);
width = 451;
}
);
unicode = 100;
},
{
category = Letter;
glyphname = e;
layers = (
{
layerId = "7144b595-13c7-4fae-a12f-f92b2e7cb6a6";
name = Fore;
shapes = (
{
closed = 1;
nodes = (
(120,-16,o),
(78.5,42,q),
(37,100,o),
(37,250,q),
(37,358,o),
(56,414.5,q),
(75,471,o),
(113.5,491.5,q),
(152,512,o),
(227,512,q),
(302,512,o),
(340.5,491,q),
(379,470,o),
(397,413,q),
(415,356,o),
(415,251,q),
(415,245,o),
(415,239,q),
(415,233,o),
(391.5,228,q),
(368,223,o),
(335,223,q),
(181,223,l),
(183,106,o),
(198,90,q),
(207,82,o),
(227,82,q),
(358,82,o),
(406,95,q),
(408,96,o),
(409,96,q),
(416,98,o),
(420.5,88,q),
(425,78,o),
(425,41,q),
(425,4,o),
(409,0,q),
(368,-16,o),
(227,-16,q)
);
},
{
closed = 1;
nodes = (
(181,303,l),
(282,303,l),
(278,419,o),
(259,419,q),
(225,419,o),
(203,409,q),
(181,399,o),
(181,381,q)
);
}
);
width = 454;
}
);
unicode = 101;
},
{
category = Letter;
glyphname = f;
layers = (
{
layerId = "7144b595-13c7-4fae-a12f-f92b2e7cb6a6";
name = Fore;
shapes = (
{
closed = 1;
nodes = (
(338,667,o),
(297,667,q),
(256,667,o),
(244,629,q),
(232,591,o),
(232,496,q),
(328,496,l),
(344,496,o),
(344,456,q),
(344,416,o),
(328,416,q),
(240,416,l),
(240,-224,l),
(240,-230,o),
(238,-232,q),
(234,-240,o),
(200.5,-240,q),
(167,-240,o),
(133,-235,q),
(99,-230,o),
(99,-224,q),
(99,416,l),
(19,416,l),
(7,416,o),
(5.5,421.5,q),
(4,427,o),
(4,434,q),
(4,477,o),
(19,480,q),
(99,496,l),
(99,657,o),
(141.5,712.5,q),
(184,768,o),
(306,768,q),
(385,768,o),
(430,734,q),
(431,734,l),
(440,729,o),
(440,716.5,q),
(440,704,o),
(436,688,q),
(432,672,o),
(426.5,659,q),
(421,646,o),
(416,641,q),
(411,636,o),
(407.5,637,q),
(404,638,o),
(404,639,q),
(367,654,l)
);
}
);
width = 369;
}
);
unicode = 102;
},
{
category = Letter;
glyphname = g;
layers = (
{
layerId = "7144b595-13c7-4fae-a12f-f92b2e7cb6a6";
name = Fore;
shapes = (
{
closed = 1;
nodes = (
(169,-49,l),
(107,-49,o),
(94.5,-39,q),
(82,-29,o),
(82,-15,q),
(82,-1,o),
(87,16,q),
(122,122,l),
(74,143,o),
(53,191,q),
(32,239,o),
(32,311,q),
(32,383,o),
(41,420,q),
(50,457,o),
(75.5,478,q),
(101,499,o),
(136,505.5,q),
(171,512,o),
(232,512,q),
(450,512,l),
(466,512,o),
(466,472,q),
(466,452,o),
(450,448,q),
(447,447,l),
(404,439,l),
(432,393,o),
(432,320,q),
(432,205,o),
(387.5,154.5,q),
(343,104,o),
(232,104,q),
(210,104,l),
(201,57,l),
(314,55,o),
(348,49,q),
(382,43,o),
(395,35,q),
(408,27,o),
(419.5,11,q),
(431,-5,o),
(433.5,-26,q),
(436,-47,o),
(436,-81,q),
(436,-164,o),
(390,-202,q),
(344,-240,o),
(226,-240,q),
(171,-240,o),
(88,-224,q),
(73,-221,o),
(73,-173,q),
(73,-125,o),
(87,-125,q),
(87,-125,o),
(88,-125,q),
(89,-125,l),
(179,-135,o),
(232.5,-135,q),
(286,-135,o),
(299,-127,q),
(312,-119,o),
(312,-87.5,q),
(312,-56,o),
(300.5,-52,q),
(289,-48,o),
(254,-48,q)
);
},
{
closed = 1;
nodes = (
(165,389,o),
(165,327.5,q),
(165,266,o),
(170.5,238.5,q),
(176,211,o),
(182,206.5,q),
(188,202,o),
(211.5,202,q),
(235,202,o),
(249.5,203.5,q),
(264,205,o),
(276,218,q),
(288,231,o),
(289.5,252,q),
(291,273,o),
(291,318,q),
(291,363,o),
(285.5,385.5,q),
(280,408,o),
(274,412,q),
(268,416,o),
(257,416,q),
(192,416,o),
(178.5,402.5,q)
);
}
);
width = 486;
}
);
unicode = 103;
},
{
category = Letter;
glyphname = h;
layers = (
{
layerId = "7144b595-13c7-4fae-a12f-f92b2e7cb6a6";
name = Fore;
shapes = (
{
closed = 1;
nodes = (
(376,512,o),
(410.5,466,q),
(445,420,o),
(445,304,q),
(445,0,l),
(445,-6,o),
(444,-8,q),
(439,-16,o),
(405.5,-16,q),
(372,-16,o),
(337,-11,q),
(302,-6,o),
(302,0,q),
(301,304,l),
(301,416,o),
(285,416,q),
(249,416,o),
(189,380,q),
(189,0,l),
(189,-6,o),
(188,-8,q),
(183,-16,o),
(149.5,-16,q),
(116,-16,o),
(80.5,-11,q),
(45,-6,o),
(45,0,q),
(45,752,l),
(45,768,o),
(80.5,768,q),
(116,768,o),
(142,763.5,q),
(168,759,o),
(169,752,q),
(187,463,l),
(263,512,o),
(302,512,q)
);
}
);
width = 464;
}
);
unicode = 104;
},
{
category = Letter;
glyphname = i;
layers = (
{
layerId = "7144b595-13c7-4fae-a12f-f92b2e7cb6a6";
name = Fore;
shapes = (
{
closed = 1;
nodes = (
(47,496,l),
(47,512,o),
(83,512,q),
(119,512,o),
(151,507,q),
(183,502,o),
(183,496,q),
(183,0,l),
(183,-6,o),
(182,-8,q),
(177,-16,o),
(144,-16,q),
(111,-16,o),
(79,-11,q),
(47,-6,o),
(47,0,q)
);
},
{
closed = 1;
nodes = (
(37,768,o),
(109,768,q),
(181,768,o),
(181,696,q),
(181,624,o),
(109,624,q),
(37,624,o),
(37,696,q)
);
}
);
width = 227;
}
);
unicode = 105;
},
{
category = Letter;
glyphname = j;
layers = (
{
layerId = "7144b595-13c7-4fae-a12f-f92b2e7cb6a6";
name = Fore;
shapes = (
{
closed = 1;
nodes = (
(41,512,o),
(77,512,q),
(113,512,o),
(144,507,q),
(175,502,o),
(175,496,q),
(175,-224,l),
(175,-230,o),
(174,-232,q),
(169,-240,o),
(136.5,-240,q),
(104,-240,o),
(81,-235.5,q),
(58,-231,o),
(57,-224,q),
(41,0,l),
(41,496,l)
);
},
{
closed = 1;
nodes = (
(34,768,o),
(106,768,q),
(178,768,o),
(178,696,q),
(178,624,o),
(106,624,q),
(34,624,o),
(34,696,q)
);
}
);
width = 216;
}
);
unicode = 106;
},
{
category = Letter;
glyphname = k;
layers = (
{
layerId = "7144b595-13c7-4fae-a12f-f92b2e7cb6a6";
name = Fore;
shapes = (
{
closed = 1;
nodes = (
(181,-6,o),
(180,-8,q),
(175,-16,o),
(142,-16,q),
(109,-16,o),
(77,-11,q),
(45,-6,o),
(45,0,q),
(45,752,l),
(45,768,o),
(80,768,q),
(115,768,o),
(138,763.5,q),
(161,759,o),
(162,752,q),
(181,431,l),
(181,0,l)
);
},
{
closed = 1;
nodes = (
(480,-16,o),
(443,-16,q),
(406,-16,o),
(371,-11,q),
(336,-6,o),
(333,0,q),
(332,1,l),
(202,272,l),
(202,304,l),
(308,495,l),
(309,495,o),
(309,496,q),
(318,512,o),
(349,512,q),
(420,512,o),
(440,500,q),
(444,498,o),
(443,496,q),
(330,304,l),
(479,0,l),
(480,-3,o),
(480,-5,q)
);
}
);
width = 486;
}
);
unicode = 107;
},
{
category = Letter;
glyphname = l;
layers = (
{
layerId = "7144b595-13c7-4fae-a12f-f92b2e7cb6a6";
name = Fore;
shapes = (
{
closed = 1;
nodes = (
(180,-6,o),
(178,-8,q),
(174,-16,o),
(141,-16,q),
(108,-16,o),
(76.5,-11,q),
(45,-6,o),
(45,0,q),
(45,752,l),
(45,768,o),
(80,768,q),
(115,768,o),
(138,763.5,q),
(161,759,o),
(162,752,q),
(180,431,l),
(180,0,l)
);
}
);
width = 222;
}
);
unicode = 108;
},
{
category = Letter;
glyphname = m;
layers = (
{
layerId = "7144b595-13c7-4fae-a12f-f92b2e7cb6a6";
name = Fore;
shapes = (
{
closed = 1;
nodes = (
(557,304,l),
(557,416,o),
(541,416,q),
(506,416,o),
(440,377,q),
(445,340,o),
(445,304,q),
(445,0,l),
(445,-6,o),
(444,-8,q),
(439,-16,o),
(405.5,-16,q),
(372,-16,o),
(336.5,-11,q),
(301,-6,o),
(301,0,q),
(301,341,l),
(299,416,o),
(285,416,q),
(249,416,o),
(189,380,q),
(189,0,l),
(189,-6,o),
(188,-8,q),
(183,-16,o),
(149.5,-16,q),
(116,-16,o),
(80.5,-11,q),
(45,-6,o),
(45,0,q),
(45,496,l),
(45,512,o),
(85,512,q),
(148,512,o),
(157,496,q),
(157,494,o),
(158,494,q),
(177,456,l),
(261,512,o),
(302,512,q),
(390,512,o),
(421,448,q),
(513,512,o),
(558,512,q),
(632,512,o),
(666.5,466,q),
(701,420,o),
(701,304,q),
(701,0,l),
(701,-6,o),
(700,-8,q),
(695,-16,o),
(661.5,-16,q),
(628,-16,o),
(592.5,-11,q),
(557,-6,o),
(557,0,q)
);
}
);
width = 745;
}
);
unicode = 109;
},
{
category = Letter;
glyphname = n;
layers = (
{
layerId = "7144b595-13c7-4fae-a12f-f92b2e7cb6a6";
name = Fore;
shapes = (
{
closed = 1;
nodes = (
(376,512,o),
(410.5,466,q),
(445,420,o),
(445,304,q),
(445,0,l),
(445,-6,o),
(444,-8,q),
(439,-16,o),
(405.5,-16,q),
(372,-16,o),
(337,-11,q),
(302,-6,o),
(302,0,q),
(301,304,l),
(301,416,o),
(285,416,q),
(249,416,o),
(189,380,q),
(189,0,l),
(189,-6,o),
(188,-8,q),
(183,-16,o),
(149.5,-16,q),
(116,-16,o),
(80.5,-11,q),
(45,-6,o),
(45,0,q),
(45,496,l),
(45,512,o),
(85,512,q),
(148,512,o),
(157,496,q),
(157,494,o),
(158,494,q),
(177,456,l),
(261,512,o),
(302,512,q)
);
}
);
width = 488;
}
);
unicode = 110;
},
{
category = Letter;
glyphname = o;
layers = (
{
layerId = "7144b595-13c7-4fae-a12f-f92b2e7cb6a6";
name = Fore;
shapes = (
{
closed = 1;
nodes = (
(37,359,o),
(56,415,q),
(75,471,o),
(116,491.5,q),
(157,512,o),
(237,512,q),
(317,512,o),
(358,491.5,q),
(399,471,o),
(418,415,q),
(437,359,o),
(437,250,q),
(437,100,o),
(394,42,q),
(351,-16,o),
(237,-16,q),
(123,-16,o),
(80,42,q),
(37,100,o),
(37,250,q)
);
},
{
closed = 1;
nodes = (
(173,82,o),
(205,82,q),
(249,82,o),
(270,96,q),
(281,104,o),
(285,125,q),
(293,167,o),
(293,250,q),
(293,416,o),
(261,416,q),
(201,416,o),
(187,388.5,q),
(173,361,o),
(173,250,q)
);
}
);
width = 474;
}
);
unicode = 111;
},
{
category = Letter;
glyphname = p;
layers = (
{
layerId = "7144b595-13c7-4fae-a12f-f92b2e7cb6a6";
name = Fore;
shapes = (
{
closed = 1;
nodes = (
(366,512,o),
(400.5,451.5,q),
(435,391,o),
(435,241,q),
(435,91,o),
(391.5,37.5,q),
(348,-16,o),
(227,-16,q),
(179,-16,l),
(179,-224,l),
(179,-230,o),
(178,-232,q),
(173,-240,o),
(140,-240,q),
(107,-240,o),
(76,-235,q),
(45,-230,o),
(45,-224,q),
(45,496,l),
(45,512,o),
(92,512,q),
(139,512,o),
(148,494,q),
(167,456,l),
(251,512,o),
(292,512,q)
);
},
{
closed = 1;
nodes = (
(291,141,o),
(291,213.5,q),
(291,286,o),
(290.5,309,q),
(290,332,o),
(289,362,q),
(287,416,o),
(275,416,q),
(239,416,o),
(179,380,q),
(179,80,l),
(227,80,l),
(264,80,o),
(277.5,110.5,q)
);
}
);
width = 453;
}
);
unicode = 112;
},
{
category = Letter;
glyphname = q;
layers = (
{
layerId = "7144b595-13c7-4fae-a12f-f92b2e7cb6a6";
name = Fore;
shapes = (
{
closed = 1;
nodes = (
(240,-15,o),
(163.5,-15,q),
(87,-15,o),
(52,38,q),
(17,91,o),
(17,213,q),
(17,335,o),
(36.5,399,q),
(56,463,o),
(99,487.5,q),
(142,512,o),
(225,512,q),
(287,512,l),
(337,512,o),
(390,498,q),
(407,493,l),
(407,-224,l),
(407,-230,o),
(406,-232,q),
(401,-240,o),
(368.5,-240,q),
(336,-240,o),
(312.5,-235.5,q),
(289,-231,o),
(289,-224,q),
(287,16,l)
);
},
{
closed = 1;
nodes = (
(161,301,o),
(161,191,q),
(161,81,o),
(177,81,q),
(227,81,o),
(287,117,q),
(287,417,l),
(225,417,l),
(199,417,o),
(186.5,403.5,q),
(174,390,o),
(167.5,345.5,q)
);
}
);
width = 453;
}
);
unicode = 113;
},
{
category = Letter;
glyphname = r;
layers = (
{
layerId = "7144b595-13c7-4fae-a12f-f92b2e7cb6a6";
name = Fore;
shapes = (
{
closed = 1;
nodes = (
(244,512,o),
(270.5,512,q),
(297,512,o),
(318.5,502,q),
(340,492,o),
(350,482,q),
(359,473,l),
(344,409,o),
(336,393,q),
(328,377,o),
(314.5,377,q),
(301,377,o),
(280,388,q),
(259,399,o),
(242,399,q),
(225,399,o),
(174,368,q),
(174,0,l),
(174,-6,o),
(172,-8,q),
(168,-16,o),
(135,-16,q),
(102,-16,o),
(73.5,-11,q),
(45,-6,o),
(45,0,q),
(45,496,l),
(45,512,o),
(90,512,q),
(135,512,o),
(142,496,q),
(142,494,l),
(162,456,l)
);
}
);
width = 368;
}
);
unicode = 114;
},
{
category = Letter;
glyphname = s;
layers = (
{
layerId = "7144b595-13c7-4fae-a12f-f92b2e7cb6a6";
name = Fore;
shapes = (
{
closed = 1;
nodes = (
(317,380,l),
(279,399,l),
(236,416,o),
(205,416,q),
(160,414,o),
(160,373,q),
(160,357,o),
(177.5,347,q),
(195,337,o),
(206,331.5,q),
(217,326,o),
(238,316,q),
(313,284,o),
(349.5,245,q),
(386,206,o),
(386,168,q),
(386,85,o),
(342,34.5,q),
(298,-16,o),
(222.5,-16,q),
(147,-16,o),
(104,4,q),
(61,24,o),
(32,61,q),
(28,63,o),
(28,67,q),
(28,71,o),
(29.5,77,q),
(31,83,o),
(53,109.5,q),
(75,136,o),
(88,136,q),
(92,136,o),
(96,132,q),
(149,90,o),
(199,90,q),
(227,90,o),
(241,106,q),
(255,122,o),
(255,141,q),
(255,160,o),
(239,172,q),
(223,184,o),
(199.5,195.5,q),
(176,207,o),
(174,208,q),
(172,209,o),
(168.5,211,q),
(165,213,o),
(162,214,q),
(111,239,o),
(75.5,276.5,q),
(40,314,o),
(40,360,q),
(40,440,o),
(81.5,476,q),
(123,512,o),
(213,512,q),
(247,512,o),
(278,504,q),
(320,493,o),
(338,478,q),
(339,478,l),
(347,473,o),
(348.5,466,q),
(350,459,o),
(347,436,q),
(337,378,o),
(323,378,q)
);
}
);
width = 415;
}
);
unicode = 115;
},
{
category = Letter;
glyphname = t;
layers = (
{
layerId = "7144b595-13c7-4fae-a12f-f92b2e7cb6a6";
name = Fore;
shapes = (
{
closed = 1;
nodes = (
(13,416,l),
(1,416,o),
(-0.5,421.5,q),
(-2,427,o),
(-2,434,q),
(-2,477,o),
(13,480,q),
(93,496,l),
(149,609,l),
(161,624,o),
(195,624,q),
(204,624,o),
(212,588,q),
(220,552,o),
(229,496,q),
(325,496,l),
(341,496,o),
(341,456,q),
(341,416,o),
(325,416,q),
(228,416,l),
(228,98,l),
(244,-15,l),
(244,-16,l),
(245,-22,o),
(244,-24,q),
(239,-32,o),
(194,-32,q),
(149,-32,o),
(140,-14,q),
(93,81,l),
(93,416,l)
);
}
);
width = 337;
}
);
unicode = 116;
},
{
category = Letter;
glyphname = u;
layers = (
{
layerId = "7144b595-13c7-4fae-a12f-f92b2e7cb6a6";
name = Fore;
shapes = (
{
closed = 1;
nodes = (
(111,-16,o),
(76.5,30,q),
(42,76,o),
(42,192,q),
(42,496,l),
(42,512,o),
(78.5,512,q),
(115,512,o),
(150,507,q),
(185,502,o),
(185,496,q),
(186,192,l),
(186,80,o),
(202,80,q),
(238,80,o),
(298,116,q),
(298,496,l),
(298,512,o),
(334.5,512,q),
(371,512,o),
(406.5,507,q),
(442,502,o),
(442,496,q),
(442,0,l),
(442,-6,o),
(440,-8,q),
(436,-16,o),
(388.5,-16,q),
(341,-16,o),
(330,0,q),
(309,31,l),
(239,-16,o),
(185,-16,q)
);
}
);
width = 487;
}
);
unicode = 117;
},
{
category = Letter;
glyphname = v;
layers = (
{
layerId = "7144b595-13c7-4fae-a12f-f92b2e7cb6a6";
name = Fore;
shapes = (
{
closed = 1;
nodes = (
(21,512,o),
(57.5,512,q),
(94,512,o),
(125.5,507,q),
(157,502,o),
(158,496,q),
(247,122,l),
(325,496,l),
(329,512,o),
(357,512,q),
(385,512,o),
(404,510,q),
(450,505,o),
(448,496,q),
(447,494,l),
(322,0,l),
(318,-16,o),
(283.5,-16,q),
(249,-16,o),
(210.5,-11,q),
(172,-6,o),
(170,0,q),
(22,494,l),
(22,496,l),
(21,498,o),
(21,499,q)
);
}
);
width = 470;
}
);
unicode = 118;
},
{
category = Letter;
glyphname = w;
layers = (
{
layerId = "7144b595-13c7-4fae-a12f-f92b2e7cb6a6";
name = Fore;
shapes = (
{
closed = 1;
nodes = (
(28,512,o),
(64.5,512,q),
(101,512,o),
(132.5,507,q),
(164,502,o),
(165,496,q),
(254,145,l),
(313,416,l),
(313,426,o),
(324,429,q),
(336,432,o),
(354,432,q),
(372,432,o),
(403,427.5,q),
(434,423,o),
(436,416,q),
(505,143,l),
(583,496,l),
(587,512,o),
(615,512,q),
(643,512,o),
(662,510,q),
(708,505,o),
(706,496,q),
(705,494,l),
(580,0,l),
(576,-16,o),
(541.5,-16,q),
(507,-16,o),
(468.5,-11,q),
(430,-6,o),
(428,0,q),
(374,180,l),
(329,0,l),
(325,-16,o),
(290.5,-16,q),
(256,-16,o),
(217.5,-11,q),
(179,-6,o),
(177,0,q),
(29,494,l),
(29,496,l),
(28,498,o),
(28,499,q)
);
}
);
width = 734;
}
);
unicode = 119;
},
{
category = Letter;
glyphname = x;
layers = (
{
layerId = "7144b595-13c7-4fae-a12f-f92b2e7cb6a6";
name = Fore;
shapes = (
{
closed = 1;
nodes = (
(486,-16,o),
(449,-16,q),
(412,-16,o),
(376.5,-11,q),
(341,-6,o),
(337,0,q),
(336,0,o),
(336,1,q),
(256,144,l),
(176,1,l),
(176,0,l),
(174,-4,o),
(173,-5,q),
(172,-6,o),
(169.5,-9,q),
(167,-12,o),
(164,-13,q),
(153,-16,o),
(138,-16,q),
(61,-16,o),
(31,-5,q),
(25,-2,o),
(26,0,q),
(179,261,l),
(46,496,l),
(37,512,o),
(86,512,q),
(117,512,o),
(147,507,q),
(177,502,o),
(181,496,q),
(181,495,l),
(252,362,l),
(312,494,l),
(321,512,o),
(353,512,q),
(385,512,o),
(415,507,q),
(445,502,o),
(443,496,q),
(334,261,l),
(485,0,l),
(486,-2,o),
(486,-4,q)
);
}
);
width = 517;
}
);
unicode = 120;
},
{
category = Letter;
glyphname = y;
layers = (
{
layerId = "7144b595-13c7-4fae-a12f-f92b2e7cb6a6";
name = Fore;
shapes = (
{
closed = 1;
nodes = (
(21,512,o),
(57.5,512,q),
(94,512,o),
(125.5,507,q),
(157,502,o),
(158,496,q),
(247,154,l),
(325,496,l),
(329,512,o),
(357,512,q),
(412,512,o),
(430,506,q),
(448,500,o),
(448,497,q),
(248,-224,l),
(244,-240,o),
(216,-240,q),
(188,-240,o),
(170,-238,q),
(131,-233,o),
(133,-224,q),
(133,-221,o),
(134,-219,q),
(185,0,l),
(22,494,l),
(22,496,l),
(21,498,o),
(21,499,q)
);
}
);
width = 460;
}
);
unicode = 121;
},
{
category = Letter;
glyphname = z;
layers = (
{
layerId = "7144b595-13c7-4fae-a12f-f92b2e7cb6a6";
name = Fore;
shapes = (
{
closed = 1;
nodes = (
(35,390,o),
(35,437,q),
(35,440,o),
(35,443,q),
(35,496,o),
(50,496,q),
(346,496,l),
(362,480,l),
(362,390,l),
(188,112,l),
(378,112,l),
(394,112,o),
(394,72,q),
(394,2,o),
(378,0,q),
(58,0,l),
(42,16,l),
(42,96,l),
(236,390,l),
(50,390,l)
);
}
);
width = 420;
}
);
unicode = 122;
},
{
category = Letter;
glyphname = braceleft;
layers = (
{
layerId = "7144b595-13c7-4fae-a12f-f92b2e7cb6a6";
name = Fore;
shapes = (
{
closed = 1;
nodes = (
(112,-146,l),
(96,-130,l),
(99,269,l),
(19,384,l),
(101,501,l),
(104,905,l),
(380,905,l),
(396,889,l),
(396,781,l),
(215,781,l),
(233,509,l),
(136,384,l),
(234,259,l),
(236,-22,l),
(372,-22,l),
(388,-38,l),
(388,-146,l)
);
}
);
width = 426;
}
);
unicode = 123;
},
{
category = Letter;
glyphname = bar;
layers = (
{
layerId = "7144b595-13c7-4fae-a12f-f92b2e7cb6a6";
name = Fore;
shapes = (
{
closed = 1;
nodes = (
(58,-146,l),
(42,-130,l),
(50,905,l),
(150,905,l),
(166,889,l),
(182,432,l),
(182,-146,l)
);
}
);
width = 224;
}
);
unicode = 124;
},
{
category = Letter;
glyphname = braceright;
layers = (
{
layerId = "7144b595-13c7-4fae-a12f-f92b2e7cb6a6";
name = Fore;
shapes = (
{
closed = 1;
nodes = (
(290,905,l),
(306,889,l),
(325,501,l),
(407,384,l),
(327,269,l),
(330,-146,l),
(55,-146,l),
(38,-129,l),
(38,-22,l),
(190,-22,l),
(192,259,l),
(290,384,l),
(193,509,l),
(195,781,l),
(46,781,l),
(30,797,l),
(30,905,l)
);
}
);
width = 425;
}
);
unicode = 125;
},
{
category = Letter;
glyphname = asciitilde;
layers = (
{
layerId = "7144b595-13c7-4fae-a12f-f92b2e7cb6a6";
name = Fore;
shapes = (
{
closed = 1;
nodes = (
(448,318,o),
(408,318,q),
(368,318,o),
(265.5,308,q),
(163,298,o),
(113,298,q),
(63,298,o),
(49.5,307.5,q),
(36,317,o),
(36,350,q),
(61,401,l),
(136,401,o),
(232.5,410,q),
(329,419,o),
(382,419,q),
(435,419,o),
(453,408.5,q),
(471,398,o),
(471,363,q),
(455,318,l)
);
}
);
width = 504;
}
);
unicode = 126;
},
{
category = Letter;
glyphname = exclamdown;
layers = (
{
layerId = "7144b595-13c7-4fae-a12f-f92b2e7cb6a6";
name = Fore;
shapes = (
{
closed = 1;
nodes = (
(83,287,l),
(184,276,l),
(198,258,l),
(182,-47,l),
(150,-267,l),
(48,-256,l),
(20,-221,l)
);
},
{
closed = 1;
nodes = (
(81,512,o),
(153,512,q),
(225,512,o),
(225,440,q),
(225,368,o),
(153,368,q),
(81,368,o),
(81,440,q)
);
}
);
width = 247;
}
);
unicode = 161;
},
{
category = Letter;
glyphname = cent;
layers = (
{
layerId = "7144b595-13c7-4fae-a12f-f92b2e7cb6a6";
name = Fore;
shapes = (
{
closed = 1;
nodes = (
(333,632,o),
(370,609,q),
(371,609,l),
(378,605,o),
(378,590.5,q),
(378,576,o),
(371,552,q),
(358,508,o),
(343,515,q),
(342,515,l),
(307,529,l),
(278,542,o),
(236.5,542,q),
(195,542,o),
(183.5,508,q),
(172,474,o),
(172,377,q),
(172,280,o),
(186.5,246.5,q),
(201,213,o),
(242,213,q),
(301,213,o),
(334,220,q),
(367,227,o),
(368,227,q),
(375,229,o),
(379.5,219,q),
(384,209,o),
(384,172,q),
(384,135,o),
(368,131,q),
(328,119,o),
(285,116,q),
(286,-1,l),
(163,-1,l),
(146,30,l),
(146,128,l),
(85,148,o),
(60.5,206.5,q),
(36,265,o),
(36,386,q),
(36,507,o),
(61,562.5,q),
(86,618,o),
(152,634,q),
(154,768,l),
(262,768,l),
(281,752,l),
(281,640,l)
);
}
);
width = 379;
}
);
unicode = 162;
},
{
category = Letter;
glyphname = sterling;
layers = (
{
layerId = "7144b595-13c7-4fae-a12f-f92b2e7cb6a6";
name = Fore;
shapes = (
{
closed = 1;
nodes = (
(40,304,l),
(24,320,l),
(24,428,l),
(85,428,l),
(86,581,o),
(108.5,667,q),
(131,753,o),
(183.5,793,q),
(236,833,o),
(331,836,q),
(347,820,l),
(347,717,l),
(269,717,o),
(252,605,q),
(242,540,o),
(242,428,q),
(300,428,l),
(316,412,l),
(316,304,l),
(229,304,l),
(230,121,l),
(457,121,l),
(473,105,l),
(473,0,l),
(106,0,l),
(90,16,l),
(90,304,l)
);
}
);
width = 495;
}
);
unicode = 163;
},
{
category = Letter;
glyphname = currency;
layers = (
{
layerId = "7144b595-13c7-4fae-a12f-f92b2e7cb6a6";
name = Fore;
shapes = (
{
closed = 1;
nodes = (
(242,236,o),
(214,236,q),
(186,236,o),
(161,242,q),
(131,212,l),
(108,212,l),
(32,289,l),
(70,327,l),
(63,351,o),
(63,382,q),
(63,413,o),
(69,437,q),
(37,469,l),
(37,492,l),
(114,568,l),
(155,526,l),
(184,534,o),
(212,534,q),
(240,534,o),
(265,528,q),
(295,558,l),
(318,558,l),
(394,481,l),
(356,443,l),
(363,419,o),
(363,388,q),
(363,357,o),
(357,333,q),
(389,301,l),
(389,278,l),
(312,202,l),
(271,244,l)
);
},
{
closed = 1;
nodes = (
(267,439,o),
(212.5,439,q),
(158,439,o),
(158,385,q),
(159,331,o),
(213.5,331,q),
(268,331,o),
(268,385,q)
);
}
);
width = 425;
}
);
unicode = 164;
},
{
category = Letter;
glyphname = yen;
layers = (
{
layerId = "7144b595-13c7-4fae-a12f-f92b2e7cb6a6";
name = Fore;
shapes = (
{
closed = 1;
nodes = (
(23,768,o),
(89,768,q),
(155,768,o),
(170,731,q),
(290,522,l),
(322,522,l),
(426,734,l),
(434,754,o),
(448,761,q),
(462,768,o),
(492,768,q),
(560,768,o),
(560,743,q),
(560,737,o),
(557,731,q),
(450,522,l),
(514,522,l),
(530,506,l),
(530,398,l),
(118,398,l),
(102,414,l),
(102,522,l),
(146,522,l),
(27,732,l),
(23,739,o),
(23,745,q)
);
},
{
closed = 1;
nodes = (
(514,320,l),
(530,304,l),
(530,196,l),
(362,196,l),
(362,21,l),
(362,4,o),
(360,-2,q),
(357,-16,o),
(322,-16,q),
(245,-16,o),
(245,22,q),
(245,196,l),
(118,196,l),
(102,212,l),
(102,320,l)
);
}
);
width = 584;
}
);
unicode = 165;
},
{
category = Letter;
glyphname = brokenbar;
layers = (
{
layerId = "7144b595-13c7-4fae-a12f-f92b2e7cb6a6";
name = Fore;
shapes = (
{
closed = 1;
nodes = (
(169,295,l),
(185,279,l),
(185,-146,l),
(61,-146,l),
(45,-130,l),
(45,295,l)
);
},
{
closed = 1;
nodes = (
(61,482,l),
(45,498,l),
(45,905,l),
(169,905,l),
(185,889,l),
(185,482,l)
);
}
);
width = 219;
}
);
unicode = 166;
},
{
category = Letter;
glyphname = section;
layers = (
{
layerId = "7144b595-13c7-4fae-a12f-f92b2e7cb6a6";
name = Fore;
shapes = (
{
closed = 1;
nodes = (
(288,360,o),
(288,379.5,q),
(288,399,o),
(260.5,407.5,q),
(233,416,o),
(204,416,q),
(159,414,o),
(159,373,q),
(159,353,o),
(180,338,q),
(201,323,o),
(226.5,323,q),
(252,323,o),
(267.5,332,q),
(283,341,o),
(285.5,350.5,q)
);
},
{
closed = 1;
nodes = (
(345,616,l),
(307,635,l),
(264,652,o),
(233,652,q),
(188,650,o),
(188,609,q),
(188,593,o),
(205.5,583,q),
(223,573,o),
(234,567.5,q),
(245,562,o),
(266,552,q),
(341,520,o),
(377.5,481,q),
(414,442,o),
(414,404,q),
(414,299,o),
(346,248,q),
(386,206,o),
(386,168,q),
(386,85,o),
(342,34.5,q),
(298,-16,o),
(222.5,-16,q),
(147,-16,o),
(104,4,q),
(61,24,o),
(32,61,q),
(28,63,o),
(28,67,q),
(28,71,o),
(29.5,77,q),
(31,83,o),
(53,109.5,q),
(75,136,o),
(88,136,q),
(92,136,o),
(96,132,q),
(149,90,o),
(199,90,q),
(227,90,o),
(241,106,q),
(255,122,o),
(255,141,q),
(255,160,o),
(239,172,q),
(223,184,o),
(199.5,195.5,q),
(176,207,o),
(174,208,q),
(172,209,o),
(168.5,211,q),
(165,213,o),
(162,214,q),
(111,239,o),
(75.5,276.5,q),
(40,314,o),
(40,360,q),
(40,468,o),
(118,498,q),
(68,543,o),
(68,596,q),
(68,676,o),
(109.5,712,q),
(151,748,o),
(241,748,q),
(275,748,o),
(306,740,q),
(348,729,o),
(366,714,q),
(367,714,l),
(375,709,o),
(376.5,702,q),
(378,695,o),
(375,672,q),
(365,614,o),
(351,614,q)
);
}
);
width = 446;
}
);
unicode = 167;
},
{
category = Letter;
glyphname = dieresis;
layers = (
{
layerId = "7144b595-13c7-4fae-a12f-f92b2e7cb6a6";
name = Fore;
shapes = (
{
closed = 1;
nodes = (
(41,768,o),
(113,768,q),
(185,768,o),
(185,696,q),
(185,624,o),
(113,624,q),
(41,624,o),
(41,696,q)
);
},
{
closed = 1;
nodes = (
(275,768,o),
(347,768,q),
(419,768,o),
(419,696,q),
(419,624,o),
(347,624,q),
(275,624,o),
(275,696,q)
);
}
);
width = 460;
}
);
unicode = 168;
},
{
category = Letter;
glyphname = copyright;
layers = (
{
layerId = "7144b595-13c7-4fae-a12f-f92b2e7cb6a6";
name = Fore;
shapes = (
{
closed = 1;
nodes = (
(306,145,o),
(275,186.5,q),
(244,228,o),
(244,340.5,q),
(244,453,o),
(274,490.5,q),
(304,528,o),
(378,528,q),
(452,528,o),
(485,506,q),
(472,460,l),
(426,460,l),
(415,465,o),
(385,465,q),
(367,465,o),
(362,439,q),
(357,413,o),
(357,334,q),
(357,255,o),
(362.5,231.5,q),
(368,208,o),
(387,208,q),
(420,208,o),
(478,215,q),
(478,153,l),
(420,145,o),
(389,145,q)
);
},
{
closed = 1;
nodes = (
(31,492,o),
(128.5,596.5,q),
(226,701,o),
(373,701,q),
(520,701,o),
(618,596.5,q),
(716,492,o),
(716,342,q),
(716,192,o),
(618,88,q),
(520,-16,o),
(373,-16,q),
(226,-16,o),
(128.5,88,q),
(31,192,o),
(31,342,q)
);
},
{
closed = 1;
nodes = (
(99,220,o),
(177,136,q),
(255,52,o),
(373.5,52,q),
(492,52,o),
(570,136,q),
(648,220,o),
(648,342,q),
(648,464,o),
(569.5,548.5,q),
(491,633,o),
(373,633,q),
(255,633,o),
(177,548.5,q),
(99,464,o),
(99,342,q)
);
}
);
width = 747;
}
);
unicode = 169;
},
{
category = Letter;
glyphname = ordfeminine;
layers = (
{
layerId = "7144b595-13c7-4fae-a12f-f92b2e7cb6a6";
name = Fore;
shapes = (
{
closed = 1;
nodes = (
(183,676,o),
(152,676,q),
(121,676,o),
(101,666,q),
(71,666,l),
(53,726,l),
(87,752,o),
(147,752,q),
(239,752,o),
(271.5,713,q),
(304,674,o),
(304,554,q),
(303,366,l),
(226,366,l),
(214,389,l),
(174,354,o),
(147,354,q),
(83,354,o),
(59,378.5,q),
(35,403,o),
(35,486,q),
(35,547,o),
(94,569,q),
(201,597,l),
(200,646,o),
(191.5,661,q)
);
},
{
closed = 1;
nodes = (
(118,430,o),
(150,428,q),
(181,428,o),
(191.5,448,q),
(202,468,o),
(202,542,q),
(163,536,o),
(140.5,520,q),
(118,504,o),
(118,485,q)
);
}
);
width = 345;
}
);
unicode = 170;
},
{
category = Letter;
glyphname = guillemotleft;
layers = (
{
layerId = "7144b595-13c7-4fae-a12f-f92b2e7cb6a6";
name = Fore;
shapes = (
{
closed = 1;
nodes = (
(521,156,l),
(467,169,l),
(281,335,l),
(261,384,l),
(281,433,l),
(451,599,l),
(505,612,l),
(537,573,l),
(376,384,l),
(553,195,l)
);
},
{
closed = 1;
nodes = (
(281,156,l),
(227,169,l),
(41,335,l),
(21,384,l),
(41,433,l),
(211,599,l),
(265,612,l),
(297,573,l),
(136,384,l),
(313,195,l)
);
}
);
width = 591;
}
);
unicode = 171;
},
{
category = Letter;
glyphname = logicalnot;
layers = (
{
layerId = "7144b595-13c7-4fae-a12f-f92b2e7cb6a6";
name = Fore;
shapes = (
{
closed = 1;
nodes = (
(25,308,l),
(9,324,l),
(9,432,l),
(459,432,l),
(475,416,l),
(474,137,l),
(366,137,l),
(350,153,l),
(350,308,l)
);
}
);
width = 521;
}
);
unicode = 172;
},
{
category = Letter;
glyphname = registered;
layers = (
{
layerId = "7144b595-13c7-4fae-a12f-f92b2e7cb6a6";
name = Fore;
shapes = (
{
closed = 1;
nodes = (
(357,145,l),
(276,145,l),
(260,161,l),
(260,519,l),
(327,532,o),
(367,532,q),
(446,532,o),
(476.5,505,q),
(507,478,o),
(507,412,q),
(507,346,o),
(459,308,q),
(531,145,l),
(436,145,l),
(420,161,l),
(364,289,l),
(357,289,l)
);
},
{
closed = 1;
nodes = (
(402,469,o),
(393,469,q),
(359,469,o),
(357,458,q),
(358,366,l),
(366,363,o),
(374,363,q),
(402,365,o),
(402,417,q)
);
},
{
closed = 1;
nodes = (
(31,492,o),
(128.5,596.5,q),
(226,701,o),
(373,701,q),
(520,701,o),
(618,596.5,q),
(716,492,o),
(716,342,q),
(716,192,o),
(618,88,q),
(520,-16,o),
(373,-16,q),
(226,-16,o),
(128.5,88,q),
(31,192,o),
(31,342,q)
);
},
{
closed = 1;
nodes = (
(99,220,o),
(177,136,q),
(255,52,o),
(373.5,52,q),
(492,52,o),
(570,136,q),
(648,220,o),
(648,342,q),
(648,464,o),
(569.5,548.5,q),
(491,633,o),
(373,633,q),
(255,633,o),
(177,548.5,q),
(99,464,o),
(99,342,q)
);
}
);
width = 747;
}
);
unicode = 174;
},
{
category = Letter;
glyphname = degree;
layers = (
{
layerId = "7144b595-13c7-4fae-a12f-f92b2e7cb6a6";
name = Fore;
shapes = (
{
closed = 1;
nodes = (
(34,753,o),
(154,753,q),
(274,753,o),
(274,633,q),
(274,513,o),
(154,513,q),
(34,513,o),
(34,633,q)
);
},
{
closed = 1;
nodes = (
(110,589,o),
(154,589,q),
(198,589,o),
(198,633,q),
(198,677,o),
(154,677,q),
(110,677,o),
(110,633,q)
);
}
);
width = 308;
}
);
unicode = 176;
},
{
category = Letter;
glyphname = plusminus;
layers = (
{
layerId = "7144b595-13c7-4fae-a12f-f92b2e7cb6a6";
name = Fore;
shapes = (
{
closed = 1;
nodes = (
(410,592,l),
(426,576,l),
(426,468,l),
(289,468,l),
(289,331,l),
(181,331,l),
(165,347,l),
(165,468,l),
(45,468,l),
(29,484,l),
(29,592,l),
(165,592,l),
(165,728,l),
(272,728,l),
(289,711,l),
(289,592,l)
);
},
{
closed = 1;
nodes = (
(45,160,l),
(29,176,l),
(29,284,l),
(410,284,l),
(426,268,l),
(426,160,l)
);
}
);
width = 455;
}
);
unicode = 177;
},
{
category = Letter;
glyphname = twosuperior;
layers = (
{
layerId = "7144b595-13c7-4fae-a12f-f92b2e7cb6a6";
name = Fore;
shapes = (
{
closed = 1;
nodes = (
(151,659,o),
(121,650,q),
(71,650,l),
(51,723,l),
(93,752,o),
(191,752,q),
(289,752,o),
(328.5,714,q),
(368,676,o),
(368,590,q),
(368,557,o),
(335,499.5,q),
(302,442,o),
(185,284,q),
(365,284,l),
(380,269,l),
(380,185,l),
(55,185,l),
(39,201,l),
(39,275,l),
(157,434,l),
(192,480,o),
(205,498,q),
(240,548,o),
(240,588,q),
(240,628,o),
(233,643.5,q),
(226,659,o),
(201,659,q)
);
}
);
width = 416;
}
);
unicode = 178;
},
{
category = Letter;
glyphname = threesuperior;
layers = (
{
layerId = "7144b595-13c7-4fae-a12f-f92b2e7cb6a6";
name = Fore;
shapes = (
{
closed = 1;
nodes = (
(139,659,o),
(109,650,q),
(59,650,l),
(39,723,l),
(81,752,o),
(180,752,q),
(279,752,o),
(321.5,713.5,q),
(364,675,o),
(364,598.5,q),
(364,522,o),
(328,481,q),
(379,440,o),
(379,355,q),
(379,270,o),
(330.5,225,q),
(282,180,o),
(165,180,q),
(127,180,o),
(50,189,q),
(50,281,l),
(135,276,o),
(173,276,q),
(211,276,o),
(223.5,289.5,q),
(236,303,o),
(236,351.5,q),
(236,400,o),
(226,410.5,q),
(216,421,o),
(167,421,q),
(110,421,l),
(110,517,l),
(178,517,o),
(199.5,528.5,q),
(221,540,o),
(221,591,q),
(221,659,o),
(189,659,q)
);
}
);
width = 413;
}
);
unicode = 179;
},
{
category = Letter;
glyphname = acute;
layers = (
{
layerId = "7144b595-13c7-4fae-a12f-f92b2e7cb6a6";
name = Fore;
shapes = (
{
closed = 1;
nodes = (
(28,557,l),
(27,612,l),
(84,736,l),
(126,768,l),
(234,708,l),
(74,536,l)
);
}
);
width = 240;
}
);
unicode = 180;
},
{
category = Letter;
glyphname = mu;
layers = (
{
layerId = "7144b595-13c7-4fae-a12f-f92b2e7cb6a6";
name = Fore;
shapes = (
{
closed = 1;
nodes = (
(115,-239,o),
(80,-239,q),
(45,-239,o),
(45,-223,q),
(45,496,l),
(45,512,o),
(81.5,512,q),
(118,512,o),
(153,507,q),
(188,502,o),
(188,496,q),
(189,192,l),
(189,133,o),
(194.5,106.5,q),
(200,80,o),
(215,80,q),
(243,83,o),
(301,116,q),
(301,496,l),
(301,512,o),
(337.5,512,q),
(374,512,o),
(409.5,507,q),
(445,502,o),
(445,496,q),
(445,0,l),
(445,-6,o),
(444,-8,q),
(439,-16,o),
(391.5,-16,q),
(344,-16,o),
(333,0,q),
(312,31,l),
(255,-15,o),
(173,-15,q),
(162,-223,l),
(161,-230,o),
(138,-234.5,q)
);
}
);
width = 465;
}
);
unicode = (181,956);
},
{
category = Letter;
glyphname = paragraph;
layers = (
{
layerId = "7144b595-13c7-4fae-a12f-f92b2e7cb6a6";
name = Fore;
shapes = (
{
closed = 1;
nodes = (
(24,472,l),
(24,554,o),
(33.5,604,q),
(43,654,o),
(68,684,q),
(93,714,o),
(131,725,q),
(169,736,o),
(232,736,q),
(657,736,l),
(673,720,l),
(673,635,l),
(557,635,l),
(558,0,l),
(430,0,l),
(414,16,l),
(415,635,l),
(346,635,l),
(347,0,l),
(219,0,l),
(203,16,l),
(203,472,l)
);
}
);
width = 703;
}
);
unicode = 182;
},
{
category = Letter;
glyphname = periodcentered;
layers = (
{
layerId = "7144b595-13c7-4fae-a12f-f92b2e7cb6a6";
name = Fore;
shapes = (
{
closed = 1;
nodes = (
(35,367,o),
(107,367,q),
(179,367,o),
(179,295,q),
(179,223,o),
(107,223,q),
(35,223,o),
(35,295,q)
);
}
);
width = 214;
}
);
unicode = 183;
},
{
category = Letter;
glyphname = cedilla;
layers = (
{
layerId = "7144b595-13c7-4fae-a12f-f92b2e7cb6a6";
name = Fore;
shapes = (
{
closed = 1;
nodes = (
(195,-168,o),
(192,-186,q),
(173,-286,o),
(87,-286,q),
(71,-286,o),
(53,-283,q),
(66,-209,l),
(72,-210,o),
(77,-210,q),
(110,-210,o),
(117,-173,q),
(118,-166,o),
(118,-160,q),
(118,-128,o),
(81,-122,q),
(24,-112,l),
(45,9,l),
(102,-1,l),
(94,-47,l),
(195,-66,o),
(195,-153,q)
);
}
);
width = 220;
}
);
unicode = 184;
},
{
category = Letter;
glyphname = onesuperior;
layers = (
{
layerId = "7144b595-13c7-4fae-a12f-f92b2e7cb6a6";
name = Fore;
shapes = (
{
closed = 1;
nodes = (
(71,188,l),
(55,204,l),
(55,281,l),
(93,281,l),
(93,626,l),
(51,613,l),
(24,703,l),
(204,754,l),
(220,738,l),
(221,281,l),
(241,281,l),
(257,265,l),
(257,188,l)
);
}
);
width = 290;
}
);
unicode = 185;
},
{
category = Letter;
glyphname = ordmasculine;
layers = (
{
layerId = "7144b595-13c7-4fae-a12f-f92b2e7cb6a6";
name = Fore;
shapes = (
{
closed = 1;
nodes = (
(36,300,o),
(36,458.5,q),
(36,617,o),
(80,686.5,q),
(124,756,o),
(236,756,q),
(346,756,o),
(394,666,q),
(436,585,o),
(436,451.5,q),
(436,318,o),
(390.5,247,q),
(345,176,o),
(234,176,q),
(123,176,o),
(79.5,238,q)
);
},
{
closed = 1;
nodes = (
(172,274,o),
(204,274,q),
(263,274,o),
(277.5,304.5,q),
(292,335,o),
(292,426,q),
(292,517,o),
(288,566,q),
(279,660,o),
(260,660,q),
(203,660,o),
(187.5,616,q),
(172,572,o),
(172,452,q)
);
}
);
width = 470;
}
);
unicode = 186;
},
{
category = Letter;
glyphname = guillemotright;
layers = (
{
layerId = "7144b595-13c7-4fae-a12f-f92b2e7cb6a6";
name = Fore;
shapes = (
{
closed = 1;
nodes = (
(38,195,l),
(215,384,l),
(54,573,l),
(86,612,l),
(140,599,l),
(310,433,l),
(330,384,l),
(310,335,l),
(124,169,l),
(70,156,l)
);
},
{
closed = 1;
nodes = (
(278,195,l),
(455,384,l),
(294,573,l),
(326,612,l),
(380,599,l),
(550,433,l),
(570,384,l),
(550,335,l),
(364,169,l),
(310,156,l)
);
}
);
width = 591;
}
);
unicode = 187;
},
{
category = Letter;
glyphname = onequarter;
layers = (
{
layerId = "7144b595-13c7-4fae-a12f-f92b2e7cb6a6";
name = Fore;
shapes = (
{
closed = 1;
nodes = (
(799,324,l),
(800,564,l),
(911,564,l),
(927,548,l),
(927,324,l),
(955,324,l),
(971,308,l),
(971,231,l),
(927,231,l),
(927,0,l),
(815,0,l),
(799,16,l),
(799,231,l),
(612,231,l),
(596,247,l),
(597,564,l),
(707,564,l),
(723,548,l),
(723,324,l)
);
},
{
closed = 1;
nodes = (
(70,188,l),
(54,204,l),
(54,281,l),
(92,281,l),
(92,626,l),
(50,613,l),
(23,703,l),
(203,754,l),
(219,738,l),
(220,281,l),
(240,281,l),
(256,265,l),
(256,188,l)
);
},
{
closed = 1;
nodes = (
(584,769,l),
(368,-146,l),
(232,-146,l),
(232,-114,l),
(479,876,l),
(584,876,l)
);
}
);
width = 987;
}
);
unicode = 188;
},
{
category = Letter;
glyphname = onehalf;
layers = (
{
layerId = "7144b595-13c7-4fae-a12f-f92b2e7cb6a6";
name = Fore;
shapes = (
{
closed = 1;
nodes = (
(613,769,l),
(397,-146,l),
(261,-146,l),
(261,-114,l),
(508,876,l),
(613,876,l)
);
},
{
closed = 1;
nodes = (
(69,188,l),
(53,204,l),
(53,281,l),
(91,281,l),
(91,626,l),
(49,613,l),
(22,703,l),
(202,754,l),
(218,738,l),
(219,281,l),
(239,281,l),
(255,265,l),
(255,188,l)
);
},
{
closed = 1;
nodes = (
(749,474,o),
(719,465,q),
(669,465,l),
(649,538,l),
(691,567,o),
(789,567,q),
(887,567,o),
(926.5,529,q),
(966,491,o),
(966,405,q),
(966,372,o),
(933,314.5,q),
(900,257,o),
(783,99,q),
(963,99,l),
(978,84,l),
(978,0,l),
(653,0,l),
(637,16,l),
(637,90,l),
(755,249,l),
(790,295,o),
(803,314,q),
(838,363,o),
(838,403,q),
(838,443,o),
(831,458.5,q),
(824,474,o),
(799,474,q)
);
}
);
width = 994;
}
);
unicode = 189;
},
{
category = Letter;
glyphname = threequarters;
layers = (
{
layerId = "7144b595-13c7-4fae-a12f-f92b2e7cb6a6";
name = Fore;
shapes = (
{
closed = 1;
nodes = (
(655,769,l),
(439,-146,l),
(303,-146,l),
(303,-114,l),
(550,876,l),
(655,876,l)
);
},
{
closed = 1;
nodes = (
(118,659,o),
(88,650,q),
(38,650,l),
(18,723,l),
(60,752,o),
(159,752,q),
(258,752,o),
(300.5,713.5,q),
(343,675,o),
(343,598.5,q),
(343,522,o),
(307,481,q),
(358,440,o),
(358,355,q),
(358,270,o),
(309.5,225,q),
(261,180,o),
(144,180,q),
(106,180,o),
(29,189,q),
(29,281,l),
(114,276,o),
(152,276,q),
(190,276,o),
(202.5,289.5,q),
(215,303,o),
(215,351.5,q),
(215,400,o),
(205,410.5,q),
(195,421,o),
(146,421,q),
(89,421,l),
(89,517,l),
(157,517,o),
(178.5,528.5,q),
(200,540,o),
(200,591,q),
(200,659,o),
(168,659,q)
);
},
{
closed = 1;
nodes = (
(848,324,l),
(849,564,l),
(960,564,l),
(976,548,l),
(976,324,l),
(1004,324,l),
(1020,308,l),
(1020,231,l),
(976,231,l),
(976,0,l),
(864,0,l),
(848,16,l),
(848,231,l),
(661,231,l),
(645,247,l),
(646,564,l),
(756,564,l),
(772,548,l),
(772,324,l)
);
}
);
width = 1038;
}
);
unicode = 190;
},
{
category = Letter;
glyphname = questiondown;
layers = (
{
layerId = "7144b595-13c7-4fae-a12f-f92b2e7cb6a6";
name = Fore;
shapes = (
{
closed = 1;
nodes = (
(312,157,o),
(269,112,q),
(202,43,o),
(182.5,12.5,q),
(163,-18,o),
(163,-63,q),
(163,-108,o),
(174.5,-128.5,q),
(186,-149,o),
(228,-149,q),
(295,-149,o),
(339,-136,q),
(388,-136,l),
(416,-237,l),
(362,-272,o),
(240,-272,q),
(118,-272,o),
(68.5,-221.5,q),
(19,-171,o),
(19,-57,q),
(19,-29,o),
(24,-11,q),
(39,35,o),
(176,189,q),
(176,295,l),
(296,295,l),
(312,279,l),
(312,183,l)
);
},
{
closed = 1;
nodes = (
(166,512,o),
(238,512,q),
(310,512,o),
(310,440,q),
(310,368,o),
(238,368,q),
(166,368,o),
(166,440,q)
);
}
);
width = 439;
}
);
unicode = 191;
},
{
category = Letter;
glyphname = Agrave;
layers = (
{
layerId = "7144b595-13c7-4fae-a12f-f92b2e7cb6a6";
name = Fore;
shapes = (
{
closed = 1;
nodes = (
(252,792,l),
(92,964,l),
(200,1024,l),
(242,992,l),
(299,868,l),
(298,813,l)
);
},
{
closed = 1;
nodes = (
(367,769,o),
(373,738,q),
(441,431,l),
(510,22,l),
(512,12,o),
(512,3.5,q),
(512,-5,o),
(507,-10.5,q),
(502,-16,o),
(473,-16,q),
(384,-16,o),
(378,22,q),
(343,228,l),
(203,228,l),
(172,21,l),
(169,0,o),
(164.5,-7,q),
(160,-14,o),
(152,-15,q),
(144,-16,o),
(126,-16,q),
(98,-16,l),
(63,-16,o),
(54,-12,q),
(32,-4,o),
(29,6,q),
(28,11,o),
(28,15,q),
(28,19,o),
(49,147,q),
(70,275,o),
(100.5,452,q),
(131,629,o),
(140.5,684,q),
(150,739,o),
(151,746,q),
(155,769,o),
(298,769,q)
);
},
{
closed = 1;
nodes = (
(222,349,l),
(321,349,l),
(268,638,l)
);
}
);
width = 529;
}
);
unicode = 192;
},
{
category = Letter;
glyphname = Aacute;
layers = (
{
layerId = "7144b595-13c7-4fae-a12f-f92b2e7cb6a6";
name = Fore;
shapes = (
{
closed = 1;
nodes = (
(222,813,l),
(221,868,l),
(278,992,l),
(320,1024,l),
(428,964,l),
(268,792,l)
);
},
{
closed = 1;
nodes = (
(367,769,o),
(373,738,q),
(441,431,l),
(510,22,l),
(512,12,o),
(512,3.5,q),
(512,-5,o),
(507,-10.5,q),
(502,-16,o),
(473,-16,q),
(384,-16,o),
(378,22,q),
(343,228,l),
(203,228,l),
(172,21,l),
(169,0,o),
(164.5,-7,q),
(160,-14,o),
(152,-15,q),
(144,-16,o),
(126,-16,q),
(98,-16,l),
(63,-16,o),
(54,-12,q),
(32,-4,o),
(29,6,q),
(28,11,o),
(28,15,q),
(28,19,o),
(49,147,q),
(70,275,o),
(100.5,452,q),
(131,629,o),
(140.5,684,q),
(150,739,o),
(151,746,q),
(155,769,o),
(298,769,q)
);
},
{
closed = 1;
nodes = (
(222,349,l),
(321,349,l),
(268,638,l)
);
}
);
width = 528;
}
);
unicode = 193;
},
{
category = Letter;
glyphname = Acircumflex;
layers = (
{
layerId = "7144b595-13c7-4fae-a12f-f92b2e7cb6a6";
name = Fore;
shapes = (
{
closed = 1;
nodes = (
(103,860,l),
(116,914,l),
(218,1004,l),
(267,1024,l),
(316,1004,l),
(418,914,l),
(431,860,l),
(392,828,l),
(267,909,l),
(142,828,l)
);
},
{
closed = 1;
nodes = (
(367,769,o),
(373,738,q),
(441,431,l),
(510,22,l),
(512,12,o),
(512,3.5,q),
(512,-5,o),
(507,-10.5,q),
(502,-16,o),
(473,-16,q),
(384,-16,o),
(378,22,q),
(343,228,l),
(203,228,l),
(172,21,l),
(169,0,o),
(164.5,-7,q),
(160,-14,o),
(152,-15,q),
(144,-16,o),
(126,-16,q),
(98,-16,l),
(63,-16,o),
(54,-12,q),
(32,-4,o),
(29,6,q),
(28,11,o),
(28,15,q),
(28,19,o),
(49,147,q),
(70,275,o),
(100.5,452,q),
(131,629,o),
(140.5,684,q),
(150,739,o),
(151,746,q),
(155,769,o),
(298,769,q)
);
},
{
closed = 1;
nodes = (
(222,349,l),
(321,349,l),
(268,638,l)
);
}
);
width = 536;
}
);
unicode = 194;
},
{
category = Letter;
glyphname = Atilde;
layers = (
{
layerId = "7144b595-13c7-4fae-a12f-f92b2e7cb6a6";
name = Fore;
shapes = (
{
closed = 1;
nodes = (
(428,884,o),
(389.5,884,q),
(351,884,o),
(278,874,q),
(205,864,o),
(155,864,q),
(105,864,o),
(91.5,873.5,q),
(78,883,o),
(78,916,q),
(103,967,l),
(178,967,o),
(243.5,976,q),
(309,985,o),
(362,985,q),
(415,985,o),
(433,974.5,q),
(451,964,o),
(451,929,q),
(435,884,l)
);
},
{
closed = 1;
nodes = (
(367,769,o),
(373,738,q),
(441,431,l),
(510,22,l),
(512,12,o),
(512,3.5,q),
(512,-5,o),
(507,-10.5,q),
(502,-16,o),
(473,-16,q),
(384,-16,o),
(378,22,q),
(343,228,l),
(203,228,l),
(172,21,l),
(169,0,o),
(164.5,-7,q),
(160,-14,o),
(152,-15,q),
(144,-16,o),
(126,-16,q),
(98,-16,l),
(63,-16,o),
(54,-12,q),
(32,-4,o),
(29,6,q),
(28,11,o),
(28,15,q),
(28,19,o),
(49,147,q),
(70,275,o),
(100.5,452,q),
(131,629,o),
(140.5,684,q),
(150,739,o),
(151,746,q),
(155,769,o),
(298,769,q)
);
},
{
closed = 1;
nodes = (
(222,349,l),
(321,349,l),
(268,638,l)
);
}
);
width = 531;
}
);
unicode = 195;
},
{
category = Letter;
glyphname = Adieresis;
layers = (
{
layerId = "7144b595-13c7-4fae-a12f-f92b2e7cb6a6";
name = Fore;
shapes = (
{
closed = 1;
nodes = (
(79,1024,o),
(151,1024,q),
(223,1024,o),
(223,952,q),
(223,880,o),
(151,880,q),
(79,880,o),
(79,952,q)
);
},
{
closed = 1;
nodes = (
(313,1024,o),
(385,1024,q),
(457,1024,o),
(457,952,q),
(457,880,o),
(385,880,q),
(313,880,o),
(313,952,q)
);
},
{
closed = 1;
nodes = (
(367,769,o),
(373,738,q),
(441,431,l),
(510,22,l),
(512,12,o),
(512,3.5,q),
(512,-5,o),
(507,-10.5,q),
(502,-16,o),
(473,-16,q),
(384,-16,o),
(378,22,q),
(343,228,l),
(203,228,l),
(172,21,l),
(169,0,o),
(164.5,-7,q),
(160,-14,o),
(152,-15,q),
(144,-16,o),
(126,-16,q),
(98,-16,l),
(63,-16,o),
(54,-12,q),
(32,-4,o),
(29,6,q),
(28,11,o),
(28,15,q),
(28,19,o),
(49,147,q),
(70,275,o),
(100.5,452,q),
(131,629,o),
(140.5,684,q),
(150,739,o),
(151,746,q),
(155,769,o),
(298,769,q)
);
},
{
closed = 1;
nodes = (
(222,349,l),
(321,349,l),
(268,638,l)
);
}
);
width = 539;
}
);
unicode = 196;
},
{
category = Letter;
glyphname = Aring;
layers = (
{
layerId = "7144b595-13c7-4fae-a12f-f92b2e7cb6a6";
name = Fore;
shapes = (
{
closed = 1;
nodes = (
(167,985,o),
(263,985,q),
(359,985,o),
(359,889,q),
(359,793,o),
(263,793,q),
(167,793,o),
(167,889,q)
);
},
{
closed = 1;
nodes = (
(228,854,o),
(263,854,q),
(298,854,o),
(298,889,q),
(298,924,o),
(263,924,q),
(228,924,o),
(228,889,q)
);
},
{
closed = 1;
nodes = (
(367,769,o),
(373,738,q),
(441,431,l),
(510,22,l),
(512,12,o),
(512,3.5,q),
(512,-5,o),
(507,-10.5,q),
(502,-16,o),
(473,-16,q),
(384,-16,o),
(378,22,q),
(343,228,l),
(203,228,l),
(172,21,l),
(169,0,o),
(164.5,-7,q),
(160,-14,o),
(152,-15,q),
(144,-16,o),
(126,-16,q),
(98,-16,l),
(63,-16,o),
(54,-12,q),
(32,-4,o),
(29,6,q),
(28,11,o),
(28,15,q),
(28,19,o),
(49,147,q),
(70,275,o),
(100.5,452,q),
(131,629,o),
(140.5,684,q),
(150,739,o),
(151,746,q),
(155,769,o),
(298,769,q)
);
},
{
closed = 1;
nodes = (
(222,349,l),
(321,349,l),
(268,638,l)
);
}
);
width = 529;
}
);
unicode = 197;
},
{
category = Letter;
glyphname = AE;
layers = (
{
layerId = "7144b595-13c7-4fae-a12f-f92b2e7cb6a6";
name = Fore;
shapes = (
{
closed = 1;
nodes = (
(677,752,l),
(720,751,o),
(720,720,q),
(719,693,o),
(717,677.5,q),
(715,662,o),
(704.5,647,q),
(694,632,o),
(674,632,q),
(451,632,l),
(462,455,l),
(655,455,l),
(695,455,o),
(695,419,q),
(695,370,o),
(689,352,q),
(683,334,o),
(658,334,q),
(462,334,l),
(462,121,l),
(693,121,l),
(717,120,o),
(726,111.5,q),
(735,103,o),
(735,86,q),
(735,37,o),
(726,18.5,q),
(717,0,o),
(690,0,q),
(338,0,l),
(322,16,l),
(322,228,l),
(203,228,l),
(172,21,l),
(169,0,o),
(164.5,-7,q),
(160,-14,o),
(152,-15,q),
(144,-16,o),
(126,-16,q),
(98,-16,l),
(63,-16,o),
(54,-12,q),
(32,-4,o),
(29,6,q),
(28,11,o),
(28,15,q),
(28,19,o),
(28,22,q),
(144,692,l),
(150,740,o),
(226,748,q),
(262,752,o),
(323,752,q)
);
},
{
closed = 1;
nodes = (
(321,638,l),
(268,638,l),
(222,349,l),
(321,349,l)
);
}
);
width = 765;
}
);
unicode = 198;
},
{
category = Letter;
glyphname = Ccedilla;
layers = (
{
layerId = "7144b595-13c7-4fae-a12f-f92b2e7cb6a6";
name = Fore;
shapes = (
{
closed = 1;
nodes = (
(461,118,o),
(461,86,q),
(461,54,o),
(460,38,q),
(456,2,o),
(428,-3,q),
(339,-16,o),
(295,-16,q),
(290,-47,l),
(391,-66,o),
(391,-153,q),
(391,-168,o),
(388,-186,q),
(369,-286,o),
(283,-286,q),
(267,-286,o),
(249,-283,q),
(262,-209,l),
(268,-210,o),
(273,-210,q),
(306,-210,o),
(313,-173,q),
(314,-166,o),
(314,-160,q),
(314,-128,o),
(277,-122,q),
(220,-112,l),
(237,-12,l),
(123,2,o),
(79,88,q),
(35,174,o),
(35,352.5,q),
(35,531,o),
(59.5,615.5,q),
(84,700,o),
(138.5,734,q),
(193,768,o),
(301.5,768,q),
(410,768,o),
(460,734,q),
(470,727,o),
(470,717,q),
(470,707,o),
(460.5,679.5,q),
(451,652,o),
(442.5,640.5,q),
(434,629,o),
(425,629,q),
(416,629,o),
(411,630,q),
(336,645,o),
(281.5,645,q),
(227,645,o),
(210.5,585,q),
(194,525,o),
(194,390.5,q),
(194,256,o),
(201,203,q),
(208,150,o),
(227,129,q),
(246,108,o),
(287.5,108,q),
(329,108,o),
(381.5,113,q),
(434,118,o),
(436,118,q)
);
}
);
width = 469;
}
);
unicode = 199;
},
{
category = Letter;
glyphname = Egrave;
layers = (
{
layerId = "7144b595-13c7-4fae-a12f-f92b2e7cb6a6";
name = Fore;
shapes = (
{
closed = 1;
nodes = (
(225,792,l),
(65,964,l),
(173,1024,l),
(215,992,l),
(272,868,l),
(271,813,l)
);
},
{
closed = 1;
nodes = (
(418,455,o),
(418,419,q),
(418,370,o),
(412,352,q),
(406,334,o),
(381,334,q),
(185,334,l),
(185,121,l),
(416,121,l),
(440,120,o),
(449,111.5,q),
(458,103,o),
(458,86,q),
(458,37,o),
(449,18.5,q),
(440,0,o),
(413,0,q),
(61,0,l),
(45,16,l),
(45,752,l),
(400,752,l),
(443,751,o),
(443,720,q),
(442,693,o),
(440,677.5,q),
(438,662,o),
(427.5,647,q),
(417,632,o),
(397,632,q),
(174,632,l),
(185,455,l),
(378,455,l)
);
}
);
width = 450;
}
);
unicode = 200;
},
{
category = Letter;
glyphname = Eacute;
layers = (
{
layerId = "7144b595-13c7-4fae-a12f-f92b2e7cb6a6";
name = Fore;
shapes = (
{
closed = 1;
nodes = (
(184,813,l),
(183,868,l),
(240,992,l),
(282,1024,l),
(390,964,l),
(230,792,l)
);
},
{
closed = 1;
nodes = (
(402,455,o),
(402,419,q),
(402,370,o),
(396,352,q),
(390,334,o),
(365,334,q),
(169,334,l),
(169,121,l),
(400,121,l),
(424,120,o),
(433,111.5,q),
(442,103,o),
(442,86,q),
(442,37,o),
(433,18.5,q),
(424,0,o),
(397,0,q),
(45,0,l),
(29,16,l),
(29,752,l),
(384,752,l),
(427,751,o),
(427,720,q),
(426,693,o),
(424,677.5,q),
(422,662,o),
(411.5,647,q),
(401,632,o),
(381,632,q),
(158,632,l),
(169,455,l),
(362,455,l)
);
}
);
width = 451;
}
);
unicode = 201;
},
{
category = Letter;
glyphname = Ecircumflex;
layers = (
{
layerId = "7144b595-13c7-4fae-a12f-f92b2e7cb6a6";
name = Fore;
shapes = (
{
closed = 1;
nodes = (
(71,860,l),
(84,914,l),
(186,1004,l),
(235,1024,l),
(284,1004,l),
(386,914,l),
(399,860,l),
(360,828,l),
(235,909,l),
(110,828,l)
);
},
{
closed = 1;
nodes = (
(411,455,o),
(411,419,q),
(411,370,o),
(405,352,q),
(399,334,o),
(374,334,q),
(178,334,l),
(178,121,l),
(409,121,l),
(433,120,o),
(442,111.5,q),
(451,103,o),
(451,86,q),
(451,37,o),
(442,18.5,q),
(433,0,o),
(406,0,q),
(54,0,l),
(38,16,l),
(38,752,l),
(393,752,l),
(436,751,o),
(436,720,q),
(435,693,o),
(433,677.5,q),
(431,662,o),
(420.5,647,q),
(410,632,o),
(390,632,q),
(167,632,l),
(178,455,l),
(371,455,l)
);
}
);
width = 461;
}
);
unicode = 202;
},
{
category = Letter;
glyphname = Edieresis;
layers = (
{
layerId = "7144b595-13c7-4fae-a12f-f92b2e7cb6a6";
name = Fore;
shapes = (
{
closed = 1;
nodes = (
(48,1024,o),
(120,1024,q),
(192,1024,o),
(192,952,q),
(192,880,o),
(120,880,q),
(48,880,o),
(48,952,q)
);
},
{
closed = 1;
nodes = (
(282,1024,o),
(354,1024,q),
(426,1024,o),
(426,952,q),
(426,880,o),
(354,880,q),
(282,880,o),
(282,952,q)
);
},
{
closed = 1;
nodes = (
(414,455,o),
(414,419,q),
(414,370,o),
(408,352,q),
(402,334,o),
(377,334,q),
(181,334,l),
(181,121,l),
(412,121,l),
(436,120,o),
(445,111.5,q),
(454,103,o),
(454,86,q),
(454,37,o),
(445,18.5,q),
(436,0,o),
(409,0,q),
(57,0,l),
(41,16,l),
(41,752,l),
(396,752,l),
(439,751,o),
(439,720,q),
(438,693,o),
(436,677.5,q),
(434,662,o),
(423.5,647,q),
(413,632,o),
(393,632,q),
(170,632,l),
(181,455,l),
(374,455,l)
);
}
);
width = 466;
}
);
unicode = 203;
},
{
category = Letter;
glyphname = Igrave;
layers = (
{
layerId = "7144b595-13c7-4fae-a12f-f92b2e7cb6a6";
name = Fore;
shapes = (
{
closed = 1;
nodes = (
(179,792,l),
(19,964,l),
(127,1024,l),
(169,992,l),
(226,868,l),
(225,813,l)
);
},
{
closed = 1;
nodes = (
(127,121,l),
(127,632,l),
(97,632,l),
(77,633,o),
(70,645,q),
(63,659,o),
(63,696,q),
(63,752,o),
(96,752,q),
(273,752,l),
(317,752,o),
(317,721,q),
(317,632,o),
(282,632,q),
(257,632,l),
(267,432,l),
(268,121,l),
(298,121,l),
(333,120,o),
(333,89,q),
(331,0,o),
(284,0,q),
(95,0,l),
(77,1,o),
(70,13,q),
(63,27,o),
(63,65,q),
(63,121,o),
(91,121,q)
);
}
);
width = 335;
}
);
unicode = 204;
},
{
category = Letter;
glyphname = Iacute;
layers = (
{
layerId = "7144b595-13c7-4fae-a12f-f92b2e7cb6a6";
name = Fore;
shapes = (
{
closed = 1;
nodes = (
(110,813,l),
(109,868,l),
(166,992,l),
(208,1024,l),
(316,964,l),
(156,792,l)
);
},
{
closed = 1;
nodes = (
(73,121,l),
(73,632,l),
(43,632,l),
(23,633,o),
(16,645,q),
(9,659,o),
(9,696,q),
(9,752,o),
(42,752,q),
(219,752,l),
(263,752,o),
(263,721,q),
(263,632,o),
(228,632,q),
(203,632,l),
(213,432,l),
(214,121,l),
(244,121,l),
(279,120,o),
(279,89,q),
(277,0,o),
(230,0,q),
(41,0,l),
(23,1,o),
(16,13,q),
(9,27,o),
(9,65,q),
(9,121,o),
(37,121,q)
);
}
);
width = 335;
}
);
unicode = 205;
},
{
category = Letter;
glyphname = Icircumflex;
layers = (
{
layerId = "7144b595-13c7-4fae-a12f-f92b2e7cb6a6";
name = Fore;
shapes = (
{
closed = 1;
nodes = (
(23,860,l),
(36,914,l),
(138,1004,l),
(187,1024,l),
(236,1004,l),
(338,914,l),
(351,860,l),
(312,828,l),
(187,909,l),
(62,828,l)
);
},
{
closed = 1;
nodes = (
(122,121,l),
(122,632,l),
(92,632,l),
(72,633,o),
(66,645,q),
(58,659,o),
(58,696,q),
(58,752,o),
(91,752,q),
(268,752,l),
(312,752,o),
(312,721,q),
(312,632,o),
(277,632,q),
(252,632,l),
(262,432,l),
(263,121,l),
(293,121,l),
(328,120,o),
(328,89,q),
(326,0,o),
(279,0,q),
(90,0,l),
(72,1,o),
(66,13,q),
(58,27,o),
(58,65,q),
(58,121,o),
(86,121,q)
);
}
);
width = 376;
}
);
unicode = 206;
},
{
category = Letter;
glyphname = Idieresis;
layers = (
{
layerId = "7144b595-13c7-4fae-a12f-f92b2e7cb6a6";
name = Fore;
shapes = (
{
closed = 1;
nodes = (
(21,1024,o),
(93,1024,q),
(165,1024,o),
(165,952,q),
(165,880,o),
(93,880,q),
(21,880,o),
(21,952,q)
);
},
{
closed = 1;
nodes = (
(255,1024,o),
(327,1024,q),
(399,1024,o),
(399,952,q),
(399,880,o),
(327,880,q),
(255,880,o),
(255,952,q)
);
},
{
closed = 1;
nodes = (
(166,121,l),
(166,632,l),
(136,632,l),
(116,633,o),
(110,645,q),
(102,659,o),
(102,696,q),
(102,752,o),
(135,752,q),
(312,752,l),
(356,752,o),
(356,721,q),
(356,632,o),
(321,632,q),
(296,632,l),
(306,432,l),
(307,121,l),
(337,121,l),
(372,120,o),
(372,89,q),
(370,0,o),
(323,0,q),
(134,0,l),
(116,1,o),
(110,13,q),
(102,27,o),
(102,65,q),
(102,121,o),
(130,121,q)
);
}
);
width = 421;
}
);
unicode = 207;
},
{
category = Letter;
glyphname = Eth;
layers = (
{
layerId = "7144b595-13c7-4fae-a12f-f92b2e7cb6a6";
name = Fore;
shapes = (
{
closed = 1;
nodes = (
(373,768,o),
(429,737,q),
(485,706,o),
(510,624.5,q),
(535,543,o),
(535,383,q),
(535,161,o),
(477,72.5,q),
(419,-16,o),
(264,-16,q),
(226,-16,o),
(45,0,q),
(45,751,l),
(197,768,o),
(264,768,q)
);
},
{
closed = 1;
nodes = (
(310,370,o),
(304,352,q),
(298,334,o),
(273,334,q),
(186,334,l),
(186,124,l),
(186,113,o),
(199.5,111,q),
(213,109,o),
(254.5,109,q),
(296,109,o),
(313,113.5,q),
(330,118,o),
(344.5,129.5,q),
(359,141,o),
(364,174,q),
(374,238,o),
(374,372,q),
(374,649,o),
(317,649,q),
(230,649,o),
(208,645.5,q),
(186,642,o),
(186,626,q),
(186,455,l),
(274,455,l),
(310,453,o),
(310,419,q)
);
}
);
width = 571;
}
);
unicode = 208;
},
{
category = Letter;
glyphname = Ntilde;
layers = (
{
layerId = "7144b595-13c7-4fae-a12f-f92b2e7cb6a6";
name = Fore;
shapes = (
{
closed = 1;
nodes = (
(426,884,o),
(387.5,884,q),
(349,884,o),
(276,874,q),
(203,864,o),
(153,864,q),
(103,864,o),
(89.5,873.5,q),
(76,883,o),
(76,916,q),
(101,967,l),
(176,967,o),
(241.5,976,q),
(307,985,o),
(360,985,q),
(413,985,o),
(431,974.5,q),
(449,964,o),
(449,929,q),
(433,884,l)
);
},
{
closed = 1;
nodes = (
(37,731,l),
(37,768,o),
(109,768,q),
(124,768,o),
(132.5,767,q),
(141,766,o),
(154,757.5,q),
(167,749,o),
(177,733,q),
(356,313,l),
(350,732,l),
(350,768,o),
(422,768,q),
(452,768,o),
(463,761,q),
(474,754,o),
(475,732,q),
(491,431,l),
(491,21,l),
(491,4,o),
(490,-2,q),
(486,-16,o),
(451,-16,q),
(386,-16,o),
(373,21,q),
(176,436,l),
(177,22,l),
(177,4,o),
(176,-2,q),
(172,-16,o),
(137,-16,q),
(37,-16,o),
(37,24,q)
);
}
);
width = 527;
}
);
unicode = 209;
},
{
category = Letter;
glyphname = Ograve;
layers = (
{
layerId = "7144b595-13c7-4fae-a12f-f92b2e7cb6a6";
name = Fore;
shapes = (
{
closed = 1;
nodes = (
(31,530,o),
(56,615,q),
(81,700,o),
(135.5,734,q),
(190,768,o),
(293,768,q),
(396,768,o),
(450.5,734,q),
(505,700,o),
(529.5,615.5,q),
(554,531,o),
(554,371,q),
(554,152,o),
(498,68,q),
(442,-16,o),
(293,-16,q),
(144,-16,o),
(87.5,68,q),
(31,152,o),
(31,371,q)
);
},
{
closed = 1;
nodes = (
(190,443,o),
(190,351,q),
(190,259,o),
(196,197,q),
(202,135,o),
(212,115.5,q),
(222,96,o),
(239,96,q),
(327,96,o),
(354,114,q),
(364,121,o),
(373.5,137,q),
(383,153,o),
(387,170,q),
(391,187,o),
(394,220,q),
(398,263,o),
(398,374.5,q),
(398,486,o),
(392.5,550.5,q),
(387,615,o),
(376.5,638.5,q),
(366,662,o),
(349,662,q),
(309,662,o),
(284.5,658.5,q),
(260,655,o),
(241,641.5,q),
(222,628,o),
(213,611.5,q),
(204,595,o),
(198,557.5,q),
(192,520,o),
(191,481.5,q)
);
},
{
closed = 1;
nodes = (
(267,792,l),
(107,964,l),
(215,1024,l),
(257,992,l),
(314,868,l),
(313,813,l)
);
}
);
width = 577;
}
);
unicode = 210;
},
{
category = Letter;
glyphname = Oacute;
layers = (
{
layerId = "7144b595-13c7-4fae-a12f-f92b2e7cb6a6";
name = Fore;
shapes = (
{
closed = 1;
nodes = (
(23,530,o),
(48,615,q),
(73,700,o),
(127.5,734,q),
(182,768,o),
(285,768,q),
(388,768,o),
(442.5,734,q),
(497,700,o),
(521.5,615.5,q),
(546,531,o),
(546,371,q),
(546,152,o),
(490,68,q),
(434,-16,o),
(285,-16,q),
(136,-16,o),
(79.5,68,q),
(23,152,o),
(23,371,q)
);
},
{
closed = 1;
nodes = (
(182,443,o),
(182,351,q),
(182,259,o),
(188,197,q),
(194,135,o),
(204,115.5,q),
(214,96,o),
(231,96,q),
(319,96,o),
(346,114,q),
(356,121,o),
(365.5,137,q),
(375,153,o),
(379,170,q),
(383,187,o),
(386,220,q),
(390,263,o),
(390,374.5,q),
(390,486,o),
(384.5,550.5,q),
(379,615,o),
(368.5,638.5,q),
(358,662,o),
(341,662,q),
(301,662,o),
(276.5,658.5,q),
(252,655,o),
(233,641.5,q),
(214,628,o),
(205,611.5,q),
(196,595,o),
(190,557.5,q),
(184,520,o),
(183,481.5,q)
);
},
{
closed = 1;
nodes = (
(257,813,l),
(256,868,l),
(313,992,l),
(355,1024,l),
(463,964,l),
(303,792,l)
);
}
);
width = 577;
}
);
unicode = 211;
},
{
category = Letter;
glyphname = Ocircumflex;
layers = (
{
layerId = "7144b595-13c7-4fae-a12f-f92b2e7cb6a6";
name = Fore;
shapes = (
{
closed = 1;
nodes = (
(30,530,o),
(55,615,q),
(80,700,o),
(134.5,734,q),
(189,768,o),
(292,768,q),
(395,768,o),
(449.5,734,q),
(504,700,o),
(528.5,615.5,q),
(553,531,o),
(553,371,q),
(553,152,o),
(497,68,q),
(441,-16,o),
(292,-16,q),
(143,-16,o),
(86.5,68,q),
(30,152,o),
(30,371,q)
);
},
{
closed = 1;
nodes = (
(189,443,o),
(189,351,q),
(189,259,o),
(195,197,q),
(201,135,o),
(211,115.5,q),
(221,96,o),
(238,96,q),
(326,96,o),
(354,114,q),
(363,121,o),
(372.5,137,q),
(382,153,o),
(386,170,q),
(390,187,o),
(393,220,q),
(397,263,o),
(397,374.5,q),
(397,486,o),
(391.5,550.5,q),
(386,615,o),
(375.5,638.5,q),
(365,662,o),
(348,662,q),
(308,662,o),
(283.5,658.5,q),
(259,655,o),
(240,641.5,q),
(221,628,o),
(212,611.5,q),
(203,595,o),
(197,557.5,q),
(191,520,o),
(190,481.5,q)
);
},
{
closed = 1;
nodes = (
(127,860,l),
(140,914,l),
(242,1004,l),
(291,1024,l),
(340,1004,l),
(442,914,l),
(455,860,l),
(416,828,l),
(291,909,l),
(166,828,l)
);
}
);
width = 583;
}
);
unicode = 212;
},
{
category = Letter;
glyphname = Otilde;
layers = (
{
layerId = "7144b595-13c7-4fae-a12f-f92b2e7cb6a6";
name = Fore;
shapes = (
{
closed = 1;
nodes = (
(30,530,o),
(55,615,q),
(80,700,o),
(134.5,734,q),
(189,768,o),
(292,768,q),
(395,768,o),
(449.5,734,q),
(504,700,o),
(528.5,615.5,q),
(553,531,o),
(553,371,q),
(553,152,o),
(497,68,q),
(441,-16,o),
(292,-16,q),
(143,-16,o),
(86.5,68,q),
(30,152,o),
(30,371,q)
);
},
{
closed = 1;
nodes = (
(189,443,o),
(189,351,q),
(189,259,o),
(195,197,q),
(201,135,o),
(211,115.5,q),
(221,96,o),
(238,96,q),
(326,96,o),
(354,114,q),
(363,121,o),
(372.5,137,q),
(382,153,o),
(386,170,q),
(390,187,o),
(393,220,q),
(397,263,o),
(397,374.5,q),
(397,486,o),
(391.5,550.5,q),
(386,615,o),
(375.5,638.5,q),
(365,662,o),
(348,662,q),
(308,662,o),
(283.5,658.5,q),
(259,655,o),
(240,641.5,q),
(221,628,o),
(212,611.5,q),
(203,595,o),
(197,557.5,q),
(191,520,o),
(190,481.5,q)
);
},
{
closed = 1;
nodes = (
(454,884,o),
(415.5,884,q),
(377,884,o),
(304,874,q),
(231,864,o),
(181,864,q),
(131,864,o),
(117.5,873.5,q),
(104,883,o),
(104,916,q),
(129,967,l),
(204,967,o),
(269.5,976,q),
(335,985,o),
(388,985,q),
(441,985,o),
(459,974.5,q),
(477,964,o),
(477,929,q),
(461,884,l)
);
}
);
width = 583;
}
);
unicode = 213;
},
{
category = Letter;
glyphname = Odieresis;
layers = (
{
layerId = "7144b595-13c7-4fae-a12f-f92b2e7cb6a6";
name = Fore;
shapes = (
{
closed = 1;
nodes = (
(31,530,o),
(56,615,q),
(81,700,o),
(135.5,734,q),
(190,768,o),
(293,768,q),
(396,768,o),
(450.5,734,q),
(505,700,o),
(529.5,615.5,q),
(554,531,o),
(554,371,q),
(554,152,o),
(498,68,q),
(442,-16,o),
(293,-16,q),
(144,-16,o),
(87.5,68,q),
(31,152,o),
(31,371,q)
);
},
{
closed = 1;
nodes = (
(190,443,o),
(190,351,q),
(190,259,o),
(196,197,q),
(202,135,o),
(212,115.5,q),
(222,96,o),
(239,96,q),
(327,96,o),
(354,114,q),
(364,121,o),
(373.5,137,q),
(383,153,o),
(387,170,q),
(391,187,o),
(394,220,q),
(398,263,o),
(398,374.5,q),
(398,486,o),
(392.5,550.5,q),
(387,615,o),
(376.5,638.5,q),
(366,662,o),
(349,662,q),
(309,662,o),
(284.5,658.5,q),
(260,655,o),
(241,641.5,q),
(222,628,o),
(213,611.5,q),
(204,595,o),
(198,557.5,q),
(192,520,o),
(191,481.5,q)
);
},
{
closed = 1;
nodes = (
(103,1024,o),
(175,1024,q),
(247,1024,o),
(247,952,q),
(247,880,o),
(175,880,q),
(103,880,o),
(103,952,q)
);
},
{
closed = 1;
nodes = (
(337,1024,o),
(409,1024,q),
(481,1024,o),
(481,952,q),
(481,880,o),
(409,880,q),
(337,880,o),
(337,952,q)
);
}
);
width = 586;
}
);
unicode = 214;
},
{
category = Letter;
glyphname = multiply;
layers = (
{
layerId = "7144b595-13c7-4fae-a12f-f92b2e7cb6a6";
name = Fore;
shapes = (
{
closed = 1;
nodes = (
(212,457,l),
(298,543,l),
(321,543,l),
(385,478,l),
(385,454,l),
(300,369,l),
(397,273,l),
(310,185,l),
(213,282,l),
(117,186,l),
(29,273,l),
(125,369,l),
(40,454,l),
(40,477,l),
(105,541,l),
(129,541,l)
);
}
);
width = 427;
}
);
unicode = 215;
},
{
category = Letter;
glyphname = Oslash;
layers = (
{
layerId = "7144b595-13c7-4fae-a12f-f92b2e7cb6a6";
name = Fore;
shapes = (
{
closed = 1;
nodes = (
(326,755,l),
(356,876,l),
(461,876,l),
(461,769,l),
(450,724,l),
(506,690,o),
(528.5,609,q),
(551,528,o),
(551,371,q),
(551,152,o),
(495,68,q),
(439,-16,o),
(289,-16,q),
(275,-16,l),
(245,-146,l),
(109,-146,l),
(109,-114,l),
(141,14,l),
(79,49,o),
(53,133,q),
(27,217,o),
(27,354,q),
(27,491,o),
(39,564.5,q),
(51,638,o),
(83.5,681.5,q),
(116,725,o),
(163.5,740.5,q),
(211,756,o),
(289,756,q)
);
},
{
closed = 1;
nodes = (
(189,424,o),
(189,342,q),
(189,260,o),
(194.5,199,q),
(200,138,o),
(209.5,118.5,q),
(219,99,o),
(235,99,q),
(322,99,o),
(350,118,q),
(389,145,o),
(392,286,q),
(392,319,o),
(392,401.5,q),
(392,484,o),
(386.5,544.5,q),
(381,605,o),
(371.5,625.5,q),
(362,646,o),
(345,646,q),
(283,646,o),
(262,639,q),
(241,632,o),
(231,625,q),
(221,618,o),
(212,601,q),
(203,584,o),
(199.5,567.5,q),
(196,551,o),
(193,518.5,q),
(190,486,o),
(189.5,455,q)
);
}
);
width = 578;
}
);
unicode = 216;
},
{
category = Letter;
glyphname = Ugrave;
layers = (
{
layerId = "7144b595-13c7-4fae-a12f-f92b2e7cb6a6";
name = Fore;
shapes = (
{
closed = 1;
nodes = (
(251,792,l),
(91,964,l),
(199,1024,l),
(241,992,l),
(298,868,l),
(297,813,l)
);
},
{
closed = 1;
nodes = (
(358,750,o),
(370,759,q),
(382,768,o),
(420,768,q),
(458,768,o),
(472.5,756,q),
(487,744,o),
(488,698,q),
(500,429,l),
(500,414,o),
(500,399,q),
(500,244,o),
(479.5,153,q),
(459,62,o),
(409.5,23,q),
(360,-16,o),
(268,-16,q),
(134,-16,o),
(83,68,q),
(32,152,o),
(32,370,q),
(32,700,l),
(32,743,o),
(44.5,755.5,q),
(57,768,o),
(96,768,q),
(135,768,o),
(149,754.5,q),
(163,741,o),
(165,690,q),
(179,431,l),
(179,178,o),
(198,130,q),
(207,109,o),
(222,109,q),
(257,109,o),
(276,110.5,q),
(295,112,o),
(313,122.5,q),
(331,133,o),
(338,147,q),
(345,161,o),
(350,194,q),
(358,240,o),
(358,370,q),
(358,722,l)
);
}
);
width = 529;
}
);
unicode = 217;
},
{
category = Letter;
glyphname = Uacute;
layers = (
{
layerId = "7144b595-13c7-4fae-a12f-f92b2e7cb6a6";
name = Fore;
shapes = (
{
closed = 1;
nodes = (
(232,813,l),
(231,868,l),
(288,992,l),
(330,1024,l),
(438,964,l),
(278,792,l)
);
},
{
closed = 1;
nodes = (
(352,750,o),
(364,759,q),
(376,768,o),
(414,768,q),
(452,768,o),
(466.5,756,q),
(481,744,o),
(482,698,q),
(494,429,l),
(494,414,o),
(494,399,q),
(494,244,o),
(473.5,153,q),
(453,62,o),
(403.5,23,q),
(354,-16,o),
(262,-16,q),
(128,-16,o),
(77,68,q),
(26,152,o),
(26,370,q),
(26,700,l),
(26,743,o),
(38.5,755.5,q),
(51,768,o),
(90,768,q),
(129,768,o),
(143,754.5,q),
(157,741,o),
(159,690,q),
(173,431,l),
(173,178,o),
(192,130,q),
(201,109,o),
(216,109,q),
(251,109,o),
(270,110.5,q),
(289,112,o),
(307,122.5,q),
(325,133,o),
(332,147,q),
(339,161,o),
(344,194,q),
(352,240,o),
(352,370,q),
(352,722,l)
);
}
);
width = 528;
}
);
unicode = 218;
},
{
category = Letter;
glyphname = Ucircumflex;
layers = (
{
layerId = "7144b595-13c7-4fae-a12f-f92b2e7cb6a6";
name = Fore;
shapes = (
{
closed = 1;
nodes = (
(103,860,l),
(116,914,l),
(218,1004,l),
(267,1024,l),
(316,1004,l),
(418,914,l),
(431,860,l),
(392,828,l),
(267,909,l),
(142,828,l)
);
},
{
closed = 1;
nodes = (
(358,750,o),
(370,759,q),
(382,768,o),
(420,768,q),
(458,768,o),
(472.5,756,q),
(487,744,o),
(488,698,q),
(500,429,l),
(500,414,o),
(500,399,q),
(500,244,o),
(479.5,153,q),
(459,62,o),
(409.5,23,q),
(360,-16,o),
(268,-16,q),
(134,-16,o),
(83,68,q),
(32,152,o),
(32,370,q),
(32,700,l),
(32,743,o),
(44.5,755.5,q),
(57,768,o),
(96,768,q),
(135,768,o),
(149,754.5,q),
(163,741,o),
(165,690,q),
(179,431,l),
(179,178,o),
(198,130,q),
(207,109,o),
(222,109,q),
(257,109,o),
(276,110.5,q),
(295,112,o),
(313,122.5,q),
(331,133,o),
(338,147,q),
(345,161,o),
(350,194,q),
(358,240,o),
(358,370,q),
(358,722,l)
);
}
);
width = 536;
}
);
unicode = 219;
},
{
category = Letter;
glyphname = Udieresis;
layers = (
{
layerId = "7144b595-13c7-4fae-a12f-f92b2e7cb6a6";
name = Fore;
shapes = (
{
closed = 1;
nodes = (
(80,1024,o),
(152,1024,q),
(224,1024,o),
(224,952,q),
(224,880,o),
(152,880,q),
(80,880,o),
(80,952,q)
);
},
{
closed = 1;
nodes = (
(314,1024,o),
(386,1024,q),
(458,1024,o),
(458,952,q),
(458,880,o),
(386,880,q),
(314,880,o),
(314,952,q)
);
},
{
closed = 1;
nodes = (
(358,750,o),
(370,759,q),
(382,768,o),
(420,768,q),
(458,768,o),
(472.5,756,q),
(487,744,o),
(488,698,q),
(500,429,l),
(500,414,o),
(500,399,q),
(500,244,o),
(479.5,153,q),
(459,62,o),
(409.5,23,q),
(360,-16,o),
(268,-16,q),
(134,-16,o),
(83,68,q),
(32,152,o),
(32,370,q),
(32,700,l),
(32,743,o),
(44.5,755.5,q),
(57,768,o),
(96,768,q),
(135,768,o),
(149,754.5,q),
(163,741,o),
(165,690,q),
(179,431,l),
(179,178,o),
(198,130,q),
(207,109,o),
(222,109,q),
(257,109,o),
(276,110.5,q),
(295,112,o),
(313,122.5,q),
(331,133,o),
(338,147,q),
(345,161,o),
(350,194,q),
(358,240,o),
(358,370,q),
(358,722,l)
);
}
);
width = 539;
}
);
unicode = 220;
},
{
category = Letter;
glyphname = Yacute;
layers = (
{
layerId = "7144b595-13c7-4fae-a12f-f92b2e7cb6a6";
name = Fore;
shapes = (
{
closed = 1;
nodes = (
(251,813,l),
(250,868,l),
(307,992,l),
(349,1024,l),
(457,964,l),
(297,792,l)
);
},
{
closed = 1;
nodes = (
(14,768,o),
(80,768,q),
(146,768,o),
(161,731,q),
(298,492,l),
(417,734,l),
(425,754,o),
(439,761,q),
(453,768,o),
(483,768,q),
(551,768,o),
(551,743,q),
(551,737,o),
(548,731,q),
(353,349,l),
(353,21,l),
(353,4,o),
(352,-2,q),
(348,-16,o),
(313,-16,q),
(236,-16,o),
(236,22,q),
(236,349,l),
(18,732,l),
(14,739,o),
(14,745,q)
);
}
);
width = 562;
}
);
unicode = 221;
},
{
category = Letter;
glyphname = Thorn;
layers = (
{
layerId = "7144b595-13c7-4fae-a12f-f92b2e7cb6a6";
name = Fore;
shapes = (
{
closed = 1;
nodes = (
(155,-16,l),
(143,-16,l),
(110,-16,o),
(78,-11,q),
(46,-6,o),
(46,0,q),
(46,755,l),
(46,771,o),
(82,771,q),
(118,771,o),
(148.5,766,q),
(179,761,o),
(179,755,q),
(179,627,l),
(227,627,l),
(348,627,o),
(391.5,573.5,q),
(435,520,o),
(435,370,q),
(435,220,o),
(400.5,159.5,q),
(366,99,o),
(292,99,q),
(264,99,o),
(179,110,q),
(179,-6,l),
(179,-10,o),
(177.5,-10.5,q),
(176,-11,o),
(174.5,-12.5,q),
(173,-14,o),
(170,-14,q)
);
},
{
closed = 1;
nodes = (
(179,195,l),
(275,195,l),
(286,195,o),
(288.5,237.5,q),
(291,280,o),
(291,375,q),
(291,470,o),
(277.5,500.5,q),
(264,531,o),
(227,531,q),
(179,531,l)
);
}
);
width = 451;
}
);
unicode = 222;
},
{
category = Letter;
glyphname = germandbls;
layers = (
{
layerId = "7144b595-13c7-4fae-a12f-f92b2e7cb6a6";
name = Fore;
shapes = (
{
closed = 1;
nodes = (
(157,-86,l),
(145,-86,l),
(112,-86,o),
(77.5,-81,q),
(43,-76,o),
(43,-70,q),
(43,496,l),
(43,579,o),
(53,628.5,q),
(63,678,o),
(90,708.5,q),
(117,739,o),
(158,749.5,q),
(199,760,o),
(269,760,q),
(369,760,o),
(416,724,q),
(468,684,o),
(468,579,q),
(468,507,o),
(434,468,q),
(418,449,o),
(402,434,q),
(362,400,o),
(362,373,q),
(362,357,o),
(379.5,347,q),
(397,337,o),
(408,331.5,q),
(419,326,o),
(440,316,q),
(515,284,o),
(551.5,245,q),
(588,206,o),
(588,168,q),
(588,85,o),
(544,34.5,q),
(500,-16,o),
(424.5,-16,q),
(349,-16,o),
(306,4,q),
(263,24,o),
(234,61,q),
(234,81,l),
(288,134,l),
(296,134,l),
(351,90,o),
(401,90,q),
(429,90,o),
(443,106,q),
(457,122,o),
(457,141,q),
(457,160,o),
(441,172,q),
(425,184,o),
(397.5,197.5,q),
(370,211,o),
(364,214,q),
(313,239,o),
(277.5,276.5,q),
(242,314,o),
(242,355.5,q),
(242,397,o),
(254,425.5,q),
(266,454,o),
(283,471.5,q),
(300,489,o),
(318,504,q),
(359,541,o),
(359,586,q),
(359,631,o),
(335.5,645,q),
(312,659,o),
(259.5,659,q),
(207,659,o),
(193,625,q),
(179,591,o),
(179,496,q),
(181,-70,l),
(181,-76,l),
(181,-80,o),
(179.5,-80.5,q),
(178,-81,o),
(176.5,-82.5,q),
(175,-84,o),
(172,-84,q)
);
}
);
width = 607;
}
);
unicode = 223;
},
{
category = Letter;
glyphname = agrave;
layers = (
{
layerId = "7144b595-13c7-4fae-a12f-f92b2e7cb6a6";
name = Fore;
shapes = (
{
closed = 1;
nodes = (
(222,-16,o),
(181.5,-16,q),
(141,-16,o),
(116,-10.5,q),
(91,-5,o),
(71,13.5,q),
(51,32,o),
(43,67,q),
(35,102,o),
(35,160,q),
(35,241,o),
(114,271,q),
(257,308,l),
(256,373,o),
(244,392,q),
(232,411,o),
(192,411,q),
(152,411,o),
(123,398,q),
(88,384,l),
(87,384,l),
(78,379,o),
(71,392,q),
(53,430,o),
(53,451.5,q),
(53,473,o),
(56.5,475.5,q),
(60,478,o),
(60,479,q),
(110,512,o),
(189.5,512,q),
(269,512,o),
(312,491,q),
(355,470,o),
(374.5,414.5,q),
(394,359,o),
(394,250,q),
(392,0,l),
(392,-6,o),
(390,-8,q),
(386,-16,o),
(352,-16,q),
(290,-16,o),
(290,0,q),
(274,31,l)
);
},
{
closed = 1;
nodes = (
(146,86,o),
(188,82,q),
(217,82,o),
(230,92,q),
(258,111,o),
(258,234,q),
(206,227,o),
(176,205.5,q),
(146,184,o),
(146,158,q)
);
},
{
closed = 1;
nodes = (
(191,536,l),
(31,708,l),
(139,768,l),
(181,736,l),
(238,612,l),
(237,557,l)
);
}
);
width = 435;
}
);
unicode = 224;
},
{
category = Letter;
glyphname = aacute;
layers = (
{
layerId = "7144b595-13c7-4fae-a12f-f92b2e7cb6a6";
name = Fore;
shapes = (
{
closed = 1;
nodes = (
(222,-16,o),
(181.5,-16,q),
(141,-16,o),
(116,-10.5,q),
(91,-5,o),
(71,13.5,q),
(51,32,o),
(43,67,q),
(35,102,o),
(35,160,q),
(35,241,o),
(114,271,q),
(257,308,l),
(256,373,o),
(244,392,q),
(232,411,o),
(192,411,q),
(152,411,o),
(123,398,q),
(88,384,l),
(87,384,l),
(78,379,o),
(71,392,q),
(53,430,o),
(53,451.5,q),
(53,473,o),
(56.5,475.5,q),
(60,478,o),
(60,479,q),
(110,512,o),
(189.5,512,q),
(269,512,o),
(312,491,q),
(355,470,o),
(374.5,414.5,q),
(394,359,o),
(394,250,q),
(392,0,l),
(392,-6,o),
(390,-8,q),
(386,-16,o),
(352,-16,q),
(290,-16,o),
(290,0,q),
(274,31,l)
);
},
{
closed = 1;
nodes = (
(146,86,o),
(188,82,q),
(217,82,o),
(230,92,q),
(258,111,o),
(258,234,q),
(206,227,o),
(176,205.5,q),
(146,184,o),
(146,158,q)
);
},
{
closed = 1;
nodes = (
(174,557,l),
(173,612,l),
(230,736,l),
(272,768,l),
(380,708,l),
(220,536,l)
);
}
);
width = 435;
}
);
unicode = 225;
},
{
category = Letter;
glyphname = acircumflex;
layers = (
{
layerId = "7144b595-13c7-4fae-a12f-f92b2e7cb6a6";
name = Fore;
shapes = (
{
closed = 1;
nodes = (
(222,-16,o),
(181.5,-16,q),
(141,-16,o),
(116,-10.5,q),
(91,-5,o),
(71,13.5,q),
(51,32,o),
(43,67,q),
(35,102,o),
(35,160,q),
(35,241,o),
(114,271,q),
(257,308,l),
(256,373,o),
(244,392,q),
(232,411,o),
(192,411,q),
(152,411,o),
(123,398,q),
(88,384,l),
(87,384,l),
(78,379,o),
(71,392,q),
(53,430,o),
(53,451.5,q),
(53,473,o),
(56.5,475.5,q),
(60,478,o),
(60,479,q),
(110,512,o),
(189.5,512,q),
(269,512,o),
(312,491,q),
(355,470,o),
(374.5,414.5,q),
(394,359,o),
(394,250,q),
(392,0,l),
(392,-6,o),
(390,-8,q),
(386,-16,o),
(352,-16,q),
(290,-16,o),
(290,0,q),
(274,31,l)
);
},
{
closed = 1;
nodes = (
(146,86,o),
(188,82,q),
(217,82,o),
(230,92,q),
(258,111,o),
(258,234,q),
(206,227,o),
(176,205.5,q),
(146,184,o),
(146,158,q)
);
},
{
closed = 1;
nodes = (
(53,604,l),
(66,658,l),
(168,748,l),
(217,768,l),
(266,748,l),
(368,658,l),
(381,604,l),
(342,572,l),
(217,653,l),
(92,572,l)
);
}
);
width = 435;
}
);
unicode = 226;
},
{
category = Letter;
glyphname = atilde;
layers = (
{
layerId = "7144b595-13c7-4fae-a12f-f92b2e7cb6a6";
name = Fore;
shapes = (
{
closed = 1;
nodes = (
(222,-16,o),
(181.5,-16,q),
(141,-16,o),
(116,-10.5,q),
(91,-5,o),
(71,13.5,q),
(51,32,o),
(43,67,q),
(35,102,o),
(35,160,q),
(35,241,o),
(114,271,q),
(257,308,l),
(256,373,o),
(244,392,q),
(232,411,o),
(192,411,q),
(152,411,o),
(123,398,q),
(88,384,l),
(87,384,l),
(78,379,o),
(71,392,q),
(53,430,o),
(53,451.5,q),
(53,473,o),
(56.5,475.5,q),
(60,478,o),
(60,479,q),
(110,512,o),
(189.5,512,q),
(269,512,o),
(312,491,q),
(355,470,o),
(374.5,414.5,q),
(394,359,o),
(394,250,q),
(392,0,l),
(392,-6,o),
(390,-8,q),
(386,-16,o),
(352,-16,q),
(290,-16,o),
(290,0,q),
(274,31,l)
);
},
{
closed = 1;
nodes = (
(146,86,o),
(188,82,q),
(217,82,o),
(230,92,q),
(258,111,o),
(258,234,q),
(206,227,o),
(176,205.5,q),
(146,184,o),
(146,158,q)
);
},
{
closed = 1;
nodes = (
(381,628,o),
(342.5,628,q),
(304,628,o),
(231,618,q),
(158,608,o),
(108,608,q),
(58,608,o),
(44.5,617.5,q),
(31,627,o),
(31,660,q),
(56,711,l),
(131,711,o),
(196.5,720,q),
(262,729,o),
(315,729,q),
(368,729,o),
(386,718.5,q),
(404,708,o),
(404,673,q),
(388,628,l)
);
}
);
width = 435;
}
);
unicode = 227;
},
{
category = Letter;
glyphname = adieresis;
layers = (
{
layerId = "7144b595-13c7-4fae-a12f-f92b2e7cb6a6";
name = Fore;
shapes = (
{
closed = 1;
nodes = (
(222,-16,o),
(181.5,-16,q),
(141,-16,o),
(116,-10.5,q),
(91,-5,o),
(71,13.5,q),
(51,32,o),
(43,67,q),
(35,102,o),
(35,160,q),
(35,241,o),
(114,271,q),
(257,308,l),
(256,373,o),
(244,392,q),
(232,411,o),
(192,411,q),
(152,411,o),
(123,398,q),
(88,384,l),
(87,384,l),
(78,379,o),
(71,392,q),
(53,430,o),
(53,451.5,q),
(53,473,o),
(56.5,475.5,q),
(60,478,o),
(60,479,q),
(110,512,o),
(189.5,512,q),
(269,512,o),
(312,491,q),
(355,470,o),
(374.5,414.5,q),
(394,359,o),
(394,250,q),
(392,0,l),
(392,-6,o),
(390,-8,q),
(386,-16,o),
(352,-16,q),
(290,-16,o),
(290,0,q),
(274,31,l)
);
},
{
closed = 1;
nodes = (
(146,86,o),
(188,82,q),
(217,82,o),
(230,92,q),
(258,111,o),
(258,234,q),
(206,227,o),
(176,205.5,q),
(146,184,o),
(146,158,q)
);
},
{
closed = 1;
nodes = (
(29,768,o),
(101,768,q),
(173,768,o),
(173,696,q),
(173,624,o),
(101,624,q),
(29,624,o),
(29,696,q)
);
},
{
closed = 1;
nodes = (
(263,768,o),
(335,768,q),
(407,768,o),
(407,696,q),
(407,624,o),
(335,624,q),
(263,624,o),
(263,696,q)
);
}
);
width = 435;
}
);
unicode = 228;
},
{
category = Letter;
glyphname = aring;
layers = (
{
layerId = "7144b595-13c7-4fae-a12f-f92b2e7cb6a6";
name = Fore;
shapes = (
{
closed = 1;
nodes = (
(222,-16,o),
(181.5,-16,q),
(141,-16,o),
(116,-10.5,q),
(91,-5,o),
(71,13.5,q),
(51,32,o),
(43,67,q),
(35,102,o),
(35,160,q),
(35,241,o),
(114,271,q),
(257,308,l),
(256,373,o),
(244,392,q),
(232,411,o),
(192,411,q),
(152,411,o),
(123,398,q),
(88,384,l),
(87,384,l),
(78,379,o),
(71,392,q),
(53,430,o),
(53,451.5,q),
(53,473,o),
(56.5,475.5,q),
(60,478,o),
(60,479,q),
(110,512,o),
(189.5,512,q),
(269,512,o),
(312,491,q),
(355,470,o),
(374.5,414.5,q),
(394,359,o),
(394,250,q),
(392,0,l),
(392,-6,o),
(390,-8,q),
(386,-16,o),
(352,-16,q),
(290,-16,o),
(290,0,q),
(274,31,l)
);
},
{
closed = 1;
nodes = (
(146,86,o),
(188,82,q),
(217,82,o),
(230,92,q),
(258,111,o),
(258,234,q),
(206,227,o),
(176,205.5,q),
(146,184,o),
(146,158,q)
);
},
{
closed = 1;
nodes = (
(121,752,o),
(217,752,q),
(313,752,o),
(313,656,q),
(313,560,o),
(217,560,q),
(121,560,o),
(121,656,q)
);
},
{
closed = 1;
nodes = (
(182,621,o),
(217,621,q),
(252,621,o),
(252,656,q),
(252,691,o),
(217,691,q),
(182,691,o),
(182,656,q)
);
}
);
width = 435;
}
);
unicode = 229;
},
{
category = Letter;
glyphname = ae;
layers = (
{
layerId = "7144b595-13c7-4fae-a12f-f92b2e7cb6a6";
name = Fore;
shapes = (
{
closed = 1;
nodes = (
(339,-16,o),
(299,49,q),
(269,19,o),
(258,10,q),
(228,-16,o),
(186.5,-16,q),
(145,-16,o),
(120,-10.5,q),
(95,-5,o),
(75,13.5,q),
(55,32,o),
(47,67,q),
(39,102,o),
(39,160,q),
(39,241,o),
(118,271,q),
(261,308,l),
(260,373,o),
(248,392,q),
(236,411,o),
(196,411,q),
(156,411,o),
(127,398,q),
(87,398,l),
(63,478,l),
(108,512,o),
(196,512,q),
(284,512,o),
(327,484,q),
(366,512,o),
(446.5,512,q),
(527,512,o),
(565.5,491,q),
(604,470,o),
(622,413,q),
(640,356,o),
(640,251,q),
(640,245,o),
(640,239,q),
(640,233,o),
(616.5,228,q),
(593,223,o),
(560,223,q),
(406,223,l),
(408,106,o),
(424,90,q),
(432,82,o),
(452,82,q),
(603,82,o),
(634,96,q),
(641,98,o),
(645.5,88,q),
(650,78,o),
(650,41,q),
(650,4,o),
(634,0,q),
(593,-16,o),
(452,-16,q)
);
},
{
closed = 1;
nodes = (
(150,86,o),
(192,82,q),
(221,82,o),
(234,92,q),
(262,111,o),
(262,234,q),
(210,227,o),
(180,205.5,q),
(150,184,o),
(150,158,q)
);
},
{
closed = 1;
nodes = (
(406,303,l),
(507,303,l),
(503,419,o),
(484,419,q),
(450,419,o),
(428,409,q),
(406,399,o),
(406,381,q)
);
}
);
width = 682;
}
);
unicode = 230;
},
{
category = Letter;
glyphname = ccedilla;
layers = (
{
layerId = "7144b595-13c7-4fae-a12f-f92b2e7cb6a6";
name = Fore;
shapes = (
{
closed = 1;
nodes = (
(360,474,o),
(360,459.5,q),
(360,445,o),
(352,421,q),
(339,378,o),
(324,384,q),
(323,384,l),
(288,398,l),
(259,411,o),
(217.5,411,q),
(176,411,o),
(164.5,377,q),
(153,343,o),
(153,246,q),
(153,149,o),
(167.5,115.5,q),
(182,82,o),
(223,82,q),
(282,82,o),
(315,89,q),
(348,96,o),
(349,96,q),
(356,98,o),
(360.5,88,q),
(365,78,o),
(365,41,q),
(365,4,o),
(349,0,q),
(294,-15,o),
(233,-16,q),
(228,-47,l),
(329,-66,o),
(329,-153,q),
(329,-168,o),
(326,-186,q),
(307,-286,o),
(221,-286,q),
(205,-286,o),
(187,-283,q),
(200,-209,l),
(206,-210,o),
(211,-210,q),
(244,-210,o),
(251,-173,q),
(252,-166,o),
(252,-160,q),
(252,-128,o),
(215,-122,q),
(158,-112,l),
(175,-13,l),
(86,-3,o),
(51.5,56,q),
(17,115,o),
(17,237,q),
(17,359,o),
(36.5,414.5,q),
(56,470,o),
(99,491,q),
(142,512,o),
(224,512,q),
(306,512,o),
(351,478,q),
(352,478,l)
);
}
);
width = 380;
}
);
unicode = 231;
},
{
category = Letter;
glyphname = egrave;
layers = (
{
layerId = "7144b595-13c7-4fae-a12f-f92b2e7cb6a6";
name = Fore;
shapes = (
{
closed = 1;
nodes = (
(120,-16,o),
(78.5,42,q),
(37,100,o),
(37,250,q),
(37,358,o),
(56,414.5,q),
(75,471,o),
(113.5,491.5,q),
(152,512,o),
(227,512,q),
(302,512,o),
(340.5,491,q),
(379,470,o),
(397,413,q),
(415,356,o),
(415,251,q),
(415,245,o),
(415,239,q),
(415,233,o),
(391.5,228,q),
(368,223,o),
(335,223,q),
(181,223,l),
(183,106,o),
(198,90,q),
(207,82,o),
(227,82,q),
(358,82,o),
(406,95,q),
(408,96,o),
(409,96,q),
(416,98,o),
(420.5,88,q),
(425,78,o),
(425,41,q),
(425,4,o),
(409,0,q),
(368,-16,o),
(227,-16,q)
);
},
{
closed = 1;
nodes = (
(181,303,l),
(282,303,l),
(278,419,o),
(259,419,q),
(225,419,o),
(203,409,q),
(181,399,o),
(181,381,q)
);
},
{
closed = 1;
nodes = (
(232,536,l),
(72,708,l),
(180,768,l),
(222,736,l),
(279,612,l),
(278,557,l)
);
}
);
width = 454;
}
);
unicode = 232;
},
{
category = Letter;
glyphname = eacute;
layers = (
{
layerId = "7144b595-13c7-4fae-a12f-f92b2e7cb6a6";
name = Fore;
shapes = (
{
closed = 1;
nodes = (
(120,-16,o),
(78.5,42,q),
(37,100,o),
(37,250,q),
(37,358,o),
(56,414.5,q),
(75,471,o),
(113.5,491.5,q),
(152,512,o),
(227,512,q),
(302,512,o),
(340.5,491,q),
(379,470,o),
(397,413,q),
(415,356,o),
(415,251,q),
(415,245,o),
(415,239,q),
(415,233,o),
(391.5,228,q),
(368,223,o),
(335,223,q),
(181,223,l),
(183,106,o),
(198,90,q),
(207,82,o),
(227,82,q),
(358,82,o),
(406,95,q),
(408,96,o),
(409,96,q),
(416,98,o),
(420.5,88,q),
(425,78,o),
(425,41,q),
(425,4,o),
(409,0,q),
(368,-16,o),
(227,-16,q)
);
},
{
closed = 1;
nodes = (
(181,303,l),
(282,303,l),
(278,419,o),
(259,419,q),
(225,419,o),
(203,409,q),
(181,399,o),
(181,381,q)
);
},
{
closed = 1;
nodes = (
(187,557,l),
(186,612,l),
(243,736,l),
(285,768,l),
(393,708,l),
(233,536,l)
);
}
);
width = 454;
}
);
unicode = 233;
},
{
category = Letter;
glyphname = ecircumflex;
layers = (
{
layerId = "7144b595-13c7-4fae-a12f-f92b2e7cb6a6";
name = Fore;
shapes = (
{
closed = 1;
nodes = (
(120,-16,o),
(78.5,42,q),
(37,100,o),
(37,250,q),
(37,358,o),
(56,414.5,q),
(75,471,o),
(113.5,491.5,q),
(152,512,o),
(227,512,q),
(302,512,o),
(340.5,491,q),
(379,470,o),
(397,413,q),
(415,356,o),
(415,251,q),
(415,245,o),
(415,239,q),
(415,233,o),
(391.5,228,q),
(368,223,o),
(335,223,q),
(181,223,l),
(183,106,o),
(198,90,q),
(207,82,o),
(227,82,q),
(358,82,o),
(406,95,q),
(408,96,o),
(409,96,q),
(416,98,o),
(420.5,88,q),
(425,78,o),
(425,41,q),
(425,4,o),
(409,0,q),
(368,-16,o),
(227,-16,q)
);
},
{
closed = 1;
nodes = (
(181,303,l),
(282,303,l),
(278,419,o),
(259,419,q),
(225,419,o),
(203,409,q),
(181,399,o),
(181,381,q)
);
},
{
closed = 1;
nodes = (
(63,604,l),
(76,658,l),
(178,748,l),
(227,768,l),
(276,748,l),
(378,658,l),
(391,604,l),
(352,572,l),
(227,653,l),
(102,572,l)
);
}
);
width = 454;
}
);
unicode = 234;
},
{
category = Letter;
glyphname = edieresis;
layers = (
{
layerId = "7144b595-13c7-4fae-a12f-f92b2e7cb6a6";
name = Fore;
shapes = (
{
closed = 1;
nodes = (
(120,-16,o),
(78.5,42,q),
(37,100,o),
(37,250,q),
(37,358,o),
(56,414.5,q),
(75,471,o),
(113.5,491.5,q),
(152,512,o),
(227,512,q),
(302,512,o),
(340.5,491,q),
(379,470,o),
(397,413,q),
(415,356,o),
(415,251,q),
(415,245,o),
(415,239,q),
(415,233,o),
(391.5,228,q),
(368,223,o),
(335,223,q),
(181,223,l),
(183,106,o),
(198,90,q),
(207,82,o),
(227,82,q),
(358,82,o),
(406,95,q),
(408,96,o),
(409,96,q),
(416,98,o),
(420.5,88,q),
(425,78,o),
(425,41,q),
(425,4,o),
(409,0,q),
(368,-16,o),
(227,-16,q)
);
},
{
closed = 1;
nodes = (
(181,303,l),
(282,303,l),
(278,419,o),
(259,419,q),
(225,419,o),
(203,409,q),
(181,399,o),
(181,381,q)
);
},
{
closed = 1;
nodes = (
(38,768,o),
(110,768,q),
(182,768,o),
(182,696,q),
(182,624,o),
(110,624,q),
(38,624,o),
(38,696,q)
);
},
{
closed = 1;
nodes = (
(272,768,o),
(344,768,q),
(416,768,o),
(416,696,q),
(416,624,o),
(344,624,q),
(272,624,o),
(272,696,q)
);
}
);
width = 454;
}
);
unicode = 235;
},
{
category = Letter;
glyphname = igrave;
layers = (
{
layerId = "7144b595-13c7-4fae-a12f-f92b2e7cb6a6";
name = Fore;
shapes = (
{
closed = 1;
nodes = (
(47,496,l),
(47,512,o),
(83,512,q),
(119,512,o),
(151,507,q),
(183,502,o),
(183,496,q),
(183,0,l),
(183,-6,o),
(182,-8,q),
(177,-16,o),
(144,-16,q),
(111,-16,o),
(79,-11,q),
(47,-6,o),
(47,0,q)
);
},
{
closed = 1;
nodes = (
(94,536,l),
(-66,708,l),
(42,768,l),
(84,736,l),
(141,612,l),
(140,557,l)
);
}
);
width = 228;
}
);
unicode = 236;
},
{
category = Letter;
glyphname = iacute;
layers = (
{
layerId = "7144b595-13c7-4fae-a12f-f92b2e7cb6a6";
name = Fore;
shapes = (
{
closed = 1;
nodes = (
(47,496,l),
(47,512,o),
(83,512,q),
(119,512,o),
(151,507,q),
(183,502,o),
(183,496,q),
(183,0,l),
(183,-6,o),
(182,-8,q),
(177,-16,o),
(144,-16,q),
(111,-16,o),
(79,-11,q),
(47,-6,o),
(47,0,q)
);
},
{
closed = 1;
nodes = (
(85,557,l),
(84,612,l),
(141,736,l),
(183,768,l),
(291,708,l),
(131,536,l)
);
}
);
width = 228;
}
);
unicode = 237;
},
{
category = Letter;
glyphname = icircumflex;
layers = (
{
layerId = "7144b595-13c7-4fae-a12f-f92b2e7cb6a6";
name = Fore;
shapes = (
{
closed = 1;
nodes = (
(47,496,l),
(47,512,o),
(83,512,q),
(119,512,o),
(151,507,q),
(183,502,o),
(183,496,q),
(183,0,l),
(183,-6,o),
(182,-8,q),
(177,-16,o),
(144,-16,q),
(111,-16,o),
(79,-11,q),
(47,-6,o),
(47,0,q)
);
},
{
closed = 1;
nodes = (
(-50,604,l),
(-37,658,l),
(65,748,l),
(114,768,l),
(163,748,l),
(265,658,l),
(278,604,l),
(239,572,l),
(114,653,l),
(-11,572,l)
);
}
);
width = 228;
}
);
unicode = 238;
},
{
category = Letter;
glyphname = idieresis;
layers = (
{
layerId = "7144b595-13c7-4fae-a12f-f92b2e7cb6a6";
name = Fore;
shapes = (
{
closed = 1;
nodes = (
(47,496,l),
(47,512,o),
(83,512,q),
(119,512,o),
(151,507,q),
(183,502,o),
(183,496,q),
(183,0,l),
(183,-6,o),
(182,-8,q),
(177,-16,o),
(144,-16,q),
(111,-16,o),
(79,-11,q),
(47,-6,o),
(47,0,q)
);
},
{
closed = 1;
nodes = (
(-75,768,o),
(-3,768,q),
(69,768,o),
(69,696,q),
(69,624,o),
(-3,624,q),
(-75,624,o),
(-75,696,q)
);
},
{
closed = 1;
nodes = (
(159,768,o),
(231,768,q),
(303,768,o),
(303,696,q),
(303,624,o),
(231,624,q),
(159,624,o),
(159,696,q)
);
}
);
width = 228;
}
);
unicode = 239;
},
{
category = Letter;
glyphname = eth;
layers = (
{
layerId = "7144b595-13c7-4fae-a12f-f92b2e7cb6a6";
name = Fore;
shapes = (
{
closed = 1;
nodes = (
(88,546,o),
(79.5,555,q),
(71,564,o),
(65,586,q),
(76,642,l),
(133,657,o),
(186,678,q),
(163,717,l),
(171,737,l),
(281,768,l),
(299,726,l),
(363,753,o),
(400.5,753,q),
(438,753,o),
(449,711,q),
(446,664,l),
(400,652,o),
(342,630,q),
(429,426,o),
(429,264.5,q),
(429,103,o),
(385.5,43.5,q),
(342,-16,o),
(229,-16,q),
(116,-16,o),
(72.5,43.5,q),
(29,103,o),
(29,254,q),
(29,363,o),
(48,419.5,q),
(67,476,o),
(108.5,497,q),
(150,518,o),
(229,518,q),
(253,508,l),
(250,532,o),
(230,581,q),
(144,546,o),
(104,546,q)
);
},
{
closed = 1;
nodes = (
(289,355,o),
(275.5,380,q),
(262,405,o),
(204,405,q),
(173,405,o),
(173,254,q),
(173,149,o),
(186.5,124,q),
(200,99,o),
(258,99,q),
(289,99,o),
(289,254,q)
);
}
);
width = 482;
}
);
unicode = 240;
},
{
category = Letter;
glyphname = ntilde;
layers = (
{
layerId = "7144b595-13c7-4fae-a12f-f92b2e7cb6a6";
name = Fore;
shapes = (
{
closed = 1;
nodes = (
(376,512,o),
(410.5,466,q),
(445,420,o),
(445,304,q),
(445,0,l),
(445,-6,o),
(444,-8,q),
(439,-16,o),
(405.5,-16,q),
(372,-16,o),
(337,-11,q),
(302,-6,o),
(302,0,q),
(301,304,l),
(301,416,o),
(285,416,q),
(249,416,o),
(189,380,q),
(189,0,l),
(189,-6,o),
(188,-8,q),
(183,-16,o),
(149.5,-16,q),
(116,-16,o),
(80.5,-11,q),
(45,-6,o),
(45,0,q),
(45,496,l),
(45,512,o),
(85,512,q),
(148,512,o),
(157,496,q),
(157,494,o),
(158,494,q),
(177,456,l),
(261,512,o),
(302,512,q)
);
},
{
closed = 1;
nodes = (
(407,628,o),
(368.5,628,q),
(330,628,o),
(257,618,q),
(184,608,o),
(134,608,q),
(84,608,o),
(70.5,617.5,q),
(57,627,o),
(57,660,q),
(82,711,l),
(157,711,o),
(222.5,720,q),
(288,729,o),
(341,729,q),
(394,729,o),
(412,718.5,q),
(430,708,o),
(430,673,q),
(414,628,l)
);
}
);
width = 488;
}
);
unicode = 241;
},
{
category = Letter;
glyphname = ograve;
layers = (
{
layerId = "7144b595-13c7-4fae-a12f-f92b2e7cb6a6";
name = Fore;
shapes = (
{
closed = 1;
nodes = (
(37,359,o),
(56,415,q),
(75,471,o),
(116,491.5,q),
(157,512,o),
(237,512,q),
(317,512,o),
(358,491.5,q),
(399,471,o),
(418,415,q),
(437,359,o),
(437,250,q),
(437,100,o),
(394,42,q),
(351,-16,o),
(237,-16,q),
(123,-16,o),
(80,42,q),
(37,100,o),
(37,250,q)
);
},
{
closed = 1;
nodes = (
(173,82,o),
(205,82,q),
(249,82,o),
(270,96,q),
(281,104,o),
(285,125,q),
(293,167,o),
(293,250,q),
(293,416,o),
(261,416,q),
(201,416,o),
(187,388.5,q),
(173,361,o),
(173,250,q)
);
},
{
closed = 1;
nodes = (
(219,536,l),
(59,708,l),
(167,768,l),
(209,736,l),
(266,612,l),
(265,557,l)
);
}
);
width = 474;
}
);
unicode = 242;
},
{
category = Letter;
glyphname = oacute;
layers = (
{
layerId = "7144b595-13c7-4fae-a12f-f92b2e7cb6a6";
name = Fore;
shapes = (
{
closed = 1;
nodes = (
(37,359,o),
(56,415,q),
(75,471,o),
(116,491.5,q),
(157,512,o),
(237,512,q),
(317,512,o),
(358,491.5,q),
(399,471,o),
(418,415,q),
(437,359,o),
(437,250,q),
(437,100,o),
(394,42,q),
(351,-16,o),
(237,-16,q),
(123,-16,o),
(80,42,q),
(37,100,o),
(37,250,q)
);
},
{
closed = 1;
nodes = (
(173,82,o),
(205,82,q),
(249,82,o),
(270,96,q),
(281,104,o),
(285,125,q),
(293,167,o),
(293,250,q),
(293,416,o),
(261,416,q),
(201,416,o),
(187,388.5,q),
(173,361,o),
(173,250,q)
);
},
{
closed = 1;
nodes = (
(210,557,l),
(209,612,l),
(266,736,l),
(308,768,l),
(416,708,l),
(256,536,l)
);
}
);
width = 474;
}
);
unicode = 243;
},
{
category = Letter;
glyphname = ocircumflex;
layers = (
{
layerId = "7144b595-13c7-4fae-a12f-f92b2e7cb6a6";
name = Fore;
shapes = (
{
closed = 1;
nodes = (
(37,359,o),
(56,415,q),
(75,471,o),
(116,491.5,q),
(157,512,o),
(237,512,q),
(317,512,o),
(358,491.5,q),
(399,471,o),
(418,415,q),
(437,359,o),
(437,250,q),
(437,100,o),
(394,42,q),
(351,-16,o),
(237,-16,q),
(123,-16,o),
(80,42,q),
(37,100,o),
(37,250,q)
);
},
{
closed = 1;
nodes = (
(173,82,o),
(205,82,q),
(249,82,o),
(270,96,q),
(281,104,o),
(285,125,q),
(293,167,o),
(293,250,q),
(293,416,o),
(261,416,q),
(201,416,o),
(187,388.5,q),
(173,361,o),
(173,250,q)
);
},
{
closed = 1;
nodes = (
(73,604,l),
(86,658,l),
(188,748,l),
(237,768,l),
(286,748,l),
(388,658,l),
(401,604,l),
(362,572,l),
(237,653,l),
(112,572,l)
);
}
);
width = 474;
}
);
unicode = 244;
},
{
category = Letter;
glyphname = otilde;
layers = (
{
layerId = "7144b595-13c7-4fae-a12f-f92b2e7cb6a6";
name = Fore;
shapes = (
{
closed = 1;
nodes = (
(37,359,o),
(56,415,q),
(75,471,o),
(116,491.5,q),
(157,512,o),
(237,512,q),
(317,512,o),
(358,491.5,q),
(399,471,o),
(418,415,q),
(437,359,o),
(437,250,q),
(437,100,o),
(394,42,q),
(351,-16,o),
(237,-16,q),
(123,-16,o),
(80,42,q),
(37,100,o),
(37,250,q)
);
},
{
closed = 1;
nodes = (
(173,82,o),
(205,82,q),
(249,82,o),
(270,96,q),
(281,104,o),
(285,125,q),
(293,167,o),
(293,250,q),
(293,416,o),
(261,416,q),
(201,416,o),
(187,388.5,q),
(173,361,o),
(173,250,q)
);
},
{
closed = 1;
nodes = (
(400,628,o),
(361.5,628,q),
(323,628,o),
(250,618,q),
(177,608,o),
(127,608,q),
(77,608,o),
(63.5,617.5,q),
(50,627,o),
(50,660,q),
(75,711,l),
(150,711,o),
(215.5,720,q),
(281,729,o),
(334,729,q),
(387,729,o),
(405,718.5,q),
(423,708,o),
(423,673,q),
(407,628,l)
);
}
);
width = 474;
}
);
unicode = 245;
},
{
category = Letter;
glyphname = odieresis;
layers = (
{
layerId = "7144b595-13c7-4fae-a12f-f92b2e7cb6a6";
name = Fore;
shapes = (
{
closed = 1;
nodes = (
(37,359,o),
(56,415,q),
(75,471,o),
(116,491.5,q),
(157,512,o),
(237,512,q),
(317,512,o),
(358,491.5,q),
(399,471,o),
(418,415,q),
(437,359,o),
(437,250,q),
(437,100,o),
(394,42,q),
(351,-16,o),
(237,-16,q),
(123,-16,o),
(80,42,q),
(37,100,o),
(37,250,q)
);
},
{
closed = 1;
nodes = (
(173,82,o),
(205,82,q),
(249,82,o),
(270,96,q),
(281,104,o),
(285,125,q),
(293,167,o),
(293,250,q),
(293,416,o),
(261,416,q),
(201,416,o),
(187,388.5,q),
(173,361,o),
(173,250,q)
);
},
{
closed = 1;
nodes = (
(48,768,o),
(120,768,q),
(192,768,o),
(192,696,q),
(192,624,o),
(120,624,q),
(48,624,o),
(48,696,q)
);
},
{
closed = 1;
nodes = (
(282,768,o),
(354,768,q),
(426,768,o),
(426,696,q),
(426,624,o),
(354,624,q),
(282,624,o),
(282,696,q)
);
}
);
width = 474;
}
);
unicode = 246;
},
{
category = Letter;
glyphname = divide;
layers = (
{
layerId = "7144b595-13c7-4fae-a12f-f92b2e7cb6a6";
name = Fore;
shapes = (
{
closed = 1;
nodes = (
(117,259,o),
(189,259,q),
(261,259,o),
(261,187,q),
(261,115,o),
(189,115,q),
(117,115,o),
(117,187,q)
);
},
{
closed = 1;
nodes = (
(117,633,o),
(189,633,q),
(261,633,o),
(261,561,q),
(261,489,o),
(189,489,q),
(117,489,o),
(117,561,q)
);
},
{
closed = 1;
nodes = (
(15,433,l),
(347,433,l),
(363,417,l),
(363,326,l),
(346,309,l),
(15,309,l)
);
}
);
width = 378;
}
);
unicode = 247;
},
{
category = Letter;
glyphname = oslash;
layers = (
{
layerId = "7144b595-13c7-4fae-a12f-f92b2e7cb6a6";
name = Fore;
shapes = (
{
closed = 1;
nodes = (
(23,79,o),
(23,240.5,q),
(23,402,o),
(61.5,456,q),
(100,510,o),
(204,513,q),
(256,720,l),
(361,720,l),
(361,613,l),
(333,497,l),
(382,476,o),
(402.5,419.5,q),
(423,363,o),
(423,250,q),
(423,100,o),
(380,42,q),
(337,-16,o),
(223,-16,q),
(212,-16,l),
(182,-146,l),
(46,-146,l),
(46,-114,l),
(81,25,l)
);
},
{
closed = 1;
nodes = (
(159,82,o),
(191,82,q),
(235,82,o),
(256,96,q),
(267,104,o),
(271,125,q),
(279,167,o),
(279,250,q),
(279,418,o),
(247,418,q),
(187,418,o),
(173,390,q),
(159,362,o),
(159,250,q)
);
}
);
width = 446;
}
);
unicode = 248;
},
{
category = Letter;
glyphname = ugrave;
layers = (
{
layerId = "7144b595-13c7-4fae-a12f-f92b2e7cb6a6";
name = Fore;
shapes = (
{
closed = 1;
nodes = (
(111,-16,o),
(76.5,30,q),
(42,76,o),
(42,192,q),
(42,496,l),
(42,512,o),
(78.5,512,q),
(115,512,o),
(150,507,q),
(185,502,o),
(185,496,q),
(186,192,l),
(186,80,o),
(202,80,q),
(238,80,o),
(298,116,q),
(298,496,l),
(298,512,o),
(334.5,512,q),
(371,512,o),
(406.5,507,q),
(442,502,o),
(442,496,q),
(442,0,l),
(442,-6,o),
(440,-8,q),
(436,-16,o),
(388.5,-16,q),
(341,-16,o),
(330,0,q),
(309,31,l),
(239,-16,o),
(185,-16,q)
);
},
{
closed = 1;
nodes = (
(217,536,l),
(57,708,l),
(165,768,l),
(207,736,l),
(264,612,l),
(263,557,l)
);
}
);
width = 487;
}
);
unicode = 249;
},
{
category = Letter;
glyphname = uacute;
layers = (
{
layerId = "7144b595-13c7-4fae-a12f-f92b2e7cb6a6";
name = Fore;
shapes = (
{
closed = 1;
nodes = (
(111,-16,o),
(76.5,30,q),
(42,76,o),
(42,192,q),
(42,496,l),
(42,512,o),
(78.5,512,q),
(115,512,o),
(150,507,q),
(185,502,o),
(185,496,q),
(186,192,l),
(186,80,o),
(202,80,q),
(238,80,o),
(298,116,q),
(298,496,l),
(298,512,o),
(334.5,512,q),
(371,512,o),
(406.5,507,q),
(442,502,o),
(442,496,q),
(442,0,l),
(442,-6,o),
(440,-8,q),
(436,-16,o),
(388.5,-16,q),
(341,-16,o),
(330,0,q),
(309,31,l),
(239,-16,o),
(185,-16,q)
);
},
{
closed = 1;
nodes = (
(222,557,l),
(221,612,l),
(278,736,l),
(320,768,l),
(428,708,l),
(268,536,l)
);
}
);
width = 487;
}
);
unicode = 250;
},
{
category = Letter;
glyphname = ucircumflex;
layers = (
{
layerId = "7144b595-13c7-4fae-a12f-f92b2e7cb6a6";
name = Fore;
shapes = (
{
closed = 1;
nodes = (
(111,-16,o),
(76.5,30,q),
(42,76,o),
(42,192,q),
(42,496,l),
(42,512,o),
(78.5,512,q),
(115,512,o),
(150,507,q),
(185,502,o),
(185,496,q),
(186,192,l),
(186,80,o),
(202,80,q),
(238,80,o),
(298,116,q),
(298,496,l),
(298,512,o),
(334.5,512,q),
(371,512,o),
(406.5,507,q),
(442,502,o),
(442,496,q),
(442,0,l),
(442,-6,o),
(440,-8,q),
(436,-16,o),
(388.5,-16,q),
(341,-16,o),
(330,0,q),
(309,31,l),
(239,-16,o),
(185,-16,q)
);
},
{
closed = 1;
nodes = (
(79,604,l),
(92,658,l),
(194,748,l),
(243,768,l),
(292,748,l),
(394,658,l),
(407,604,l),
(368,572,l),
(243,653,l),
(118,572,l)
);
}
);
width = 487;
}
);
unicode = 251;
},
{
category = Letter;
glyphname = udieresis;
layers = (
{
layerId = "7144b595-13c7-4fae-a12f-f92b2e7cb6a6";
name = Fore;
shapes = (
{
closed = 1;
nodes = (
(111,-16,o),
(76.5,30,q),
(42,76,o),
(42,192,q),
(42,496,l),
(42,512,o),
(78.5,512,q),
(115,512,o),
(150,507,q),
(185,502,o),
(185,496,q),
(186,192,l),
(186,80,o),
(202,80,q),
(238,80,o),
(298,116,q),
(298,496,l),
(298,512,o),
(334.5,512,q),
(371,512,o),
(406.5,507,q),
(442,502,o),
(442,496,q),
(442,0,l),
(442,-6,o),
(440,-8,q),
(436,-16,o),
(388.5,-16,q),
(341,-16,o),
(330,0,q),
(309,31,l),
(239,-16,o),
(185,-16,q)
);
},
{
closed = 1;
nodes = (
(288,768,o),
(360,768,q),
(432,768,o),
(432,696,q),
(432,624,o),
(360,624,q),
(288,624,o),
(288,696,q)
);
},
{
closed = 1;
nodes = (
(54,768,o),
(126,768,q),
(198,768,o),
(198,696,q),
(198,624,o),
(126,624,q),
(54,624,o),
(54,696,q)
);
}
);
width = 487;
}
);
unicode = 252;
},
{
category = Letter;
glyphname = yacute;
layers = (
{
layerId = "7144b595-13c7-4fae-a12f-f92b2e7cb6a6";
name = Fore;
shapes = (
{
closed = 1;
nodes = (
(21,512,o),
(57.5,512,q),
(94,512,o),
(125.5,507,q),
(157,502,o),
(158,496,q),
(247,154,l),
(325,496,l),
(329,512,o),
(357,512,q),
(412,512,o),
(430,506,q),
(448,500,o),
(448,497,q),
(248,-224,l),
(244,-240,o),
(216,-240,q),
(188,-240,o),
(170,-238,q),
(131,-233,o),
(133,-224,q),
(133,-221,o),
(134,-219,q),
(185,0,l),
(22,494,l),
(22,496,l),
(21,498,o),
(21,499,q)
);
},
{
closed = 1;
nodes = (
(214,557,l),
(213,612,l),
(270,736,l),
(312,768,l),
(420,708,l),
(260,536,l)
);
}
);
width = 460;
}
);
unicode = 253;
},
{
category = Letter;
glyphname = thorn;
layers = (
{
layerId = "7144b595-13c7-4fae-a12f-f92b2e7cb6a6";
name = Fore;
shapes = (
{
closed = 1;
nodes = (
(348,512,o),
(391.5,458.5,q),
(435,405,o),
(435,255,q),
(435,105,o),
(400.5,44.5,q),
(366,-16,o),
(292,-16,q),
(265,-16,o),
(180,-5,q),
(180,-223,l),
(180,-229,o),
(178,-232,q),
(174,-239,o),
(140.5,-239,q),
(107,-239,o),
(76,-234,q),
(45,-229,o),
(45,-222,q),
(45,752,l),
(45,768,o),
(80.5,768,q),
(116,768,o),
(139,763.5,q),
(162,759,o),
(162,752,q),
(175,512,l),
(227,512,l)
);
},
{
closed = 1;
nodes = (
(180,416,l),
(180,80,l),
(275,80,l),
(286,80,o),
(288.5,122.5,q),
(291,165,o),
(291,260,q),
(291,355,o),
(277.5,385.5,q),
(264,416,o),
(227,416,q)
);
}
);
width = 442;
}
);
unicode = 254;
},
{
category = Letter;
glyphname = ydieresis;
layers = (
{
layerId = "7144b595-13c7-4fae-a12f-f92b2e7cb6a6";
name = Fore;
shapes = (
{
closed = 1;
nodes = (
(21,512,o),
(57.5,512,q),
(94,512,o),
(125.5,507,q),
(157,502,o),
(158,496,q),
(247,154,l),
(325,496,l),
(329,512,o),
(357,512,q),
(412,512,o),
(430,506,q),
(448,500,o),
(448,497,q),
(248,-224,l),
(244,-240,o),
(216,-240,q),
(188,-240,o),
(170,-238,q),
(131,-233,o),
(133,-224,q),
(133,-221,o),
(134,-219,q),
(185,0,l),
(22,494,l),
(22,496,l),
(21,498,o),
(21,499,q)
);
},
{
closed = 1;
nodes = (
(41,768,o),
(113,768,q),
(185,768,o),
(185,696,q),
(185,624,o),
(113,624,q),
(41,624,o),
(41,696,q)
);
},
{
closed = 1;
nodes = (
(275,768,o),
(347,768,q),
(419,768,o),
(419,696,q),
(419,624,o),
(347,624,q),
(275,624,o),
(275,696,q)
);
}
);
width = 460;
}
);
unicode = 255;
},
{
category = Letter;
glyphname = dotlessi;
layers = (
{
layerId = "7144b595-13c7-4fae-a12f-f92b2e7cb6a6";
name = Fore;
shapes = (
{
closed = 1;
nodes = (
(47,496,l),
(47,512,o),
(83,512,q),
(119,512,o),
(151,507,q),
(183,502,o),
(183,496,q),
(183,0,l),
(183,-6,o),
(182,-8,q),
(177,-16,o),
(144,-16,q),
(111,-16,o),
(79,-11,q),
(47,-6,o),
(47,0,q)
);
}
);
width = 228;
}
);
unicode = 305;
},
{
category = Letter;
glyphname = Lslash;
layers = (
{
layerId = "7144b595-13c7-4fae-a12f-f92b2e7cb6a6";
name = Fore;
shapes = (
{
closed = 1;
nodes = (
(146,753,o),
(156.5,760.5,q),
(167,768,o),
(197,768,q),
(269,768,o),
(270,732,q),
(284,451,l),
(375,476,l),
(395,464,l),
(418,376,l),
(406,356,l),
(285,323,l),
(286,121,l),
(480,121,l),
(529,121,o),
(529,85,q),
(529,20,o),
(510,7,q),
(500,0,o),
(484,0,q),
(162,0,l),
(146,16,l),
(146,286,l),
(50,260,l),
(18,380,l),
(146,414,l),
(146,731,l)
);
}
);
width = 542;
}
);
unicode = 321;
},
{
category = Letter;
glyphname = lslash;
layers = (
{
layerId = "7144b595-13c7-4fae-a12f-f92b2e7cb6a6";
name = Fore;
shapes = (
{
closed = 1;
nodes = (
(292,-6,o),
(290,-8,q),
(286,-16,o),
(253,-16,q),
(220,-16,o),
(188.5,-11,q),
(157,-6,o),
(157,0,q),
(157,289,l),
(54,261,l),
(38,277,l),
(11,378,l),
(157,417,l),
(157,752,l),
(157,768,o),
(192,768,q),
(227,768,o),
(250,763.5,q),
(273,759,o),
(274,752,q),
(291,453,l),
(398,482,l),
(417,471,l),
(445,367,l),
(292,325,l),
(292,0,l)
);
}
);
width = 454;
}
);
unicode = 322;
},
{
category = Letter;
glyphname = OE;
layers = (
{
layerId = "7144b595-13c7-4fae-a12f-f92b2e7cb6a6";
name = Fore;
shapes = (
{
closed = 1;
nodes = (
(37,530,o),
(62,611,q),
(87,692,o),
(141,722,q),
(195,752,o),
(299,752,q),
(772,752,l),
(815,751,o),
(815,720,q),
(814,693,o),
(812,677.5,q),
(810,662,o),
(799.5,647,q),
(789,632,o),
(769,632,q),
(529,632,l),
(552,570,o),
(558,455,q),
(750,455,l),
(790,455,o),
(790,419,q),
(790,370,o),
(784,352,q),
(778,334,o),
(753,334,q),
(559,334,l),
(556,196,o),
(530,121,q),
(788,121,l),
(812,120,o),
(821,111.5,q),
(830,103,o),
(830,86,q),
(830,37,o),
(821,18.5,q),
(812,0,o),
(785,0,q),
(433,0,l),
(362,-16,o),
(299,-16,q),
(150,-16,o),
(93.5,68,q),
(37,152,o),
(37,371,q)
);
},
{
closed = 1;
nodes = (
(196,443,o),
(196,351,q),
(196,259,o),
(202,197,q),
(208,135,o),
(218,115.5,q),
(228,96,o),
(245,96,q),
(333,96,o),
(360,114,q),
(370,121,o),
(379.5,137,q),
(389,153,o),
(393,170,q),
(397,187,o),
(400,220,q),
(404,263,o),
(404,374.5,q),
(404,486,o),
(398.5,550.5,q),
(393,615,o),
(382.5,638.5,q),
(372,662,o),
(355,662,q),
(315,662,o),
(290.5,658.5,q),
(266,655,o),
(247,641.5,q),
(228,628,o),
(219,611.5,q),
(210,595,o),
(204,557.5,q),
(198,520,o),
(197,481.5,q)
);
}
);
width = 813;
}
);
unicode = 338;
},
{
category = Letter;
glyphname = oe;
layers = (
{
layerId = "7144b595-13c7-4fae-a12f-f92b2e7cb6a6";
name = Fore;
shapes = (
{
closed = 1;
nodes = (
(408,-16,o),
(366,13,q),
(322,-16,o),
(240,-16,q),
(126,-16,o),
(83,42,q),
(40,100,o),
(40,250,q),
(40,359,o),
(59,415,q),
(78,471,o),
(119,491.5,q),
(160,512,o),
(242,512,q),
(324,512,o),
(365,488,q),
(404,512,o),
(482,512,q),
(560,512,o),
(598.5,491,q),
(637,470,o),
(655,413,q),
(673,356,o),
(673,251,q),
(673,245,o),
(673,239,q),
(673,233,o),
(649.5,228,q),
(626,223,o),
(593,223,q),
(440,223,l),
(439,220,l),
(441,106,o),
(456,90,q),
(465,82,o),
(485,82,q),
(616,82,o),
(664,95,q),
(666,96,o),
(667,96,q),
(674,98,o),
(678.5,88,q),
(683,78,o),
(683,41,q),
(683,4,o),
(667,0,q),
(626,-16,o),
(485,-16,q)
);
},
{
closed = 1;
nodes = (
(176,82,o),
(208,82,q),
(247,82,o),
(263.5,90,q),
(280,98,o),
(287.5,124,q),
(295,150,o),
(296,211,q),
(295,223,o),
(295,250,q),
(295,286,l),
(293,416,o),
(264,416,q),
(204,416,o),
(190,388.5,q),
(176,361,o),
(176,250,q)
);
},
{
closed = 1;
nodes = (
(439,303,l),
(540,303,l),
(536,419,o),
(517,419,q),
(483,419,o),
(461,409,q),
(439,399,o),
(439,381,q)
);
}
);
width = 716;
}
);
unicode = 339;
},
{
category = Letter;
glyphname = Scaron;
layers = (
{
layerId = "7144b595-13c7-4fae-a12f-f92b2e7cb6a6";
name = Fore;
shapes = (
{
closed = 1;
nodes = (
(132,1033,l),
(257,951,l),
(382,1033,l),
(421,1001,l),
(408,947,l),
(306,857,l),
(257,837,l),
(208,857,l),
(106,947,l),
(93,1001,l)
);
},
{
closed = 1;
nodes = (
(27,126,o),
(50.5,149.5,q),
(74,173,o),
(81.5,175,q),
(89,177,o),
(96,177,q),
(103,177,o),
(119,168,q),
(193,110,o),
(249,110,q),
(305,110,o),
(322,136,q),
(339,162,o),
(339,204,q),
(339,246,o),
(309,272,q),
(279,298,o),
(210.5,335,q),
(142,372,o),
(91,431,q),
(40,490,o),
(40,553,q),
(40,665,o),
(98.5,716.5,q),
(157,768,o),
(270,768,q),
(339,768,o),
(405,735,q),
(440,721,o),
(438,706,q),
(437,700,o),
(436,688,q),
(417,634,o),
(407,626,q),
(404,624,o),
(393.5,624,q),
(383,624,o),
(338,640.5,q),
(293,657,o),
(261.5,657,q),
(230,657,o),
(209,635,q),
(188,613,o),
(188,573,q),
(188,533,o),
(224,500.5,q),
(260,468,o),
(335,433,q),
(414,392,o),
(453.5,348,q),
(493,304,o),
(493,230,q),
(493,-16,o),
(285,-16,q),
(130,-16,o),
(48,73,q),
(27,99,o),
(27,112.5,q)
);
}
);
width = 516;
}
);
unicode = 352;
},
{
category = Letter;
glyphname = scaron;
layers = (
{
layerId = "7144b595-13c7-4fae-a12f-f92b2e7cb6a6";
name = Fore;
shapes = (
{
closed = 1;
nodes = (
(82,761,l),
(207,679,l),
(332,761,l),
(371,729,l),
(358,675,l),
(256,585,l),
(207,565,l),
(158,585,l),
(56,675,l),
(43,729,l)
);
},
{
closed = 1;
nodes = (
(317,380,l),
(279,399,l),
(236,416,o),
(205,416,q),
(160,414,o),
(160,373,q),
(160,357,o),
(177.5,347,q),
(195,337,o),
(206,331.5,q),
(217,326,o),
(238,316,q),
(313,284,o),
(349.5,245,q),
(386,206,o),
(386,168,q),
(386,85,o),
(342,34.5,q),
(298,-16,o),
(222.5,-16,q),
(147,-16,o),
(104,4,q),
(61,24,o),
(32,61,q),
(28,63,o),
(28,67,q),
(28,71,o),
(29.5,77,q),
(31,83,o),
(53,109.5,q),
(75,136,o),
(88,136,q),
(92,136,o),
(96,132,q),
(149,90,o),
(199,90,q),
(227,90,o),
(241,106,q),
(255,122,o),
(255,141,q),
(255,160,o),
(239,172,q),
(223,184,o),
(199.5,195.5,q),
(176,207,o),
(174,208,q),
(172,209,o),
(168.5,211,q),
(165,213,o),
(162,214,q),
(111,239,o),
(75.5,276.5,q),
(40,314,o),
(40,360,q),
(40,440,o),
(81.5,476,q),
(123,512,o),
(213,512,q),
(247,512,o),
(278,504,q),
(320,493,o),
(338,478,q),
(339,478,l),
(347,473,o),
(348.5,466,q),
(350,459,o),
(347,436,q),
(337,378,o),
(323,378,q)
);
}
);
width = 421;
}
);
unicode = 353;
},
{
category = Letter;
glyphname = Ydieresis;
layers = (
{
layerId = "7144b595-13c7-4fae-a12f-f92b2e7cb6a6";
name = Fore;
shapes = (
{
closed = 1;
nodes = (
(104,1024,o),
(176,1024,q),
(248,1024,o),
(248,952,q),
(248,880,o),
(176,880,q),
(104,880,o),
(104,952,q)
);
},
{
closed = 1;
nodes = (
(338,1024,o),
(410,1024,q),
(482,1024,o),
(482,952,q),
(482,880,o),
(410,880,q),
(338,880,o),
(338,952,q)
);
},
{
closed = 1;
nodes = (
(14,768,o),
(80,768,q),
(146,768,o),
(161,731,q),
(298,492,l),
(417,734,l),
(425,754,o),
(439,761,q),
(453,768,o),
(483,768,q),
(551,768,o),
(551,743,q),
(551,737,o),
(548,731,q),
(353,349,l),
(353,21,l),
(353,4,o),
(352,-2,q),
(348,-16,o),
(313,-16,q),
(236,-16,o),
(236,22,q),
(236,349,l),
(18,732,l),
(14,739,o),
(14,745,q)
);
}
);
width = 567;
}
);
unicode = 376;
},
{
category = Letter;
glyphname = Zcaron;
layers = (
{
layerId = "7144b595-13c7-4fae-a12f-f92b2e7cb6a6";
name = Fore;
shapes = (
{
closed = 1;
nodes = (
(130,1024,l),
(255,943,l),
(380,1024,l),
(419,992,l),
(406,938,l),
(304,848,l),
(255,828,l),
(206,848,l),
(104,938,l),
(91,992,l)
);
},
{
closed = 1;
nodes = (
(52,0,l),
(36,16,l),
(36,122,l),
(320,632,l),
(64,632,l),
(38,633,o),
(30,644,q),
(22,658,o),
(22,690.5,q),
(22,723,o),
(29,737.5,q),
(36,752,o),
(59,752,q),
(461,752,l),
(477,736,l),
(477,648,l),
(200,121,l),
(437,121,l),
(470,120,o),
(481.5,112.5,q),
(493,105,o),
(493,89,q),
(491,0,o),
(442,0,q)
);
}
);
width = 503;
}
);
unicode = 381;
},
{
category = Letter;
glyphname = zcaron;
layers = (
{
layerId = "7144b595-13c7-4fae-a12f-f92b2e7cb6a6";
name = Fore;
shapes = (
{
closed = 1;
nodes = (
(35,390,o),
(35,437,q),
(35,440,o),
(35,443,q),
(35,496,o),
(50,496,q),
(346,496,l),
(362,480,l),
(362,390,l),
(188,112,l),
(378,112,l),
(394,112,o),
(394,72,q),
(394,2,o),
(378,0,q),
(58,0,l),
(42,16,l),
(42,96,l),
(236,390,l),
(50,390,l)
);
},
{
closed = 1;
nodes = (
(82,761,l),
(207,679,l),
(332,761,l),
(371,729,l),
(358,675,l),
(256,585,l),
(207,565,l),
(158,585,l),
(56,675,l),
(43,729,l)
);
}
);
width = 414;
}
);
unicode = 382;
},
{
category = Letter;
glyphname = florin;
layers = (
{
layerId = "7144b595-13c7-4fae-a12f-f92b2e7cb6a6";
name = Fore;
shapes = (
{
closed = 1;
nodes = (
(462,667,o),
(421,667,q),
(380,667,o),
(368,629,q),
(356,591,o),
(356,496,q),
(452,496,l),
(452,416,l),
(364,416,l),
(364,-70,l),
(364,-179,o),
(344.5,-235,q),
(325,-291,o),
(281.5,-312.5,q),
(238,-334,o),
(154,-334,q),
(111,-334,o),
(74,-324,q),
(37,-314,o),
(25.5,-302.5,q),
(14,-291,o),
(11,-224,q),
(98,-224,l),
(126,-233,o),
(161,-233,q),
(196,-233,o),
(208,-199,q),
(220,-165,o),
(220,-75,q),
(220,416,l),
(140,416,l),
(140,480,l),
(220,496,l),
(220,657,o),
(264,712.5,q),
(308,768,o),
(430,768,q),
(466,768,o),
(497,759.5,q),
(528,751,o),
(542,742,q),
(555,734,l),
(531,654,l),
(491,654,l)
);
}
);
width = 567;
}
);
unicode = 402;
},
{
category = Letter;
glyphname = circumflex;
layers = (
{
layerId = "7144b595-13c7-4fae-a12f-f92b2e7cb6a6";
name = Fore;
shapes = (
{
closed = 1;
nodes = (
(26,604,l),
(39,658,l),
(141,748,l),
(190,768,l),
(239,748,l),
(341,658,l),
(354,604,l),
(315,572,l),
(190,653,l),
(65,572,l)
);
}
);
width = 379;
}
);
unicode = 710;
},
{
category = Letter;
glyphname = caron;
layers = (
{
layerId = "7144b595-13c7-4fae-a12f-f92b2e7cb6a6";
name = Fore;
shapes = (
{
closed = 1;
nodes = (
(64,761,l),
(189,679,l),
(314,761,l),
(353,729,l),
(340,675,l),
(238,585,l),
(189,565,l),
(140,585,l),
(38,675,l),
(25,729,l)
);
}
);
width = 377;
}
);
unicode = 711;
},
{
category = Letter;
glyphname = breve;
layers = (
{
layerId = "7144b595-13c7-4fae-a12f-f92b2e7cb6a6";
name = Fore;
shapes = (
{
closed = 1;
nodes = (
(155,599,o),
(153,599,q),
(32,599,o),
(34,718,q),
(108,720,l),
(106,677,o),
(152,674,q),
(196,674,o),
(196,714,q),
(196,717,o),
(196,721,q),
(273,719,l),
(270,664,o),
(243.5,631.5,q),
(217,599,o),
(157,599,q)
);
}
);
width = 305;
}
);
unicode = 728;
},
{
category = Letter;
glyphname = dotaccent;
layers = (
{
layerId = "7144b595-13c7-4fae-a12f-f92b2e7cb6a6";
name = Fore;
shapes = (
{
closed = 1;
nodes = (
(35,768,o),
(107,768,q),
(179,768,o),
(179,696,q),
(179,624,o),
(107,624,q),
(35,624,o),
(35,696,q)
);
}
);
width = 214;
}
);
unicode = 729;
},
{
category = Letter;
glyphname = ring;
layers = (
{
layerId = "7144b595-13c7-4fae-a12f-f92b2e7cb6a6";
name = Fore;
shapes = (
{
closed = 1;
nodes = (
(35,752,o),
(131,752,q),
(227,752,o),
(227,656,q),
(227,560,o),
(131,560,q),
(35,560,o),
(35,656,q)
);
},
{
closed = 1;
nodes = (
(96,621,o),
(131,621,q),
(166,621,o),
(166,656,q),
(166,691,o),
(131,691,q),
(96,691,o),
(96,656,q)
);
}
);
width = 262;
}
);
unicode = 730;
},
{
category = Letter;
glyphname = ogonek;
layers = (
{
layerId = "7144b595-13c7-4fae-a12f-f92b2e7cb6a6";
name = Fore;
shapes = (
{
closed = 1;
nodes = (
(198,-122,l),
(140,-122,l),
(96,-122,o),
(96,-166.5,q),
(96,-211,o),
(140,-211,q),
(140,-286,l),
(20,-286,o),
(20,-167,q),
(20,-48,o),
(140,-46,q),
(140,0,l),
(198,0,l)
);
}
);
width = 224;
}
);
unicode = 731;
},
{
category = Letter;
glyphname = tilde;
layers = (
{
layerId = "7144b595-13c7-4fae-a12f-f92b2e7cb6a6";
name = Fore;
shapes = (
{
closed = 1;
nodes = (
(385,628,o),
(346.5,628,q),
(308,628,o),
(235,618,q),
(162,608,o),
(112,608,q),
(62,608,o),
(48.5,617.5,q),
(35,627,o),
(35,660,q),
(60,711,l),
(135,711,o),
(200.5,720,q),
(266,729,o),
(319,729,q),
(372,729,o),
(390,718.5,q),
(408,708,o),
(408,673,q),
(392,628,l)
);
}
);
width = 441;
}
);
unicode = 732;
},
{
category = Letter;
glyphname = hungarumlaut;
layers = (
{
layerId = "7144b595-13c7-4fae-a12f-f92b2e7cb6a6";
name = Fore;
shapes = (
{
closed = 1;
nodes = (
(31,582,l),
(44,636,l),
(131,741,l),
(180,761,l),
(237,675,l),
(102,550,l)
);
},
{
closed = 1;
nodes = (
(279,582,l),
(292,636,l),
(379,741,l),
(428,761,l),
(485,675,l),
(350,550,l)
);
}
);
width = 514;
}
);
unicode = 733;
},
{
category = Letter;
glyphname = endash;
layers = (
{
layerId = "7144b595-13c7-4fae-a12f-f92b2e7cb6a6";
name = Fore;
shapes = (
{
closed = 1;
nodes = (
(61,308,l),
(45,324,l),
(45,432,l),
(495,432,l),
(511,416,l),
(511,308,l)
);
}
);
width = 556;
}
);
unicode = 8211;
},
{
category = Letter;
glyphname = emdash;
layers = (
{
layerId = "7144b595-13c7-4fae-a12f-f92b2e7cb6a6";
name = Fore;
shapes = (
{
closed = 1;
nodes = (
(61,308,l),
(45,324,l),
(45,432,l),
(684,432,l),
(700,416,l),
(700,308,l)
);
}
);
width = 745;
}
);
unicode = 8212;
},
{
category = Letter;
glyphname = quoteleft;
layers = (
{
layerId = "7144b595-13c7-4fae-a12f-f92b2e7cb6a6";
name = Fore;
shapes = (
{
closed = 1;
nodes = (
(170,759,l),
(185,706,l),
(162,572,l),
(130,530,l),
(10,560,l),
(120,768,l)
);
}
);
width = 217;
}
);
unicode = 8216;
},
{
category = Letter;
glyphname = quoteright;
layers = (
{
layerId = "7144b595-13c7-4fae-a12f-f92b2e7cb6a6";
name = Fore;
shapes = (
{
closed = 1;
nodes = (
(47,539,l),
(32,592,l),
(55,726,l),
(87,768,l),
(207,738,l),
(97,530,l)
);
}
);
width = 216;
}
);
unicode = 8217;
},
{
category = Letter;
glyphname = quotesinglbase;
layers = (
{
layerId = "7144b595-13c7-4fae-a12f-f92b2e7cb6a6";
name = Fore;
shapes = (
{
closed = 1;
nodes = (
(40,128,o),
(112,128,q),
(184,128,o),
(184,56,q),
(184,17,o),
(165,0,q),
(65,-128,l),
(39,-111,l),
(39,-42,l),
(57,3,l),
(40,20,o),
(40,56,q)
);
}
);
width = 197;
}
);
unicode = 8218;
},
{
category = Letter;
glyphname = quotedblleft;
layers = (
{
layerId = "7144b595-13c7-4fae-a12f-f92b2e7cb6a6";
name = Fore;
shapes = (
{
closed = 1;
nodes = (
(186,759,l),
(201,706,l),
(178,572,l),
(146,530,l),
(26,560,l),
(136,768,l)
);
},
{
closed = 1;
nodes = (
(396,759,l),
(411,706,l),
(388,572,l),
(356,530,l),
(236,560,l),
(346,768,l)
);
}
);
width = 450;
}
);
unicode = 8220;
},
{
category = Letter;
glyphname = quotedblright;
layers = (
{
layerId = "7144b595-13c7-4fae-a12f-f92b2e7cb6a6";
name = Fore;
shapes = (
{
closed = 1;
nodes = (
(54,539,l),
(39,592,l),
(62,726,l),
(94,768,l),
(214,738,l),
(104,530,l)
);
},
{
closed = 1;
nodes = (
(264,539,l),
(249,592,l),
(272,726,l),
(304,768,l),
(424,738,l),
(314,530,l)
);
}
);
width = 450;
}
);
unicode = 8221;
},
{
category = Letter;
glyphname = quotedblbase;
layers = (
{
layerId = "7144b595-13c7-4fae-a12f-f92b2e7cb6a6";
name = Fore;
shapes = (
{
closed = 1;
nodes = (
(44,128,o),
(116,128,q),
(188,128,o),
(188,56,q),
(188,17,o),
(169,0,q),
(69,-128,l),
(43,-111,l),
(43,-42,l),
(61,3,l),
(44,20,o),
(44,56,q)
);
},
{
closed = 1;
nodes = (
(284,128,o),
(356,128,q),
(428,128,o),
(428,56,q),
(428,17,o),
(409,0,q),
(309,-128,l),
(283,-111,l),
(283,-42,l),
(301,3,l),
(284,20,o),
(284,56,q)
);
}
);
width = 458;
}
);
unicode = 8222;
},
{
category = Letter;
glyphname = dagger;
layers = (
{
layerId = "7144b595-13c7-4fae-a12f-f92b2e7cb6a6";
name = Fore;
shapes = (
{
closed = 1;
nodes = (
(256,512,l),
(256,-146,l),
(132,-146,l),
(116,-130,l),
(121,512,l),
(28,512,l),
(12,528,l),
(12,636,l),
(122,636,l),
(124,905,l),
(224,905,l),
(240,889,l),
(256,636,l),
(348,636,l),
(364,620,l),
(364,512,l)
);
}
);
width = 375;
}
);
unicode = 8224;
},
{
category = Letter;
glyphname = daggerdbl;
layers = (
{
layerId = "7144b595-13c7-4fae-a12f-f92b2e7cb6a6";
name = Fore;
shapes = (
{
closed = 1;
nodes = (
(259,127,l),
(259,-146,l),
(135,-146,l),
(119,-130,l),
(121,127,l),
(31,127,l),
(15,143,l),
(15,251,l),
(122,251,l),
(124,512,l),
(31,512,l),
(15,528,l),
(15,636,l),
(125,636,l),
(127,905,l),
(227,905,l),
(243,889,l),
(259,636,l),
(351,636,l),
(367,620,l),
(367,512,l),
(259,512,l),
(259,251,l),
(349,251,l),
(365,235,l),
(365,127,l)
);
}
);
width = 381;
}
);
unicode = 8225;
},
{
category = Letter;
glyphname = bullet;
layers = (
{
layerId = "7144b595-13c7-4fae-a12f-f92b2e7cb6a6";
name = Fore;
shapes = (
{
closed = 1;
nodes = (
(35,391,o),
(131,391,q),
(227,391,o),
(227,295,q),
(227,199,o),
(131,199,q),
(35,199,o),
(35,295,q)
);
}
);
width = 262;
}
);
unicode = 8226;
},
{
category = Letter;
glyphname = ellipsis;
layers = (
{
layerId = "7144b595-13c7-4fae-a12f-f92b2e7cb6a6";
name = Fore;
shapes = (
{
closed = 1;
nodes = (
(43,128,o),
(115,128,q),
(187,128,o),
(187,56,q),
(187,-16,o),
(115,-16,q),
(43,-16,o),
(43,56,q)
);
},
{
closed = 1;
nodes = (
(283,128,o),
(355,128,q),
(427,128,o),
(427,56,q),
(427,-16,o),
(355,-16,q),
(283,-16,o),
(283,56,q)
);
},
{
closed = 1;
nodes = (
(523,128,o),
(595,128,q),
(667,128,o),
(667,56,q),
(667,-16,o),
(595,-16,q),
(523,-16,o),
(523,56,q)
);
}
);
width = 710;
}
);
unicode = 8230;
},
{
category = Letter;
glyphname = perthousand;
layers = (
{
layerId = "7144b595-13c7-4fae-a12f-f92b2e7cb6a6";
name = Fore;
shapes = (
{
closed = 1;
nodes = (
(502,613,l),
(310,0,l),
(200,0,l),
(184,16,l),
(413,720,l),
(502,720,l)
);
},
{
closed = 1;
nodes = (
(30,623,o),
(58.5,656.5,q),
(87,690,o),
(150,690,q),
(213,690,o),
(241.5,656.5,q),
(270,623,o),
(270,538,q),
(270,453,o),
(241.5,419.5,q),
(213,386,o),
(150,386,q),
(87,386,o),
(58.5,419.5,q),
(30,453,o),
(30,538,q)
);
},
{
closed = 1;
nodes = (
(113,469,o),
(150,469,q),
(187,469,o),
(187,543,q),
(187,584,o),
(180.5,595.5,q),
(174,607,o),
(154,607,q),
(134,607,o),
(123.5,587,q),
(113,567,o),
(113,538,q)
);
},
{
closed = 1;
nodes = (
(438,253,o),
(466.5,286.5,q),
(495,320,o),
(558,320,q),
(621,320,o),
(649.5,286.5,q),
(678,253,o),
(678,168,q),
(678,83,o),
(649.5,49.5,q),
(621,16,o),
(558,16,q),
(495,16,o),
(466.5,49.5,q),
(438,83,o),
(438,168,q)
);
},
{
closed = 1;
nodes = (
(521,99,o),
(558,99,q),
(595,99,o),
(595,173,q),
(595,214,o),
(588.5,225.5,q),
(582,237,o),
(562,237,q),
(542,237,o),
(531.5,217,q),
(521,197,o),
(521,168,q)
);
},
{
closed = 1;
nodes = (
(719,253,o),
(747.5,286.5,q),
(776,320,o),
(839,320,q),
(902,320,o),
(930.5,286.5,q),
(959,253,o),
(959,168,q),
(959,83,o),
(930.5,49.5,q),
(902,16,o),
(839,16,q),
(776,16,o),
(747.5,49.5,q),
(719,83,o),
(719,168,q)
);
},
{
closed = 1;
nodes = (
(802,99,o),
(839,99,q),
(876,99,o),
(876,173,q),
(876,214,o),
(869.5,225.5,q),
(863,237,o),
(843,237,q),
(823,237,o),
(812.5,217,q),
(802,197,o),
(802,168,q)
);
}
);
width = 975;
}
);
unicode = 8240;
},
{
category = Letter;
glyphname = guilsinglleft;
layers = (
{
layerId = "7144b595-13c7-4fae-a12f-f92b2e7cb6a6";
name = Fore;
shapes = (
{
closed = 1;
nodes = (
(269,156,l),
(215,169,l),
(29,335,l),
(9,384,l),
(29,433,l),
(199,599,l),
(253,612,l),
(285,573,l),
(124,384,l),
(301,195,l)
);
}
);
width = 335;
}
);
unicode = 8249;
},
{
category = Letter;
glyphname = guilsinglright;
layers = (
{
layerId = "7144b595-13c7-4fae-a12f-f92b2e7cb6a6";
name = Fore;
shapes = (
{
closed = 1;
nodes = (
(34,195,l),
(211,384,l),
(50,573,l),
(82,612,l),
(136,599,l),
(306,433,l),
(326,384,l),
(306,335,l),
(120,169,l),
(66,156,l)
);
}
);
width = 335;
}
);
unicode = 8250;
},
{
category = Letter;
glyphname = fraction;
layers = (
{
layerId = "7144b595-13c7-4fae-a12f-f92b2e7cb6a6";
name = Fore;
shapes = (
{
closed = 1;
nodes = (
(356,876,l),
(476,876,l),
(492,860,l),
(149,-146,l),
(23,-146,l),
(7,-130,l)
);
}
);
width = 499;
}
);
unicode = 8260;
},
{
category = Letter;
glyphname = Euro;
layers = (
{
layerId = "7144b595-13c7-4fae-a12f-f92b2e7cb6a6";
name = Fore;
shapes = (
{
closed = 1;
nodes = (
(39,410,l),
(23,426,l),
(23,534,l),
(95,534,l),
(111,667,o),
(168.5,717.5,q),
(226,768,o),
(344,768,q),
(462,768,o),
(512,734,q),
(522,727,o),
(522,717,q),
(522,707,o),
(512.5,679.5,q),
(503,652,o),
(494.5,640.5,q),
(486,629,o),
(477,629,q),
(468,629,o),
(463,630,q),
(388,645,o),
(330,645,q),
(296,645,o),
(278,618.5,q),
(260,592,o),
(253,534,q),
(435,534,l),
(451,518,l),
(451,410,l)
);
},
{
closed = 1;
nodes = (
(254,196,l),
(261,144,o),
(280,126,q),
(299,108,o),
(340,108,q),
(381,108,o),
(433.5,113,q),
(486,118,o),
(488,118,q),
(513,118,o),
(513,86,q),
(513,54,o),
(512,38,q),
(508,2,o),
(480,-3,q),
(391,-16,o),
(348,-16,q),
(232,-16,o),
(174.5,32,q),
(117,80,o),
(98,196,q),
(39,196,l),
(23,212,l),
(23,320,l),
(435,320,l),
(451,304,l),
(451,196,l)
);
}
);
width = 554;
}
);
unicode = 8364;
},
{
category = Letter;
glyphname = trademark;
layers = (
{
layerId = "7144b595-13c7-4fae-a12f-f92b2e7cb6a6";
name = Fore;
shapes = (
{
closed = 1;
nodes = (
(287,752,l),
(303,736,l),
(303,667,l),
(219,667,l),
(220,368,l),
(135,368,l),
(119,384,l),
(119,667,l),
(50,667,l),
(34,683,l),
(34,752,l)
);
},
{
closed = 1;
nodes = (
(363,368,l),
(347,384,l),
(347,752,l),
(439,752,l),
(455,736,l),
(501,621,l),
(554,752,l),
(627,752,l),
(643,736,l),
(654,572,l),
(654,368,l),
(570,368,l),
(554,384,l),
(554,592,l),
(521,527,l),
(477,527,l),
(448,586,l),
(448,368,l)
);
}
);
width = 699;
}
);
unicode = 8482;
},
{
category = Letter;
glyphname = minus;
layers = (
{
layerId = "7144b595-13c7-4fae-a12f-f92b2e7cb6a6";
name = Fore;
shapes = (
{
closed = 1;
nodes = (
(61,308,l),
(45,324,l),
(45,432,l),
(495,432,l),
(511,416,l),
(511,308,l)
);
}
);
width = 556;
}
);
unicode = 8722;
},
{
category = Letter;
glyphname = fi;
layers = (
{
layerId = "7144b595-13c7-4fae-a12f-f92b2e7cb6a6";
name = Fore;
shapes = (
{
closed = 1;
nodes = (
(355,416,l),
(240,416,l),
(240,-224,l),
(240,-230,o),
(238,-232,q),
(234,-240,o),
(200.5,-240,q),
(167,-240,o),
(133,-235,q),
(99,-230,o),
(99,-224,q),
(99,416,l),
(19,416,l),
(7,416,o),
(5.5,421.5,q),
(4,427,o),
(4,434,q),
(4,477,o),
(19,480,q),
(99,496,l),
(99,657,o),
(141.5,712.5,q),
(184,768,o),
(306,768,q),
(374,768,o),
(454,744,q),
(480,736,o),
(483,734,q),
(484,734,l),
(493,729,o),
(493,716.5,q),
(493,704,o),
(487.5,682,q),
(482,660,o),
(474.5,647,q),
(467,634,o),
(457,639,q),
(401,667,o),
(294,667,q),
(256,667,o),
(244,629,q),
(232,591,o),
(232,496,q),
(375,496,l),
(491,496,o),
(491,457,q),
(491,0,l),
(491,-6,o),
(490,-8,q),
(485,-16,o),
(452,-16,q),
(419,-16,o),
(387,-11,q),
(355,-6,o),
(355,0,q)
);
}
);
width = 520;
}
);
unicode = 64257;
},
{
category = Letter;
glyphname = fl;
layers = (
{
layerId = "7144b595-13c7-4fae-a12f-f92b2e7cb6a6";
name = Fore;
shapes = (
{
closed = 1;
nodes = (
(509,-6,o),
(508,-8,q),
(503,-16,o),
(470,-16,q),
(437,-16,o),
(405.5,-11,q),
(374,-6,o),
(374,0,q),
(374,662,l),
(338,667,o),
(297,667,q),
(256,667,o),
(244,629,q),
(232,591,o),
(232,496,q),
(328,496,l),
(344,496,o),
(344,456,q),
(344,416,o),
(328,416,q),
(240,416,l),
(240,-224,l),
(240,-230,o),
(238,-232,q),
(234,-240,o),
(200.5,-240,q),
(167,-240,o),
(133,-235,q),
(99,-230,o),
(99,-224,q),
(99,416,l),
(19,416,l),
(7,416,o),
(5.5,421.5,q),
(4,427,o),
(4,434,q),
(4,477,o),
(19,480,q),
(99,496,l),
(99,657,o),
(141.5,712.5,q),
(184,768,o),
(306,768,q),
(335,768,o),
(412.5,757.5,q),
(490,747,o),
(491,737,q),
(509,431,l),
(509,0,l)
);
}
);
width = 537;
}
);
unicode = 64258;
},
{
category = Letter;
glyphname = T_i;
layers = (
{
layerId = "7144b595-13c7-4fae-a12f-f92b2e7cb6a6";
name = Fore;
shapes = (
{
closed = 1;
nodes = (
(176,632,l),
(51,632,l),
(27,633,o),
(20,645,q),
(11,659,o),
(11,695,q),
(11,752,o),
(45,752,q),
(534,752,l),
(592,752,o),
(592,721,q),
(592,632,o),
(544,632,q),
(307,633,l),
(316,430,l),
(317,23,l),
(317,4,o),
(316,-2,q),
(312,-16,o),
(277,-16,q),
(176,-16,o),
(176,21,q)
);
},
{
closed = 1;
nodes = (
(433,496,l),
(433,512,o),
(469,512,q),
(505,512,o),
(537,507,q),
(569,502,o),
(569,496,q),
(569,0,l),
(569,-6,o),
(568,-8,q),
(563,-16,o),
(530,-16,q),
(497,-16,o),
(465,-11,q),
(433,-6,o),
(433,0,q)
);
}
);
width = 628;
}
);
},
{
category = Letter;
glyphname = F_i;
layers = (
{
layerId = "7144b595-13c7-4fae-a12f-f92b2e7cb6a6";
name = Fore;
shapes = (
{
closed = 1;
nodes = (
(327,334,l),
(185,334,l),
(185,0,l),
(185,-6,o),
(184,-8,q),
(179,-16,o),
(145.5,-16,q),
(112,-16,o),
(78.5,-11,q),
(45,-6,o),
(45,0,q),
(45,752,l),
(420,752,l),
(473,751,o),
(473,723,q),
(473,672,o),
(462,652,q),
(451,632,o),
(415,632,q),
(173,632,l),
(183,455,l),
(422,455,l),
(463,455,o),
(463,423,q),
(463,0,l),
(463,-6,o),
(462,-8,q),
(457,-16,o),
(424,-16,q),
(391,-16,o),
(359,-11,q),
(327,-6,o),
(327,0,q)
);
}
);
width = 513;
}
);
},
{
category = Letter;
glyphname = V_i;
layers = (
{
layerId = "7144b595-13c7-4fae-a12f-f92b2e7cb6a6";
name = Fore;
shapes = (
{
closed = 1;
nodes = (
(24,768,o),
(92,768,q),
(125,768,o),
(143.5,759.5,q),
(162,751,o),
(168,727,q),
(304,194,l),
(420,713,l),
(424,734,o),
(437,741.5,q),
(450,749,o),
(481,749,q),
(627,749,l),
(685,749,o),
(685,718,q),
(685,629,o),
(637,629,q),
(528,630,l),
(383,21,l),
(378,-2,o),
(370,-9,q),
(362,-16,o),
(322,-16,q),
(229,-16,o),
(219,22,q),
(25,731,l),
(24,735,o),
(24,739,q)
);
},
{
closed = 1;
nodes = (
(551,496,l),
(551,512,o),
(587,512,q),
(623,512,o),
(655,507,q),
(687,502,o),
(687,496,q),
(687,0,l),
(687,-6,o),
(686,-8,q),
(681,-16,o),
(648,-16,q),
(615,-16,o),
(583,-11,q),
(551,-6,o),
(551,0,q)
);
}
);
width = 732;
}
);
},
{
category = Letter;
glyphname = W_i;
layers = (
{
layerId = "7144b595-13c7-4fae-a12f-f92b2e7cb6a6";
name = Fore;
shapes = (
{
closed = 1;
nodes = (
(32,768,o),
(99.5,768,q),
(167,768,o),
(176,731,q),
(311,194,l),
(407,632,l),
(411,652,o),
(424,659,q),
(437,666,o),
(468,666,q),
(548,666,o),
(559,623,q),
(667,194,l),
(784,713,l),
(788,734,o),
(801,741.5,q),
(814,749,o),
(845,749,q),
(991,749,l),
(1049,749,o),
(1049,718,q),
(1049,629,o),
(1001,629,q),
(893,629,l),
(748,20,l),
(743,-1,o),
(733.5,-8.5,q),
(724,-16,o),
(703,-16,q),
(596,-16,o),
(586,20,q),
(480,375,l),
(390,22,l),
(385,0,o),
(375,-8,q),
(365,-16,o),
(345,-16,q),
(238,-16,o),
(229,20,q),
(33,734,l),
(32,737,o),
(32,740,q)
);
},
{
closed = 1;
nodes = (
(911,496,l),
(911,512,o),
(947,512,q),
(983,512,o),
(1015,507,q),
(1047,502,o),
(1047,496,q),
(1047,0,l),
(1047,-6,o),
(1046,-8,q),
(1041,-16,o),
(1008,-16,q),
(975,-16,o),
(943,-11,q),
(911,-6,o),
(911,0,q)
);
}
);
width = 1093;
}
);
},
{
category = Letter;
glyphname = Y_i;
layers = (
{
layerId = "7144b595-13c7-4fae-a12f-f92b2e7cb6a6";
name = Fore;
shapes = (
{
closed = 1;
nodes = (
(21,768,o),
(87,768,q),
(153,768,o),
(168,731,q),
(305,492,l),
(419,718,l),
(427,738,o),
(441,745,q),
(455,752,o),
(485,752,q),
(636,752,l),
(694,752,o),
(694,721,q),
(694,632,o),
(646,632,q),
(507,632,l),
(360,349,l),
(360,21,l),
(360,4,o),
(358,-2,q),
(355,-16,o),
(320,-16,q),
(243,-16,o),
(243,22,q),
(243,349,l),
(25,732,l),
(21,739,o),
(21,745,q)
);
},
{
closed = 1;
nodes = (
(559,496,l),
(559,512,o),
(595,512,q),
(631,512,o),
(663,507,q),
(695,502,o),
(695,496,q),
(695,0,l),
(695,-6,o),
(694,-8,q),
(689,-16,o),
(656,-16,q),
(623,-16,o),
(591,-11,q),
(559,-6,o),
(559,0,q)
);
}
);
width = 738;
}
);
},
{
category = Letter;
glyphname = t_i;
layers = (
{
layerId = "7144b595-13c7-4fae-a12f-f92b2e7cb6a6";
name = Fore;
shapes = (
{
closed = 1;
nodes = (
(326,768,o),
(398,768,q),
(470,768,o),
(470,696,q),
(470,624,o),
(398,624,q),
(326,624,o),
(326,696,q)
);
},
{
closed = 1;
nodes = (
(343,416,l),
(228,416,l),
(228,98,l),
(244,-15,l),
(244,-16,l),
(245,-22,o),
(244,-24,q),
(239,-32,o),
(193.5,-32,q),
(148,-32,o),
(141,-16,q),
(93,81,l),
(93,416,l),
(13,416,l),
(1,416,o),
(-0.5,421.5,q),
(-2,427,o),
(-2,434,q),
(-2,477,o),
(13,480,q),
(93,496,l),
(149,609,l),
(161,624,o),
(195,624,q),
(204,624,o),
(212,588,q),
(220,552,o),
(229,496,q),
(383,496,l),
(479,496,o),
(479,468,q),
(479,0,l),
(479,-6,o),
(478,-8,q),
(473,-16,o),
(440,-16,q),
(407,-16,o),
(375,-11,q),
(343,-6,o),
(343,0,q)
);
}
);
width = 520;
}
);
},
{
category = Letter;
glyphname = T_iacute;
layers = (
{
layerId = "7144b595-13c7-4fae-a12f-f92b2e7cb6a6";
name = Fore;
shapes = (
{
closed = 1;
nodes = (
(176,632,l),
(51,632,l),
(27,633,o),
(20,645,q),
(11,659,o),
(11,695,q),
(11,752,o),
(45,752,q),
(534,752,l),
(554,752,o),
(577.5,742,q),
(601,732,o),
(671,692,q),
(528,533,l),
(482,554,l),
(481,609,l),
(491,632,l),
(307,633,l),
(316,430,l),
(317,23,l),
(317,4,o),
(316,-2,q),
(312,-16,o),
(277,-16,q),
(176,-16,o),
(176,21,q)
);
},
{
closed = 1;
nodes = (
(433,496,l),
(433,512,o),
(469,512,q),
(505,512,o),
(537,507,q),
(569,502,o),
(569,496,q),
(569,0,l),
(569,-6,o),
(568,-8,q),
(563,-16,o),
(530,-16,q),
(497,-16,o),
(465,-11,q),
(433,-6,o),
(433,0,q)
);
}
);
width = 701;
}
);
},
{
category = Letter;
glyphname = T_igrave;
layers = (
{
layerId = "7144b595-13c7-4fae-a12f-f92b2e7cb6a6";
name = Fore;
shapes = (
{
closed = 1;
nodes = (
(176,632,l),
(51,632,l),
(27,633,o),
(20,645,q),
(11,659,o),
(11,695,q),
(11,752,o),
(45,752,q),
(399,752,l),
(431,752,o),
(450,728.5,q),
(469,705,o),
(511,609,q),
(510,554,l),
(464,533,l),
(372,632,l),
(307,633,l),
(316,430,l),
(317,23,l),
(317,4,o),
(316,-2,q),
(312,-16,o),
(277,-16,q),
(176,-16,o),
(176,21,q)
);
},
{
closed = 1;
nodes = (
(431,496,l),
(431,512,o),
(467,512,q),
(503,512,o),
(535,507,q),
(567,502,o),
(567,496,q),
(567,0,l),
(567,-6,o),
(566,-8,q),
(561,-16,o),
(528,-16,q),
(495,-16,o),
(463,-11,q),
(431,-6,o),
(431,0,q)
);
}
);
width = 605;
}
);
},
{
category = Letter;
glyphname = F_iacute;
layers = (
{
layerId = "7144b595-13c7-4fae-a12f-f92b2e7cb6a6";
name = Fore;
shapes = (
{
closed = 1;
nodes = (
(45,752,l),
(428,752,l),
(447,751,o),
(470.5,741,q),
(494,731,o),
(563,692,q),
(420,533,l),
(374,554,l),
(373,609,l),
(383,632,l),
(173,632,l),
(183,455,l),
(364,455,l),
(400,455,o),
(430,447,q),
(460,439,o),
(460,424,q),
(460,0,l),
(460,-6,o),
(458,-8,q),
(454,-16,o),
(421,-16,q),
(388,-16,o),
(356,-11,q),
(324,-6,o),
(324,0,q),
(324,334,l),
(185,334,l),
(185,0,l),
(185,-6,o),
(184,-8,q),
(179,-16,o),
(145.5,-16,q),
(112,-16,o),
(78.5,-11,q),
(45,-6,o),
(45,0,q)
);
}
);
width = 589;
}
);
},
{
category = Letter;
glyphname = F_igrave;
layers = (
{
layerId = "7144b595-13c7-4fae-a12f-f92b2e7cb6a6";
name = Fore;
shapes = (
{
closed = 1;
nodes = (
(460,0,l),
(460,-6,o),
(458,-8,q),
(454,-16,o),
(421,-16,q),
(388,-16,o),
(356,-11,q),
(324,-6,o),
(324,0,q),
(324,334,l),
(185,334,l),
(185,0,l),
(185,-6,o),
(184,-8,q),
(179,-16,o),
(145.5,-16,q),
(112,-16,o),
(78.5,-11,q),
(45,-6,o),
(45,0,q),
(45,752,l),
(292,752,l),
(320,751,o),
(339.5,728,q),
(359,705,o),
(405,609,q),
(404,554,l),
(358,533,l),
(265,632,l),
(173,632,l),
(183,455,l),
(376,455,l),
(460,453,o),
(460,423,q)
);
}
);
width = 495;
}
);
},
{
category = Letter;
glyphname = V_iacute;
layers = (
{
layerId = "7144b595-13c7-4fae-a12f-f92b2e7cb6a6";
name = Fore;
shapes = (
{
closed = 1;
nodes = (
(24,768,o),
(92,768,q),
(125,768,o),
(143.5,759.5,q),
(162,751,o),
(168,727,q),
(304,194,l),
(420,713,l),
(424,734,o),
(437,741.5,q),
(450,749,o),
(481,749,q),
(627,749,l),
(644,749,o),
(671.5,740,q),
(699,731,o),
(794,692,q),
(646,533,l),
(600,554,l),
(599,609,l),
(607,628,l),
(607,629,l),
(528,630,l),
(383,21,l),
(378,-2,o),
(370,-9,q),
(362,-16,o),
(322,-16,q),
(229,-16,o),
(219,22,q),
(25,731,l),
(24,735,o),
(24,739,q)
);
},
{
closed = 1;
nodes = (
(553,496,l),
(553,512,o),
(589,512,q),
(625,512,o),
(657,507,q),
(689,502,o),
(689,496,q),
(689,0,l),
(689,-6,o),
(688,-8,q),
(683,-16,o),
(650,-16,q),
(617,-16,o),
(585,-11,q),
(553,-6,o),
(553,0,q)
);
}
);
width = 825;
}
);
},
{
category = Letter;
glyphname = V_igrave;
layers = (
{
layerId = "7144b595-13c7-4fae-a12f-f92b2e7cb6a6";
name = Fore;
shapes = (
{
closed = 1;
nodes = (
(24,768,o),
(92,768,q),
(125,768,o),
(143.5,759.5,q),
(162,751,o),
(168,727,q),
(304,194,l),
(420,713,l),
(424,734,o),
(437,741.5,q),
(450,749,o),
(481,749,q),
(519,749,l),
(551,749,o),
(569.5,726,q),
(588,703,o),
(630,609,q),
(629,554,l),
(583,533,l),
(523,597,l),
(521,600,l),
(383,21,l),
(378,-2,o),
(370,-9,q),
(362,-16,o),
(322,-16,q),
(229,-16,o),
(219,22,q),
(25,731,l),
(24,735,o),
(24,739,q)
);
},
{
closed = 1;
nodes = (
(550,496,l),
(550,512,o),
(586,512,q),
(622,512,o),
(654,507,q),
(686,502,o),
(686,496,q),
(686,0,l),
(686,-6,o),
(684,-8,q),
(680,-16,o),
(647,-16,q),
(614,-16,o),
(582,-11,q),
(550,-6,o),
(550,0,q)
);
}
);
width = 725;
}
);
},
{
category = Letter;
glyphname = Y_iacute;
layers = (
{
layerId = "7144b595-13c7-4fae-a12f-f92b2e7cb6a6";
name = Fore;
shapes = (
{
closed = 1;
nodes = (
(21,768,o),
(87,768,q),
(153,768,o),
(168,731,q),
(305,492,l),
(419,718,l),
(427,738,o),
(441,745,q),
(455,752,o),
(485,752,q),
(636,752,l),
(653,752,o),
(679.5,742.5,q),
(706,733,o),
(796,692,q),
(653,533,l),
(607,554,l),
(606,609,l),
(617,628,l),
(619,632,l),
(507,632,l),
(360,349,l),
(360,21,l),
(360,4,o),
(358,-2,q),
(355,-16,o),
(320,-16,q),
(243,-16,o),
(243,22,q),
(243,349,l),
(25,732,l),
(21,739,o),
(21,745,q)
);
},
{
closed = 1;
nodes = (
(559,496,l),
(559,512,o),
(595,512,q),
(631,512,o),
(663,507,q),
(695,502,o),
(695,496,q),
(695,0,l),
(695,-6,o),
(694,-8,q),
(689,-16,o),
(656,-16,q),
(623,-16,o),
(591,-11,q),
(559,-6,o),
(559,0,q)
);
}
);
width = 828;
}
);
},
{
category = Letter;
glyphname = Y_igrave;
layers = (
{
layerId = "7144b595-13c7-4fae-a12f-f92b2e7cb6a6";
name = Fore;
shapes = (
{
closed = 1;
nodes = (
(21,768,o),
(87,768,q),
(153,768,o),
(168,731,q),
(305,492,l),
(419,718,l),
(427,738,o),
(441,745,q),
(455,752,o),
(485,752,q),
(525,752,l),
(557,752,o),
(575.5,728.5,q),
(594,705,o),
(636,609,q),
(635,554,l),
(589,533,l),
(503,624,l),
(360,349,l),
(360,21,l),
(360,4,o),
(358,-2,q),
(355,-16,o),
(320,-16,q),
(243,-16,o),
(243,22,q),
(243,349,l),
(25,732,l),
(21,739,o),
(21,745,q)
);
},
{
closed = 1;
nodes = (
(557,496,l),
(557,512,o),
(593,512,q),
(629,512,o),
(661,507,q),
(693,502,o),
(693,496,q),
(693,0,l),
(693,-6,o),
(692,-8,q),
(687,-16,o),
(654,-16,q),
(621,-16,o),
(589,-11,q),
(557,-6,o),
(557,0,q)
);
}
);
width = 732;
}
);
},
{
category = Letter;
glyphname = W_iacute;
layers = (
{
layerId = "7144b595-13c7-4fae-a12f-f92b2e7cb6a6";
name = Fore;
shapes = (
{
closed = 1;
nodes = (
(32,768,o),
(99.5,768,q),
(167,768,o),
(176,731,q),
(311,194,l),
(407,632,l),
(411,652,o),
(424,659,q),
(437,666,o),
(468,666,q),
(548,666,o),
(559,623,q),
(667,194,l),
(784,713,l),
(788,734,o),
(801,741.5,q),
(814,749,o),
(845,749,q),
(991,749,l),
(1010,749,o),
(1036.5,740,q),
(1063,731,o),
(1152,692,q),
(1008,533,l),
(962,554,l),
(961,609,l),
(969,628,l),
(969,629,l),
(893,629,l),
(748,20,l),
(743,-1,o),
(733.5,-8.5,q),
(724,-16,o),
(703,-16,q),
(596,-16,o),
(586,20,q),
(480,375,l),
(390,22,l),
(385,0,o),
(375,-8,q),
(365,-16,o),
(345,-16,q),
(238,-16,o),
(229,20,q),
(33,734,l),
(32,737,o),
(32,740,q)
);
},
{
closed = 1;
nodes = (
(914,496,l),
(914,512,o),
(950,512,q),
(986,512,o),
(1018,507,q),
(1050,502,o),
(1050,496,q),
(1050,0,l),
(1050,-6,o),
(1048,-8,q),
(1044,-16,o),
(1011,-16,q),
(978,-16,o),
(946,-11,q),
(914,-6,o),
(914,0,q)
);
}
);
width = 1187;
}
);
},
{
category = Letter;
glyphname = W_igrave;
layers = (
{
layerId = "7144b595-13c7-4fae-a12f-f92b2e7cb6a6";
name = Fore;
shapes = (
{
closed = 1;
nodes = (
(32,768,o),
(99.5,768,q),
(167,768,o),
(176,731,q),
(311,194,l),
(407,632,l),
(411,652,o),
(424,659,q),
(437,666,o),
(468,666,q),
(548,666,o),
(559,623,q),
(667,194,l),
(784,713,l),
(788,734,o),
(801,741.5,q),
(814,749,o),
(845,749,q),
(882,749,l),
(913,749,o),
(931.5,726,q),
(950,703,o),
(992,609,q),
(991,554,l),
(945,533,l),
(885,596,l),
(748,20,l),
(743,-1,o),
(733.5,-8.5,q),
(724,-16,o),
(703,-16,q),
(596,-16,o),
(586,20,q),
(480,375,l),
(390,22,l),
(385,0,o),
(375,-8,q),
(365,-16,o),
(345,-16,q),
(238,-16,o),
(229,20,q),
(33,734,l),
(32,737,o),
(32,740,q)
);
},
{
closed = 1;
nodes = (
(911,496,l),
(911,512,o),
(947,512,q),
(983,512,o),
(1015,507,q),
(1047,502,o),
(1047,496,q),
(1047,0,l),
(1047,-6,o),
(1046,-8,q),
(1041,-16,o),
(1008,-16,q),
(975,-16,o),
(943,-11,q),
(911,-6,o),
(911,0,q)
);
}
);
width = 1088;
}
);
},
{
category = Letter;
glyphname = t_iacute;
layers = (
{
layerId = "7144b595-13c7-4fae-a12f-f92b2e7cb6a6";
name = Fore;
shapes = (
{
closed = 1;
nodes = (
(394,554,l),
(393,609,l),
(450,733,l),
(492,765,l),
(600,705,l),
(440,533,l)
);
},
{
closed = 1;
nodes = (
(343,416,l),
(228,416,l),
(228,98,l),
(244,-15,l),
(244,-16,l),
(245,-22,o),
(244,-24,q),
(239,-32,o),
(193.5,-32,q),
(148,-32,o),
(141,-16,q),
(93,81,l),
(93,416,l),
(13,416,l),
(1,416,o),
(-0.5,421.5,q),
(-2,427,o),
(-2,434,q),
(-2,477,o),
(13,480,q),
(93,496,l),
(149,609,l),
(161,624,o),
(195,624,q),
(204,624,o),
(212,588,q),
(220,552,o),
(229,496,q),
(383,496,l),
(479,496,o),
(479,468,q),
(479,0,l),
(479,-6,o),
(478,-8,q),
(473,-16,o),
(440,-16,q),
(407,-16,o),
(375,-11,q),
(343,-6,o),
(343,0,q)
);
}
);
width = 624;
}
);
},
{
category = Letter;
glyphname = t_igrave;
layers = (
{
layerId = "7144b595-13c7-4fae-a12f-f92b2e7cb6a6";
name = Fore;
shapes = (
{
closed = 1;
nodes = (
(343,416,l),
(228,416,l),
(228,98,l),
(244,-15,l),
(244,-16,l),
(245,-22,o),
(244,-24,q),
(239,-32,o),
(193.5,-32,q),
(148,-32,o),
(141,-16,q),
(93,81,l),
(93,416,l),
(13,416,l),
(1,416,o),
(-0.5,421.5,q),
(-2,427,o),
(-2,434,q),
(-2,477,o),
(13,480,q),
(93,496,l),
(149,609,l),
(161,624,o),
(195,624,q),
(204,624,o),
(212,588,q),
(220,552,o),
(229,496,q),
(383,496,l),
(479,496,o),
(479,468,q),
(479,0,l),
(479,-6,o),
(478,-8,q),
(473,-16,o),
(440,-16,q),
(407,-16,o),
(375,-11,q),
(343,-6,o),
(343,0,q)
);
},
{
closed = 1;
nodes = (
(401,533,l),
(241,705,l),
(349,765,l),
(391,733,l),
(448,609,l),
(447,554,l)
);
}
);
width = 518;
}
);
},
{
category = Letter;
glyphname = A_smcp;
layers = (
{
layerId = "7144b595-13c7-4fae-a12f-f92b2e7cb6a6";
name = Fore;
shapes = (
{
closed = 1;
nodes = (
(250,528,o),
(258,502,q),
(349,24,l),
(350,17,o),
(350,8.5,q),
(350,0,o),
(346,-5.5,q),
(342,-11,o),
(318,-11,q),
(252,-11,o),
(245,21,q),
(224,151,l),
(143,151,l),
(124,18,l),
(122,0,o),
(116.5,-5.5,q),
(111,-11,o),
(88,-11,q),
(65,-11,o),
(54.5,-10.5,q),
(44,-10,o),
(32,-7,q),
(11,-2,o),
(13,23,q),
(95,507,l),
(99,528,o),
(201,528,q)
);
},
{
closed = 1;
nodes = (
(159,247,l),
(206,247,l),
(181,385,l)
);
}
);
width = 403;
}
);
},
{
category = Letter;
glyphname = B_smcp;
layers = (
{
layerId = "7144b595-13c7-4fae-a12f-f92b2e7cb6a6";
name = Fore;
shapes = (
{
closed = 1;
nodes = (
(272,531,o),
(312.5,496,q),
(353,461,o),
(353,390,q),
(353,319,o),
(329,277,q),
(367,240,o),
(367,158,q),
(367,-6,o),
(178,-6,q),
(158,-6,o),
(32,5,q),
(32,522,l),
(101,531,o),
(165,531,q)
);
},
{
closed = 1;
nodes = (
(250,199,o),
(241,207.5,q),
(232,216,o),
(187,216,q),
(142,216,o),
(142,215,q),
(142,95,l),
(142,93,o),
(184.5,93,q),
(227,93,o),
(238.5,106,q),
(250,119,o),
(250,159,q)
);
},
{
closed = 1;
nodes = (
(199,315,o),
(218.5,327.5,q),
(238,340,o),
(238,373,q),
(238,406,o),
(228.5,421,q),
(219,436,o),
(209,436,q),
(148,435,o),
(142,429,q),
(142,318,l),
(142,315,o),
(146,315,q)
);
}
);
width = 420;
}
);
},
{
category = Letter;
glyphname = C_smcp;
layers = (
{
layerId = "7144b595-13c7-4fae-a12f-f92b2e7cb6a6";
name = Fore;
shapes = (
{
closed = 1;
nodes = (
(298,99,l),
(325,99,o),
(325,71,q),
(325,28,o),
(317.5,17,q),
(310,6,o),
(296,3,q),
(237,-6,o),
(206,-6,q),
(102,-6,o),
(63.5,51,q),
(25,108,o),
(25,264,q),
(25,420,o),
(63,475.5,q),
(101,531,o),
(206,531,q),
(285,531,o),
(325,504,q),
(331,498,o),
(331,490.5,q),
(331,483,o),
(323.5,461.5,q),
(316,440,o),
(308.5,430.5,q),
(301,421,o),
(268.5,427,q),
(236,433,o),
(194,433,q),
(164,433,o),
(154.5,395.5,q),
(145,358,o),
(145,255.5,q),
(145,153,o),
(154.5,122.5,q),
(164,92,o),
(200,92,q)
);
}
);
width = 380;
}
);
},
{
category = Letter;
glyphname = D_smcp;
layers = (
{
layerId = "7144b595-13c7-4fae-a12f-f92b2e7cb6a6";
name = Fore;
shapes = (
{
closed = 1;
nodes = (
(297,531,o),
(335,479,q),
(373,427,o),
(373,270.5,q),
(373,114,o),
(333,54,q),
(293,-6,o),
(185,-6,q),
(159,-6,o),
(32,5,q),
(32,521,l),
(134,531,o),
(185,531,q)
);
},
{
closed = 1;
nodes = (
(167,436,o),
(154.5,435,q),
(142,434,o),
(142,430,q),
(142,95,l),
(142,93,o),
(172.5,93,q),
(203,93,o),
(213.5,96,q),
(224,99,o),
(232.5,106.5,q),
(241,114,o),
(244,134,q),
(250,176,o),
(250,260,q),
(250,436,o),
(221,436,q)
);
}
);
width = 427;
}
);
},
{
category = Letter;
glyphname = E_smcp;
layers = (
{
layerId = "7144b595-13c7-4fae-a12f-f92b2e7cb6a6";
name = Fore;
shapes = (
{
closed = 1;
nodes = (
(296,324,o),
(296,292,q),
(296,265,o),
(295,254.5,q),
(294,244,o),
(286.5,236,q),
(279,228,o),
(263,228,q),
(140,228,l),
(140,101,l),
(287,101,l),
(307,100,o),
(315,92.5,q),
(323,85,o),
(323,59,q),
(323,33,o),
(315.5,19,q),
(308,5,o),
(285,5,q),
(45,5,l),
(33,21,l),
(33,522,l),
(276,522,l),
(313,521,o),
(313,492,q),
(313,472,o),
(311.5,460.5,q),
(310,449,o),
(300.5,438,q),
(291,427,o),
(274,427,q),
(134,427,l),
(140,324,l),
(261,324,l)
);
}
);
width = 375;
}
);
},
{
category = Letter;
glyphname = F_smcp;
layers = (
{
layerId = "7144b595-13c7-4fae-a12f-f92b2e7cb6a6";
name = Fore;
shapes = (
{
closed = 1;
nodes = (
(33,522,l),
(269,522,l),
(296,521,o),
(304.5,515,q),
(313,509,o),
(313,496,q),
(313,455,o),
(304.5,441,q),
(296,427,o),
(266,427,q),
(134,427,l),
(138,324,l),
(271,324,l),
(306,324,o),
(306,294,q),
(306,255,o),
(298.5,241.5,q),
(291,228,o),
(266,228,q),
(140,228,l),
(140,13,l),
(140,6,o),
(139,3,q),
(136,-6,o),
(109,-6,q),
(82,-6,o),
(57.5,0,q),
(33,6,o),
(33,13,q)
);
}
);
width = 339;
}
);
},
{
category = Letter;
glyphname = G_smcp;
layers = (
{
layerId = "7144b595-13c7-4fae-a12f-f92b2e7cb6a6";
name = Fore;
shapes = (
{
closed = 1;
nodes = (
(102,531,o),
(217,531,q),
(332,531,o),
(332,487,q),
(332,482,o),
(324.5,461,q),
(317,440,o),
(310,432,q),
(303,424,o),
(294,424,q),
(285,424,o),
(256.5,428.5,q),
(228,433,o),
(195.5,433,q),
(163,433,o),
(155,397,q),
(147,361,o),
(147,257,q),
(147,153,o),
(156.5,122.5,q),
(166,92,o),
(202,92,q),
(247,96,l),
(247,234,l),
(248,262,o),
(295,263,q),
(320,263,o),
(332,256,q),
(344,249,o),
(346,228,q),
(357,96,l),
(357,5,l),
(270,-6,o),
(208,-6,q),
(104,-6,o),
(65,51,q),
(26,108,o),
(26,264,q),
(26,420,o),
(64,475.5,q)
);
}
);
width = 409;
}
);
},
{
category = Letter;
glyphname = H_smcp;
layers = (
{
layerId = "7144b595-13c7-4fae-a12f-f92b2e7cb6a6";
name = Fore;
shapes = (
{
closed = 1;
nodes = (
(234,521,o),
(241.5,526,q),
(249,531,o),
(274,531,q),
(330,531,o),
(332,500,q),
(343,300,l),
(343,27,l),
(343,6,o),
(338,0,q),
(333,-6,o),
(309,-6,q),
(234,-6,o),
(234,26,q),
(234,212,l),
(141,212,l),
(142,27,l),
(142,6,o),
(137,0,q),
(132,-6,o),
(107,-6,q),
(33,-6,o),
(33,28,q),
(33,501,l),
(33,520,o),
(40.5,525.5,q),
(48,531,o),
(72,531,q),
(129,531,o),
(130,501,q),
(141,307,l),
(234,307,l),
(234,502,l)
);
}
);
width = 406;
}
);
},
{
category = Letter;
glyphname = I_smcp;
layers = (
{
layerId = "7144b595-13c7-4fae-a12f-f92b2e7cb6a6";
name = Fore;
shapes = (
{
closed = 1;
nodes = (
(21,5,o),
(21,53,q),
(21,101,o),
(48,101,q),
(65,101,l),
(65,427,l),
(52,427,l),
(34,427,o),
(28,436,q),
(21,447,o),
(21,477,q),
(21,522,o),
(52,522,q),
(170,522,l),
(206,522,o),
(206,493,q),
(206,427,o),
(176,427,q),
(167,427,l),
(174,101,l),
(187,101,l),
(217,98,o),
(217,71,q),
(215,5,o),
(177,5,q),
(51,5,l)
);
}
);
width = 268;
}
);
},
{
category = Letter;
glyphname = J_smcp;
layers = (
{
layerId = "7144b595-13c7-4fae-a12f-f92b2e7cb6a6";
name = Fore;
shapes = (
{
closed = 1;
nodes = (
(0,-74,o),
(6.5,-64,q),
(13,-54,o),
(29,-54,q),
(55,-54,o),
(63.5,-16.5,q),
(72,21,o),
(72,122,q),
(72,501,l),
(72,519,o),
(80.5,525,q),
(89,531,o),
(113,531,q),
(170,531,o),
(171,500,q),
(173,466,o),
(177,399.5,q),
(181,333,o),
(182,301,q),
(182,123,l),
(182,-28,o),
(152.5,-86,q),
(123,-144,o),
(29,-144,q),
(13,-143,o),
(6.5,-133.5,q),
(0,-124,o),
(0,-99,q)
);
}
);
width = 243;
}
);
},
{
category = Letter;
glyphname = K_smcp;
layers = (
{
layerId = "7144b595-13c7-4fae-a12f-f92b2e7cb6a6";
name = Fore;
shapes = (
{
closed = 1;
nodes = (
(388,-6,o),
(354,-6,q),
(274,-6,o),
(259,23,q),
(144,265,l),
(144,294,l),
(244,505,l),
(254,531,o),
(305,531,q),
(333,531,o),
(348,523.5,q),
(363,516,o),
(355,497,q),
(256,290,l),
(382,31,l),
(388,19,o),
(388,11,q)
);
},
{
closed = 1;
nodes = (
(32,500,l),
(32,519,o),
(40.5,525,q),
(49,531,o),
(74,531,q),
(131,531,o),
(131,499,q),
(141,301,l),
(142,28,l),
(142,6,o),
(137,0,q),
(132,-6,o),
(107,-6,q),
(32,-6,o),
(32,26,q)
);
}
);
width = 475;
}
);
},
{
category = Letter;
glyphname = L_smcp;
layers = (
{
layerId = "7144b595-13c7-4fae-a12f-f92b2e7cb6a6";
name = Fore;
shapes = (
{
closed = 1;
nodes = (
(33,519,o),
(40.5,525,q),
(48,531,o),
(73,531,q),
(130,531,o),
(131,501,q),
(139,301,l),
(140,101,l),
(262,101,l),
(303,101,o),
(303,69,q),
(303,21,o),
(286,10,q),
(278,5,o),
(264,5,q),
(45,5,l),
(33,21,l),
(33,500,l)
);
}
);
width = 335;
}
);
},
{
category = Letter;
glyphname = M_smcp;
layers = (
{
layerId = "7144b595-13c7-4fae-a12f-f92b2e7cb6a6";
name = Fore;
shapes = (
{
closed = 1;
nodes = (
(276,297,l),
(248,240,l),
(167,240,l),
(141,294,l),
(141,28,l),
(141,6,o),
(136,0,q),
(131,-6,o),
(106,-6,q),
(32,-6,o),
(32,27,q),
(32,499,l),
(32,531,o),
(85,531,q),
(138,531,o),
(150,502,q),
(208,349,l),
(270,505,l),
(277,522,o),
(285.5,526.5,q),
(294,531,o),
(319,531,q),
(374,531,o),
(375,499,q),
(377,465,o),
(381,398.5,q),
(385,332,o),
(386,300,q),
(386,32,l),
(386,7,o),
(381,0.5,q),
(376,-6,o),
(351.5,-6,q),
(327,-6,o),
(313,-4,q),
(276,-1,o),
(276,27,q)
);
}
);
width = 446;
}
);
},
{
category = Letter;
glyphname = N_smcp;
layers = (
{
layerId = "7144b595-13c7-4fae-a12f-f92b2e7cb6a6";
name = Fore;
shapes = (
{
closed = 1;
nodes = (
(32,500,l),
(32,531,o),
(87,531,q),
(99,531,o),
(105.5,530,q),
(112,529,o),
(123.5,520,q),
(135,511,o),
(145,494,q),
(243,262,l),
(239,501,l),
(239,531,o),
(296,531,q),
(321,531,o),
(329,525.5,q),
(337,520,o),
(338,501,q),
(349,300,l),
(349,27,l),
(349,-3,o),
(336,-5,q),
(329,-6,o),
(316,-6,q),
(267,-6,o),
(255,24,q),
(141,262,l),
(141,28,l),
(141,6,o),
(136,0,q),
(131,-6,o),
(106,-6,q),
(32,-6,o),
(32,29,q)
);
}
);
width = 412;
}
);
},
{
category = Letter;
glyphname = O_smcp;
layers = (
{
layerId = "7144b595-13c7-4fae-a12f-f92b2e7cb6a6";
name = Fore;
shapes = (
{
closed = 1;
nodes = (
(26,109,o),
(26,264,q),
(26,419,o),
(64.5,475,q),
(103,531,o),
(208,531,q),
(313,531,o),
(351.5,475,q),
(390,419,o),
(390,264,q),
(390,109,o),
(350.5,51.5,q),
(311,-6,o),
(207.5,-6,q),
(104,-6,o),
(65,51.5,q)
);
},
{
closed = 1;
nodes = (
(148,385,o),
(148,286,q),
(148,187,o),
(151,148,q),
(154,109,o),
(158.5,96.5,q),
(163,84,o),
(172,84,q),
(209,84,o),
(226,87.5,q),
(243,91,o),
(254.5,111.5,q),
(266,132,o),
(268,162.5,q),
(270,193,o),
(270,260,q),
(270,445,o),
(246,445,q),
(178,445,o),
(163,415,q)
);
}
);
width = 441;
}
);
},
{
category = Letter;
glyphname = P_smcp;
layers = (
{
layerId = "7144b595-13c7-4fae-a12f-f92b2e7cb6a6";
name = Fore;
shapes = (
{
closed = 1;
nodes = (
(33,522,l),
(99,531,o),
(158,531,q),
(254,531,o),
(291.5,491.5,q),
(329,452,o),
(329,367,q),
(329,253,o),
(264,220,q),
(233,204,o),
(204,199,q),
(175,194,o),
(132,194,q),
(132,28,l),
(132,12,o),
(130,6,q),
(127,-6,o),
(96,-6,q),
(33,-6,o),
(33,28,q)
);
},
{
closed = 1;
nodes = (
(132,301,o),
(147,301,q),
(162,301,o),
(173.5,302,q),
(185,303,o),
(197,309.5,q),
(209,316,o),
(213,329.5,q),
(217,343,o),
(217,370,q),
(217,397,o),
(208.5,416.5,q),
(200,436,o),
(191,436,q),
(150,436,o),
(141,435,q),
(132,434,o),
(132,430,q),
(132,303,l)
);
}
);
width = 362;
}
);
},
{
category = Letter;
glyphname = Q_smcp;
layers = (
{
layerId = "7144b595-13c7-4fae-a12f-f92b2e7cb6a6";
name = Fore;
shapes = (
{
closed = 1;
nodes = (
(23,109,o),
(23,264,q),
(23,419,o),
(61.5,475,q),
(100,531,o),
(205,531,q),
(310,531,o),
(348.5,475,q),
(387,419,o),
(387,264,q),
(387,109,o),
(347.5,51.5,q),
(308,-6,o),
(204.5,-6,q),
(101,-6,o),
(62,51.5,q)
);
},
{
closed = 1;
nodes = (
(145,384,o),
(145,285.5,q),
(145,187,o),
(148,148,q),
(151,109,o),
(155.5,96.5,q),
(160,84,o),
(169,84,q),
(206,84,o),
(223,87.5,q),
(240,91,o),
(251.5,111.5,q),
(263,132,o),
(265,162.5,q),
(267,193,o),
(267,260,q),
(267,445,o),
(243,445,q),
(175,445,o),
(160,414.5,q)
);
},
{
closed = 1;
nodes = (
(336,-136,o),
(303.5,-136,q),
(271,-136,o),
(199,-128.5,q),
(127,-121,o),
(88,-121,q),
(75,-82,l),
(76,-33,o),
(130,-33,q),
(164,-33,o),
(234,-40,q),
(304,-47,o),
(342,-47,q),
(359,-90,l),
(358,-117,o),
(347,-126.5,q)
);
}
);
width = 436;
}
);
},
{
category = Letter;
glyphname = R_smcp;
layers = (
{
layerId = "7144b595-13c7-4fae-a12f-f92b2e7cb6a6";
name = Fore;
shapes = (
{
closed = 1;
nodes = (
(32,522,l),
(100,531,o),
(157,531,q),
(254,531,o),
(291.5,495,q),
(329,459,o),
(329,375,q),
(329,269,o),
(267,224,q),
(358,20,o),
(358,11,q),
(358,-6,o),
(326,-6,q),
(254,-6,o),
(241,24,q),
(167,195,l),
(154,194,o),
(132,194,q),
(132,30,l),
(132,6,o),
(127,0,q),
(122,-6,o),
(97,-6,q),
(32,-6,o),
(32,29,q)
);
},
{
closed = 1;
nodes = (
(183,301,o),
(200,314.5,q),
(217,328,o),
(217,365.5,q),
(217,403,o),
(208.5,419.5,q),
(200,436,o),
(191,436,q),
(150,436,o),
(141,435,q),
(132,434,o),
(132,430,q),
(132,303,l),
(132,301,o),
(135,301,q)
);
}
);
width = 413;
}
);
},
{
category = Letter;
glyphname = S_smcp;
layers = (
{
layerId = "7144b595-13c7-4fae-a12f-f92b2e7cb6a6";
name = Fore;
shapes = (
{
closed = 1;
nodes = (
(18,101,o),
(34,120,q),
(50,139,o),
(62.5,140,q),
(75,141,o),
(90,131,q),
(139,94,o),
(172.5,94,q),
(206,94,o),
(216,109.5,q),
(226,125,o),
(226,149,q),
(226,173,o),
(206,189.5,q),
(186,206,o),
(141.5,229,q),
(97,252,o),
(62,294.5,q),
(27,337,o),
(27,381,q),
(27,460,o),
(67,495.5,q),
(107,531,o),
(187,531,q),
(223,531,o),
(254,522,q),
(307,507,o),
(307,477,q),
(307,473,o),
(306,469,q),
(293,433,o),
(280,426,q),
(275,422,o),
(265.5,422,q),
(256,422,o),
(226.5,432,q),
(197,442,o),
(180,442,q),
(163,442,o),
(151.5,430,q),
(140,418,o),
(140,394,q),
(140,370,o),
(163,351,q),
(186,332,o),
(234,309,q),
(289,279,o),
(316,248.5,q),
(343,218,o),
(343,165,q),
(343,-6,o),
(197,-6,q),
(116,-6,o),
(53,34,q),
(18,57,o),
(18,87,q)
);
}
);
width = 389;
}
);
},
{
category = Letter;
glyphname = T_smcp;
layers = (
{
layerId = "7144b595-13c7-4fae-a12f-f92b2e7cb6a6";
name = Fore;
shapes = (
{
closed = 1;
nodes = (
(115,427,l),
(38,427,l),
(19,427,o),
(12,436,q),
(5,447,o),
(5,477,q),
(5,522,o),
(34,522,q),
(278,522,l),
(323,522,o),
(323,493,q),
(323,427,o),
(285,427,q),
(218,427,l),
(225,299,l),
(225,28,l),
(225,6,o),
(220,0,q),
(215,-6,o),
(190,-6,q),
(115,-6,o),
(115,27,q)
);
}
);
width = 362;
}
);
},
{
category = Letter;
glyphname = U_smcp;
layers = (
{
layerId = "7144b595-13c7-4fae-a12f-f92b2e7cb6a6";
name = Fore;
shapes = (
{
closed = 1;
nodes = (
(245,517,o),
(254.5,524,q),
(264,531,o),
(295,531,q),
(326,531,o),
(336,522.5,q),
(346,514,o),
(347,477,q),
(355,299,l),
(355,294,o),
(355,289,q),
(355,118,o),
(322,56,q),
(289,-6,o),
(194.5,-6,q),
(100,-6,o),
(64.5,51,q),
(29,108,o),
(29,258,q),
(29,479,l),
(29,513,o),
(38.5,522,q),
(48,531,o),
(79,531,q),
(110,531,o),
(121,521.5,q),
(132,512,o),
(133,472,q),
(143,300,l),
(143,134,o),
(149,113.5,q),
(155,93,o),
(162,93,q),
(194,93,o),
(208,96,q),
(222,99,o),
(232,118.5,q),
(242,138,o),
(243.5,166.5,q),
(245,195,o),
(245,258,q),
(245,494,l)
);
}
);
width = 412;
}
);
},
{
category = Letter;
glyphname = V_smcp;
layers = (
{
layerId = "7144b595-13c7-4fae-a12f-f92b2e7cb6a6";
name = Fore;
shapes = (
{
closed = 1;
nodes = (
(293,531,o),
(340,531,q),
(387,531,o),
(387,503,q),
(387,500,o),
(386,497,q),
(273,25,l),
(268,7,o),
(261.5,0.5,q),
(255,-6,o),
(237,-6,q),
(158,-6,o),
(149,26,q),
(20,498,l),
(19,503,o),
(19,507,q),
(19,531,o),
(70,531,q),
(121,531,o),
(131,499,q),
(214,177,l),
(285,503,l)
);
}
);
width = 426;
}
);
},
{
category = Letter;
glyphname = W_smcp;
layers = (
{
layerId = "7144b595-13c7-4fae-a12f-f92b2e7cb6a6";
name = Fore;
shapes = (
{
closed = 1;
nodes = (
(24,531,o),
(75.5,531,q),
(127,531,o),
(136,502,q),
(218,179,l),
(275,435,l),
(282,464,o),
(323,464,q),
(381,464,o),
(393,430,q),
(456,180,l),
(527,502,l),
(532,520,o),
(542.5,525.5,q),
(553,531,o),
(583,531,q),
(613,531,o),
(621.5,526.5,q),
(630,522,o),
(630,513,q),
(630,504,o),
(629,497,q),
(517,24,l),
(508,-6,o),
(480.5,-6,q),
(453,-6,o),
(426.5,1.5,q),
(400,9,o),
(395,24,q),
(332,233,l),
(280,26,l),
(276,8,o),
(267,1,q),
(258,-6,o),
(236.5,-6,q),
(215,-6,o),
(188.5,1.5,q),
(162,9,o),
(156,24,q),
(25,500,l),
(24,503,o),
(24,506,q)
);
}
);
width = 670;
}
);
},
{
category = Letter;
glyphname = X_smcp;
layers = (
{
layerId = "7144b595-13c7-4fae-a12f-f92b2e7cb6a6";
name = Fore;
shapes = (
{
closed = 1;
nodes = (
(400,-6,o),
(369.5,-6,q),
(339,-6,o),
(309,1.5,q),
(279,9,o),
(272,25,q),
(212,178,l),
(151,26,l),
(144,7,o),
(135.5,0.5,q),
(127,-6,o),
(111.5,-6,q),
(96,-6,o),
(82,-4,q),
(27,1,o),
(27,23,q),
(27,27,o),
(29,31,q),
(153,289,l),
(56,496,l),
(56,497,l),
(48,517,o),
(61.5,524,q),
(75,531,o),
(105,531,q),
(154,531,o),
(166,502,q),
(211,383,l),
(257,506,l),
(269,531,o),
(320,531,q),
(371,531,o),
(371,510,q),
(371,503,o),
(367,493,q),
(269,288,l),
(394,31,l),
(400,19,o),
(400,11,q)
);
}
);
width = 461;
}
);
},
{
category = Letter;
glyphname = Y_smcp;
layers = (
{
layerId = "7144b595-13c7-4fae-a12f-f92b2e7cb6a6";
name = Fore;
shapes = (
{
closed = 1;
nodes = (
(394,531,o),
(394,509,q),
(394,503,o),
(391,496,q),
(260,240,l),
(260,27,l),
(260,-3,o),
(246,-5,q),
(240,-6,o),
(227,-6,q),
(166,-6,o),
(166,28,q),
(166,244,l),
(23,497,l),
(19,504,o),
(19,510,q),
(19,531,o),
(69.5,531,q),
(120,531,o),
(132,503,q),
(215,357,l),
(288,504,l),
(295,520,o),
(305.5,525.5,q),
(316,531,o),
(340,531,q)
);
}
);
width = 430;
}
);
},
{
category = Letter;
glyphname = Z_smcp;
layers = (
{
layerId = "7144b595-13c7-4fae-a12f-f92b2e7cb6a6";
name = Fore;
shapes = (
{
closed = 1;
nodes = (
(45,5,l),
(32,20,l),
(32,96,l),
(215,427,l),
(57,427,l),
(35,427,o),
(29,435.5,q),
(23,444,o),
(22,471,q),
(22,498,o),
(28.5,510,q),
(35,522,o),
(54,522,q),
(327,522,l),
(340,507,l),
(340,439,l),
(161,101,l),
(307,101,l),
(351,100,o),
(351,71,q),
(349,5,o),
(310,5,q)
);
}
);
width = 388;
}
);
},
{
category = Letter;
glyphname = Ntilde_smcp;
layers = (
{
layerId = "7144b595-13c7-4fae-a12f-f92b2e7cb6a6";
name = Fore;
shapes = (
{
closed = 1;
nodes = (
(295,595,o),
(271.5,595,q),
(248,595,o),
(193.5,587.5,q),
(139,580,o),
(107.5,580,q),
(76,580,o),
(65,588.5,q),
(54,597,o),
(54,626,q),
(73,664,l),
(104,664,o),
(167,670.5,q),
(230,677,o),
(260,677,q),
(290,677,o),
(305,667.5,q),
(320,658,o),
(320,629,q),
(307,594,l)
);
},
{
closed = 1;
nodes = (
(30,500,l),
(30,531,o),
(85,531,q),
(96,531,o),
(103,530,q),
(123,527,o),
(142,495,q),
(241,262,l),
(238,501,l),
(238,531,o),
(294,531,q),
(319,531,o),
(327.5,525,q),
(336,519,o),
(336,501,q),
(346,300,l),
(346,27,l),
(346,-3,o),
(332,-5,q),
(326,-6,o),
(313,-6,q),
(264,-6,o),
(252,24,q),
(138,262,l),
(139,28,l),
(139,6,o),
(134,0,q),
(129,-6,o),
(104,-6,q),
(30,-6,o),
(30,29,q)
);
}
);
width = 423;
}
);
},
{
category = Letter;
glyphname = zero_onum;
layers = (
{
layerId = "7144b595-13c7-4fae-a12f-f92b2e7cb6a6";
name = Fore;
shapes = (
{
closed = 1;
nodes = (
(37,98,o),
(37,251.5,q),
(37,405,o),
(83.5,458.5,q),
(130,512,o),
(259,512,q),
(388,512,o),
(434,458.5,q),
(480,405,o),
(480,251.5,q),
(480,98,o),
(432.5,41,q),
(385,-16,o),
(259,-16,q),
(133,-16,o),
(85,41,q)
);
},
{
closed = 1;
nodes = (
(160,356,o),
(160,251,q),
(160,146,o),
(178.5,116.5,q),
(197,87,o),
(259,87,q),
(306,87,o),
(321,94,q),
(336,101,o),
(342,110.5,q),
(348,120,o),
(353,139,q),
(360,166,o),
(360,258,q),
(360,350,o),
(341.5,381.5,q),
(323,413,o),
(259.5,413,q),
(196,413,o),
(178,384.5,q)
);
}
);
width = 517;
}
);
},
{
category = Letter;
glyphname = one_onum;
layers = (
{
layerId = "7144b595-13c7-4fae-a12f-f92b2e7cb6a6";
name = Fore;
shapes = (
{
closed = 1;
nodes = (
(57,0,l),
(41,16,l),
(41,118,l),
(155,118,l),
(155,367,l),
(66,349,l),
(31,450,l),
(257,511,l),
(273,495,l),
(274,118,l),
(355,118,l),
(371,102,l),
(371,0,l)
);
}
);
width = 397;
}
);
},
{
category = Letter;
glyphname = two_onum;
layers = (
{
layerId = "7144b595-13c7-4fae-a12f-f92b2e7cb6a6";
name = Fore;
shapes = (
{
closed = 1;
nodes = (
(267,364,o),
(246.5,379.5,q),
(226,395,o),
(201,395,q),
(152,395,o),
(113,382,q),
(77,382,l),
(52,480,l),
(103,512,o),
(195,512,q),
(287,512,o),
(337,469,q),
(387,426,o),
(387,369,q),
(387,312,o),
(341,262,q),
(295,212,o),
(176,115,q),
(373,115,l),
(388,99,l),
(388,0,l),
(54,0,l),
(39,16,l),
(39,117,l),
(52,143,o),
(109,189.5,q),
(166,236,o),
(216.5,281,q),
(267,326,o),
(267,351,q)
);
}
);
width = 426;
}
);
},
{
category = Letter;
glyphname = three_onum;
layers = (
{
layerId = "7144b595-13c7-4fae-a12f-f92b2e7cb6a6";
name = Fore;
shapes = (
{
closed = 1;
nodes = (
(137,395,o),
(96,382,q),
(65,382,l),
(38,481,l),
(91,512,o),
(184,512,q),
(307,512,o),
(349,464,q),
(391,416,o),
(391,313.5,q),
(391,211,o),
(349,155,q),
(350,155,l),
(410,99,o),
(410,-31,q),
(410,-135,o),
(365,-194,q),
(315,-259,o),
(175,-259,q),
(137,-259,o),
(53,-249,q),
(53,-131,l),
(144,-137,o),
(181,-137,q),
(250,-137,o),
(267.5,-117.5,q),
(285,-98,o),
(285,-30,q),
(285,-25,o),
(285,-20,q),
(285,44,o),
(272,59.5,q),
(259,75,o),
(187,75,q),
(143,75,l),
(129,90,l),
(129,200,l),
(222,200,o),
(238,213,q),
(260,231,o),
(263,253.5,q),
(266,276,o),
(266,302,q),
(266,395,o),
(215,395,q)
);
}
);
width = 444;
}
);
},
{
category = Letter;
glyphname = four_onum;
layers = (
{
layerId = "7144b595-13c7-4fae-a12f-f92b2e7cb6a6";
name = Fore;
shapes = (
{
closed = 1;
nodes = (
(264,118,l),
(265,496,l),
(380,496,l),
(396,480,l),
(396,118,l),
(438,118,l),
(454,102,l),
(454,0,l),
(396,0,l),
(396,-259,l),
(280,-259,l),
(264,-243,l),
(264,0,l),
(38,0,l),
(22,16,l),
(23,496,l),
(136,496,l),
(152,480,l),
(152,118,l)
);
}
);
width = 483;
}
);
},
{
category = Letter;
glyphname = five_onum;
layers = (
{
layerId = "7144b595-13c7-4fae-a12f-f92b2e7cb6a6";
name = Fore;
shapes = (
{
closed = 1;
nodes = (
(360,496,l),
(376,480,l),
(376,378,l),
(170,378,l),
(171,195,l),
(300,195,o),
(350,142,q),
(400,89,o),
(400,-33,q),
(400,-275,o),
(131,-275,q),
(124,-275,o),
(46,-265,q),
(46,-147,l),
(109,-153,o),
(138,-153,q),
(216,-153,o),
(237,-128,q),
(258,-103,o),
(258,-32,q),
(258,7,o),
(256,23.5,q),
(254,40,o),
(242,54,q),
(230,68,o),
(208.5,71,q),
(187,74,o),
(144,74,q),
(60,74,l),
(44,90,l),
(44,496,l)
);
}
);
width = 431;
}
);
},
{
category = Letter;
glyphname = six_onum;
layers = (
{
layerId = "7144b595-13c7-4fae-a12f-f92b2e7cb6a6";
name = Fore;
shapes = (
{
closed = 1;
nodes = (
(32,327,o),
(51.5,429,q),
(71,531,o),
(89.5,596,q),
(108,661,o),
(142,770,q),
(254,742,l),
(270,726,l),
(206,590,o),
(196,501,q),
(229,514,l),
(334,511,o),
(378.5,455,q),
(423,399,o),
(423,249.5,q),
(423,100,o),
(380.5,42,q),
(338,-16,o),
(227.5,-16,q),
(117,-16,o),
(74.5,42,q),
(32,100,o),
(32,250,q)
);
},
{
closed = 1;
nodes = (
(156,76,o),
(194,76,q),
(241,76,o),
(256,84.5,q),
(271,93,o),
(276,102.5,q),
(281,112,o),
(285,134,q),
(291,167,o),
(291,250,q),
(291,424,o),
(253,424,q),
(187,424,o),
(171.5,395,q),
(156,366,o),
(156,250,q)
);
}
);
width = 444;
}
);
},
{
category = Letter;
glyphname = seven_onum;
layers = (
{
layerId = "7144b595-13c7-4fae-a12f-f92b2e7cb6a6";
name = Fore;
shapes = (
{
closed = 1;
nodes = (
(423,496,l),
(439,480,l),
(439,375,l),
(166,-260,l),
(52,-260,l),
(36,-244,l),
(300,377,l),
(76,377,l),
(60,393,l),
(60,496,l)
);
}
);
width = 450;
}
);
},
{
category = Letter;
glyphname = eight_onum;
layers = (
{
layerId = "7144b595-13c7-4fae-a12f-f92b2e7cb6a6";
name = Fore;
shapes = (
{
closed = 1;
nodes = (
(447,112,o),
(396,48,q),
(345,-16,o),
(238,-16,q),
(33,-16,o),
(33,222,q),
(33,269,o),
(58,318,q),
(83,367,o),
(125,403,q),
(94,436,o),
(74.5,479.5,q),
(55,523,o),
(55,565,q),
(55,656,o),
(100,714.5,q),
(145,773,o),
(234,773,q),
(425,773,o),
(425,565,q),
(425,478,o),
(354,403,q),
(396,368,o),
(421.5,318.5,q),
(447,269,o),
(447,222,q)
);
},
{
closed = 1;
nodes = (
(177,512,o),
(238,460,q),
(304,511,o),
(304,580,q),
(304,628,o),
(285.5,654,q),
(267,680,o),
(239.5,680,q),
(212,680,o),
(194.5,654,q),
(177,628,o),
(177,580,q)
);
},
{
closed = 1;
nodes = (
(159,244,o),
(159,202,q),
(159,160,o),
(179.5,125,q),
(200,90,o),
(239.5,90,q),
(279,90,o),
(300,125,q),
(321,160,o),
(321,202.5,q),
(321,245,o),
(301,272.5,q),
(281,300,o),
(238,335,q),
(197,300,o),
(178,272,q)
);
}
);
width = 479;
}
);
},
{
category = Letter;
glyphname = nine_onum;
layers = (
{
layerId = "7144b595-13c7-4fae-a12f-f92b2e7cb6a6";
name = Fore;
shapes = (
{
closed = 1;
nodes = (
(214,-24,l),
(111,-21,o),
(67,35.5,q),
(23,92,o),
(23,241.5,q),
(23,391,o),
(65.5,451.5,q),
(108,512,o),
(218,512,q),
(328,512,o),
(371,451.5,q),
(414,391,o),
(414,240,q),
(414,150,o),
(393,61.5,q),
(372,-27,o),
(347,-88,q),
(322,-149,o),
(263,-279,q),
(172,-246,l),
(156,-230,l),
(243,-61,o),
(250,-11,q)
);
},
{
closed = 1;
nodes = (
(288,403,o),
(251,403,q),
(187,403,o),
(172,376.5,q),
(157,350,o),
(157,240,q),
(157,83,o),
(194,83,q),
(258,83,o),
(273,109,q),
(288,135,o),
(288,240,q)
);
}
);
width = 444;
}
);
},
{
category = Letter;
glyphname = A_smcpacute;
layers = (
{
layerId = "7144b595-13c7-4fae-a12f-f92b2e7cb6a6";
name = Fore;
shapes = (
{
closed = 1;
nodes = (
(142,573,l),
(141,628,l),
(198,752,l),
(240,784,l),
(348,724,l),
(188,552,l)
);
},
{
closed = 1;
nodes = (
(250,528,o),
(258,502,q),
(349,24,l),
(350,17,o),
(350,8.5,q),
(350,0,o),
(346,-5.5,q),
(342,-11,o),
(318,-11,q),
(252,-11,o),
(245,21,q),
(224,151,l),
(143,151,l),
(124,18,l),
(122,0,o),
(116.5,-5.5,q),
(111,-11,o),
(88,-11,q),
(65,-11,o),
(54.5,-10.5,q),
(44,-10,o),
(32,-7,q),
(11,-2,o),
(13,23,q),
(95,507,l),
(99,528,o),
(201,528,q)
);
},
{
closed = 1;
nodes = (
(159,247,l),
(206,247,l),
(181,385,l)
);
}
);
width = 392;
}
);
},
{
category = Letter;
glyphname = E_smcpacute;
layers = (
{
layerId = "7144b595-13c7-4fae-a12f-f92b2e7cb6a6";
name = Fore;
shapes = (
{
closed = 1;
nodes = (
(136,573,l),
(135,628,l),
(192,752,l),
(234,784,l),
(342,724,l),
(182,552,l)
);
},
{
closed = 1;
nodes = (
(288,324,o),
(288,292,q),
(288,265,o),
(287,254.5,q),
(286,244,o),
(278.5,236,q),
(271,228,o),
(255,228,q),
(132,228,l),
(132,101,l),
(279,101,l),
(299,100,o),
(307,92.5,q),
(315,85,o),
(315,59,q),
(315,33,o),
(307.5,19,q),
(300,5,o),
(277,5,q),
(37,5,l),
(25,21,l),
(25,522,l),
(268,522,l),
(305,521,o),
(305,492,q),
(305,472,o),
(303.5,460.5,q),
(302,449,o),
(292.5,438,q),
(283,427,o),
(266,427,q),
(126,427,l),
(132,324,l),
(253,324,l)
);
}
);
width = 367;
}
);
},
{
category = Letter;
glyphname = I_smcpacute;
layers = (
{
layerId = "7144b595-13c7-4fae-a12f-f92b2e7cb6a6";
name = Fore;
shapes = (
{
closed = 1;
nodes = (
(79,573,l),
(78,628,l),
(135,752,l),
(177,784,l),
(285,724,l),
(125,552,l)
);
},
{
closed = 1;
nodes = (
(21,5,o),
(21,53,q),
(21,101,o),
(48,101,q),
(65,101,l),
(65,427,l),
(52,427,l),
(34,427,o),
(28,436,q),
(21,447,o),
(21,477,q),
(21,522,o),
(52,522,q),
(170,522,l),
(206,522,o),
(206,493,q),
(206,427,o),
(176,427,q),
(167,427,l),
(174,101,l),
(187,101,l),
(217,98,o),
(217,71,q),
(215,5,o),
(177,5,q),
(51,5,l)
);
}
);
width = 268;
}
);
},
{
category = Letter;
glyphname = O_smcpacute;
layers = (
{
layerId = "7144b595-13c7-4fae-a12f-f92b2e7cb6a6";
name = Fore;
shapes = (
{
closed = 1;
nodes = (
(159,573,l),
(158,628,l),
(215,752,l),
(257,784,l),
(365,724,l),
(205,552,l)
);
},
{
closed = 1;
nodes = (
(26,109,o),
(26,264,q),
(26,419,o),
(64.5,475,q),
(103,531,o),
(208,531,q),
(313,531,o),
(351.5,475,q),
(390,419,o),
(390,264,q),
(390,109,o),
(350.5,51.5,q),
(311,-6,o),
(207.5,-6,q),
(104,-6,o),
(65,51.5,q)
);
},
{
closed = 1;
nodes = (
(148,385,o),
(148,286,q),
(148,187,o),
(151,148,q),
(154,109,o),
(158.5,96.5,q),
(163,84,o),
(172,84,q),
(209,84,o),
(226,87.5,q),
(243,91,o),
(254.5,111.5,q),
(266,132,o),
(268,162.5,q),
(270,193,o),
(270,260,q),
(270,445,o),
(246,445,q),
(178,445,o),
(163,415,q)
);
}
);
width = 419;
}
);
},
